<svg id="Layer_1" enable-background="new 0 0 512 512" height="512" viewBox="0 0 512 512" width="512" xmlns="http://www.w3.org/2000/svg"><g><path d="m134.031 403.281c-78.218-78.218-78.218-205.034 0-283.252l-55.368 30c-78.218 78.218-78.218 205.034 0 283.252 71.467 71.467 184.867 76.536 263.337 17.404-70.36 24.638-151.728 8.838-207.969-47.404z" fill="#c6e1f2"/><path d="m376 328.03c-5.114 0-10.227-1.948-14.132-5.847-7.816-7.805-7.825-20.468-.021-28.285l104.284-104.439c3.789-3.788 5.869-8.81 5.869-14.152s-2.081-10.364-5.858-14.142c-7.798-7.798-20.486-7.798-28.284 0-.035.035-.069.069-.104.103l-78.38 77.241c-11.327 11.3-26.372 17.521-42.374 17.521-16.026 0-31.094-6.241-42.426-17.574s-17.574-26.4-17.574-42.426c0-16.027 6.241-31.094 17.574-42.427l79.581-79.443c3.765-3.766 5.846-8.788 5.846-14.13s-2.081-10.364-5.858-14.142c-3.778-3.777-8.8-5.858-14.142-5.858s-10.364 2.081-14.142 5.858l-136.739 136.306c-7.823 7.799-20.486 7.778-28.284-.045s-7.778-20.486.045-28.284l136.715-136.284c23.371-23.372 61.437-23.371 84.83.022 23.394 23.394 23.394 61.458 0 84.853l-79.58 79.444c-3.766 3.765-5.846 8.788-5.846 14.13s2.081 10.364 5.858 14.142c3.778 3.777 8.8 5.858 14.142 5.858s10.365-2.08 14.142-5.858c.035-.035.069-.069.104-.103l78.388-77.249c23.399-23.333 61.419-23.313 84.792.06 11.333 11.333 17.574 26.4 17.574 42.427s-6.241 31.094-17.574 42.426l-104.273 104.429c-3.906 3.911-9.03 5.868-14.153 5.868zm-.007 119.457 117.037-115.204c7.872-7.749 7.972-20.412.223-28.284s-20.412-7.971-28.283-.223l-117.086 115.252c-.037.037-.075.074-.112.111-70.295 70.295-184.673 70.294-254.967 0s-70.294-184.672.04-255.007l116.337-117c7.789-7.833 7.752-20.496-.08-28.284-7.833-7.788-20.496-7.752-28.284.08l-116.297 116.96c-41.607 41.607-64.521 96.926-64.521 155.767 0 58.842 22.914 114.161 64.521 155.768s96.927 64.521 155.768 64.521c58.813.001 114.104-22.888 155.704-64.457z" fill="#0023c4"/><path d="m180.454 412.944c-45.215 0-82-36.785-82-82s36.785-82 82-82 82 36.785 82 82-36.786 82-82 82zm0-124c-23.159 0-42 18.841-42 42s18.841 42 42 42 42-18.841 42-42-18.842-42-42-42z" fill="#ff5cf3"/></g></svg>