<svg id="Layer_1" enable-background="new 0 0 512.083 512.083" height="512" viewBox="0 0 512.083 512.083" width="512" xmlns="http://www.w3.org/2000/svg"><g><path d="m215.097 296.986c-12.831-12.831-27.25-23.798-42.85-32.675-6.384-3.633-6.384-12.908 0-16.54 15.6-8.877 30.019-19.844 42.85-32.675 17.164-17.165 40.944-36.055 61.944-137.055 0 0 4.961-8.82 13.03-22.784l-2.375-10.153c-7.83-33.473-55.48-33.473-63.311 0l-13.964 59.691c-12.264 52.427-53.199 93.362-105.626 105.626l-59.691 13.964c-33.418 7.817-33.418 55.493 0 63.311l59.691 13.964c52.427 12.264 93.362 53.2 105.626 105.626l13.964 59.691c7.83 33.473 55.48 33.473 63.311 0l.723-3.092c-6.96-13.094-11.378-21.845-11.378-21.845-22.999-108.998-44.78-127.889-61.944-145.054z" fill="#c6e1f2"/><path d="m256.042 512.083c-.002 0 0 0 0 0-24.909 0-45.456-16.296-51.129-40.549l-13.964-59.691c-10.607-45.344-45.364-80.101-90.708-90.708l-59.691-13.964c-24.229-5.668-40.508-26.215-40.508-51.129s16.279-45.461 40.508-51.129l59.691-13.964c45.343-10.607 80.1-45.364 90.708-90.708l13.964-59.691c5.672-24.254 26.22-40.55 51.128-40.55 24.909 0 45.457 16.295 51.13 40.549l13.963 59.691c10.607 45.343 45.364 80.1 90.708 90.708l59.691 13.964c24.229 5.668 40.508 26.215 40.508 51.129s-16.279 45.461-40.508 51.129l-59.691 13.964c-45.343 10.607-80.1 45.364-90.708 90.708l-13.963 59.691c-5.673 24.253-26.223 40.55-51.129 40.55zm0-472.083c-2.983 0-10.142.941-12.181 9.66l-13.964 59.692c-6.867 29.356-21.766 56.142-43.084 77.46s-48.104 36.217-77.46 43.084l-59.692 13.964c-8.682 2.031-9.619 9.195-9.619 12.181s.938 10.15 9.619 12.181l59.691 13.964c29.356 6.867 56.142 21.766 77.46 43.084s36.217 48.104 43.084 77.46l13.964 59.691c2.04 8.719 9.198 9.66 12.181 9.66s10.142-.941 12.182-9.661l13.963-59.691c6.867-29.356 21.766-56.142 43.084-77.46 21.319-21.318 48.104-36.217 77.46-43.084l59.691-13.964c8.682-2.031 9.619-9.195 9.619-12.181s-.938-10.15-9.619-12.181l-59.691-13.964c-29.356-6.867-56.142-21.766-77.46-43.084-21.318-21.319-36.217-48.104-43.084-77.46l-13.963-59.691c-2.04-8.719-9.199-9.66-12.181-9.66zm121.982 64.045c-3.165 0-6.376-.753-9.366-2.342-9.754-5.182-13.461-17.291-8.279-27.045l34-64c5.183-9.754 17.29-13.46 27.045-8.279 9.754 5.182 13.461 17.291 8.279 27.045l-34 64c-3.593 6.765-10.518 10.621-17.679 10.621zm-276.32 39.38c5.182-9.755 1.476-21.863-8.279-27.045l-64-34c-9.755-5.181-21.863-1.476-27.045 8.279s-1.476 21.863 8.279 27.045l64 34c2.99 1.588 6.201 2.342 9.366 2.342 7.16-.001 14.085-3.857 17.679-10.621zm16 358 34-64c5.182-9.755 1.476-21.863-8.279-27.045s-21.863-1.476-27.045 8.279l-34 64c-5.182 9.755-1.476 21.863 8.279 27.045 2.99 1.588 6.201 2.342 9.366 2.342 7.16-.001 14.085-3.857 17.679-10.621zm392-80c5.182-9.755 1.476-21.863-8.279-27.045l-64-34c-9.755-5.181-21.863-1.476-27.045 8.279s-1.476 21.863 8.279 27.045l64 34c2.99 1.588 6.201 2.342 9.366 2.342 7.16-.001 14.085-3.857 17.679-10.621zm-366.164-320.783c9.721-5.246 13.348-17.379 8.102-27.099l-34-63c-5.246-9.721-17.377-13.348-27.099-8.102-9.721 5.246-13.348 17.379-8.102 27.099l34 63c3.616 6.7 10.504 10.505 17.618 10.505 3.207 0 6.461-.773 9.481-2.403zm277.885 409.062c9.754-5.182 13.461-17.291 8.279-27.045l-34-64c-5.182-9.755-17.29-13.462-27.045-8.279-9.754 5.182-13.461 17.291-8.279 27.045l34 64c3.594 6.765 10.518 10.621 17.679 10.621 3.164-.001 6.376-.754 9.366-2.342z" fill="#0023c4"/><path d="m428.059 154.045c-7.161 0-14.085-3.855-17.679-10.621-5.182-9.755-1.476-21.863 8.279-27.045l64-34c9.756-5.182 21.863-1.476 27.045 8.279s1.476 21.863-8.279 27.045l-64 34c-2.99 1.589-6.202 2.342-9.366 2.342zm-398.634 275.659 64-34c9.754-5.182 13.461-17.291 8.279-27.045-5.182-9.755-17.29-13.461-27.045-8.279l-64 34c-9.754 5.182-13.461 17.291-8.279 27.045 3.594 6.765 10.518 10.621 17.679 10.621 3.164-.001 6.376-.754 9.366-2.342z" fill="#ff5cf3"/></g></svg>