<svg id="Layer_1" enable-background="new 0 0 511.985 511.985" height="512" viewBox="0 0 511.985 511.985" width="512" xmlns="http://www.w3.org/2000/svg"><g><path d="m199.491 220.642c0-53.404 36.037-98.39 85-111.671-9.565-2.594-19.62-3.987-30-3.987-63.513 0-115 51.821-115 115.657s57.968 148.343 115 148.343c10.08 0 20.187-2.65 30-7.349-45.71-21.885-85-88.439-85-140.993z" fill="#c6e1f2"/><g fill="#0023c4"><path d="m399.926 406.555c-18.347-10.948-40.483-11.452-59.215-1.346-27.57 14.873-56.241 22.535-85.22 22.776-28.702-.238-56.251-7.688-84.219-22.776-18.733-10.105-40.868-9.602-59.215 1.346-18.513 11.048-29.565 30.494-29.565 52.019v33.412c0 11.046 8.954 20 20 20s20-8.954 20-20v-33.412c0-10.528 7.038-15.864 10.063-17.67 2.946-1.758 10.765-5.324 19.726-.491 33.904 18.29 67.616 27.309 103.062 27.572.099.001.198.001.297 0 35.627-.264 70.639-9.541 104.063-27.572 8.96-4.834 16.78-1.267 19.726.491 3.026 1.806 10.063 7.142 10.063 17.67v33.412c0 11.046 8.954 20 20 20s20-8.954 20-20v-33.412c-.001-21.525-11.053-40.971-29.566-52.019z"/><path d="m414.567 68.395c-41.797-43.382-98.028-67.671-158.336-68.394-.16-.002-.319-.002-.48 0-60.306.723-116.538 25.012-158.334 68.394-41.952 43.543-62.926 100.59-62.926 161.59 0 48 12.213 92.375 38.359 131.176 6.173 9.161 18.603 11.582 27.762 5.41 9.16-6.172 11.582-18.602 5.41-27.762-21.569-32.009-32.512-69.97-31.531-108.824-1.265-50.083 17.146-97.94 51.731-133.837 34.259-35.559 80.335-55.493 129.77-56.146 49.434.654 95.509 20.587 129.769 56.146 34.585 35.897 52.936 83.249 51.671 133.333-1.002 39.704-12.77 77.535-34.031 109.406-6.13 9.189-3.65 21.607 5.539 27.737 3.411 2.275 7.266 3.364 11.081 3.364 6.46 0 12.802-3.125 16.656-8.903 25.46-38.167 39.549-83.325 40.743-130.594 1.536-60.866-20.786-118.433-62.853-162.096z"/><path d="m254.491 388.985c32.812 0 67.417-21.252 94.942-58.307 25.083-33.767 40.058-74.901 40.058-110.036 0-74.802-60.561-135.658-135-135.658s-135 60.856-135 135.658c0 35.134 14.975 76.269 40.058 110.036 27.525 37.055 62.13 58.307 94.942 58.307zm0-264c52.383 0 95 42.912 95 95.658 0 26.449-12.326 59.472-32.168 86.184-19.609 26.398-43.098 42.159-62.832 42.159s-43.223-15.76-62.832-42.159c-19.842-26.711-32.168-59.735-32.168-86.184 0-52.747 42.617-95.658 95-95.658z"/></g><path d="m287.488 256.985c-4.947 0-9.902-1.824-13.771-5.5-8.008-7.608-8.333-20.267-.725-28.275l19-20c7.608-8.008 20.267-8.333 28.275-.725s8.333 20.267.725 28.275l-19 20c-3.932 4.138-9.213 6.225-14.504 6.225zm-52.222-5.5c8.008-7.608 8.333-20.267.725-28.275l-19-20c-7.607-8.008-20.267-8.333-28.275-.725s-8.333 20.267-.725 28.275l19 20c3.932 4.139 9.212 6.225 14.503 6.225 4.947 0 9.903-1.824 13.772-5.5z" fill="#ff5cf3"/></g></svg>