<svg id="Layer_1" enable-background="new 0 0 513 513" height="512" viewBox="0 0 513 513" width="512" xmlns="http://www.w3.org/2000/svg"><g><path d="m100 482.5c-8.357 6.278-18.743 9.999-30 9.999-27.614 0-50-22.386-50-50s22.386-50 50-50c11.257 0 21.643 3.722 30 9.999-12.144 9.122-20 23.643-20 40.001s7.857 30.879 20 40.001zm162-40c0-16.357 7.856-30.878 20-40.001-8.357-6.278-18.743-9.999-30-9.999-27.614 0-50 22.386-50 50s22.386 50 50 50c11.257 0 21.643-3.722 30-9.999-12.143-9.123-20-23.644-20-40.001zm-182-181c0-16.357 7.856-30.878 20-40.001-8.357-6.278-18.743-9.999-30-9.999-27.614 0-50 22.386-50 50s22.386 50 50 50c11.257 0 21.643-3.722 30-9.999-12.143-9.123-20-23.644-20-40.001z" fill="#c6e1f2"/><path d="m70 512.5c-38.598 0-70-31.402-70-70s31.402-70 70-70 70 31.402 70 70-31.402 70-70 70zm0-100c-16.542 0-30 13.458-30 30s13.458 30 30 30 30-13.458 30-30-13.458-30-30-30zm105.213-46.929 118-118c7.811-7.811 7.811-20.474 0-28.284s-20.474-7.811-28.284 0l-118 118c-7.811 7.811-7.811 20.474 0 28.284 3.905 3.905 9.023 5.858 14.142 5.858s10.237-1.953 14.142-5.858zm76.787 146.929c-38.598 0-70-31.402-70-70s31.402-70 70-70 70 31.402 70 70-31.402 70-70 70zm0-100c-16.542 0-30 13.458-30 30s13.458 30 30 30 30-13.458 30-30-13.458-30-30-30zm103.26-43.976 151.929-152.929c7.785-7.836 7.743-20.5-.093-28.284-7.837-7.786-20.5-7.743-28.284.093l-151.929 152.929c-7.785 7.836-7.743 20.5.093 28.284 3.901 3.876 8.999 5.812 14.095 5.812 5.14 0 10.28-1.97 14.189-5.905zm-285.26-37.024c-38.598 0-70-31.402-70-70s31.402-70 70-70 70 31.402 70 70-31.402 70-70 70zm0-100c-16.542 0-30 13.458-30 30s13.458 30 30 30 30-13.458 30-30-13.458-30-30-30zm162.213-103.929 92.929-92.929c7.811-7.811 7.811-20.474 0-28.284s-20.474-7.811-28.284 0l-92.929 92.929c-7.811 7.811-7.811 20.474 0 28.284 3.905 3.905 9.023 5.858 14.142 5.858s10.237-1.953 14.142-5.858zm-96.142 41.858c0 13.807 11.193 25 25 25s25-11.193 25-25-11.193-25-25-25-25 11.193-25 25zm176 6c0 13.807 11.193 25 25 25s25-11.193 25-25-11.193-25-25-25-25 11.193-25 25z" fill="#0023c4"/><path d="m394.072 138.429c-5.153 0-10.303-1.979-14.215-5.931-7.771-7.85-7.706-20.514.145-28.284l98-97c7.851-7.771 20.513-7.706 28.284.145 7.771 7.85 7.706 20.514-.145 28.284l-98 97c-3.899 3.859-8.986 5.786-14.069 5.786z" fill="#ff5cf3"/></g></svg>