<svg id="Layer_1" enable-background="new 0 0 512 512" height="512" viewBox="0 0 512 512" width="512" xmlns="http://www.w3.org/2000/svg"><g><g><path d="m79.999 166.999c0-70.904 50.202-130.079 116.999-143.931-9.685-2.008-19.718-3.068-30-3.068-81.184 0-146.998 65.813-146.998 146.999s65.813 146.999 146.999 146.999c10.281 0 20.314-1.06 30-3.068-66.798-13.852-117-73.027-117-143.931z" fill="#c6e1f2"/></g><path d="m493.882 62.349-291.465-56.209c-11.234-2.412-22.875-3.692-34.813-3.692-91.379 0-165.729 74.35-165.729 165.729 0 12.415 1.379 24.502 3.979 36.153l55.921 290.125c1.826 9.497 10.142 16.097 19.471 16.097 1.24 0 2.511-.119 3.771-.367 10.767-2.074 17.813-12.474 15.739-23.242l-36.49-189.298c28.363 22.676 64.287 36.262 103.338 36.262 91.379 0 165.729-74.35 165.729-165.729 0-39.06-13.596-75.005-36.282-103.357l189.318 36.51c1.27.238 2.531.357 3.781.357 9.319 0 17.635-6.599 19.461-16.087 2.084-10.768-4.962-21.178-15.729-23.252zm-326.576 232.209c-69.755 0-126.302-56.546-126.302-126.302s56.547-126.311 126.302-126.311 126.311 56.556 126.311 126.311-56.556 126.302-126.311 126.302z" fill="#0023c4"/><path d="m338.434 310.943c-7.751-7.76-20.314-7.751-28.075 0-7.751 7.751-7.751 20.314 0 28.065l78.399 78.399c3.88 3.87 8.961 5.815 14.042 5.815 5.071 0 10.152-1.945 14.032-5.815 7.751-7.751 7.751-20.314 0-28.075z" fill="#0023c4"/><path d="m234.596 111.697c-10.363-3.568-21.659 1.943-25.225 12.309-14.018 40.734-46.483 73.22-86.842 86.9-10.381 3.518-15.945 14.787-12.426 25.168 2.802 8.27 10.523 13.482 18.795 13.482 2.113.001 4.261-.338 6.373-1.055 51.914-17.596 93.646-59.307 111.634-111.577 3.567-10.366-1.945-21.66-12.309-25.227z" fill="#ff5cf3"/></g></svg>