<svg id="Layer_1" enable-background="new 0 0 512 512" height="512" viewBox="0 0 512 512" width="512" xmlns="http://www.w3.org/2000/svg"><g><path d="m80 256c0-120.176 89.826-219.372 206-234.11-9.824-1.247-19.837-1.89-30-1.89-130.339 0-236 105.661-236 236s105.661 236 236 236c10.163 0 20.176-.643 30-1.89-116.174-14.738-206-113.934-206-234.11z" fill="#c6e1f2"/><path d="m256 512c-68.38 0-132.667-26.629-181.02-74.98-48.351-48.353-74.98-112.64-74.98-181.02s26.629-132.667 74.98-181.02c48.353-48.351 112.64-74.98 181.02-74.98s132.667 26.629 181.02 74.98c48.351 48.353 74.98 112.64 74.98 181.02s-26.629 132.667-74.98 181.02c-48.353 48.351-112.64 74.98-181.02 74.98zm0-472c-119.103 0-216 96.897-216 216s96.897 216 216 216 216-96.897 216-216-96.897-216-216-216zm151.99 305c-4.564 0-9.151-1.554-12.909-4.732-12.718-10.761-16.688-25.727-19.313-35.63-.503-1.895-1.19-4.491-1.538-5.323-2.589-5.836-12.094-17.315-17.427-17.315-3.25 0-4.893.055-5.652.093-3.027.764-5.953.992-11.769.992-35.303 0-51.382-28.394-51.382-54.774 0-17.119 5.984-32.608 16.852-43.613 11.432-11.578 27.343-17.698 46.014-17.698 3.885 0 8.74.611 17.697 1.781 10.395 1.359 24.631 3.219 35.437 3.219 11.046 0 20 8.954 20 20s-8.954 20-20 20c-13.408 0-29.136-2.055-40.619-3.556-4.826-.631-10.831-1.416-12.551-1.444-15.137 0-22.83 7.17-22.83 21.311 0 14.774 8.566 14.774 11.382 14.774 1.504 0 9.729-1.085 17.421-1.085 29.462 0 49.006 29.764 54.051 41.232 1.563 3.554 2.541 7.245 3.577 11.152 1.502 5.663 3.371 12.711 6.488 15.348 8.432 7.135 9.483 19.754 2.349 28.187-3.955 4.675-9.598 7.081-15.278 7.081zm-64.996-101.985s0 0 0 0zm-70.266 128.005c-3.609-6.784-6.728-12.642-6.728-17.724 0-3.088 1.943-7.919 4.193-13.514 4.135-10.28 9.798-24.358 9.798-43.486 0-14.862-8.249-28.385-22.632-37.104-11.761-7.128-27.1-10.896-44.359-10.896h-53c-11.214 0-19.609-2.285-22.459-6.111-1.541-2.068-1.541-4.72-1.541-5.852 0-10.583 17.872-20.865 30.922-28.373 3.287-1.891 6.392-3.677 9.329-5.499 15.638-9.699 41.811-25.933 41.811-54.59 0-30.067-26.807-48.79-42.646-55.113 0 0-3.415-1.759-8.415-1.759-11.046 0-20 8.954-20 20 0 8.902 5.82 16.437 13.859 19.03 4.221 1.879 17.202 9.262 17.202 17.841 0 6.398-15.463 15.989-22.896 20.599-2.374 1.473-5.199 3.098-8.19 4.819-20.299 11.679-50.976 29.327-50.976 63.045 0 25.121 16.813 51.963 64 51.963h53c18.124 0 26.202 6.197 26.991 8.056-.011 11.356-3.361 19.685-6.908 28.503-3.482 8.658-7.083 17.61-7.083 28.441 0 15.063 6.33 26.958 11.417 36.516 1.054 1.98 2.065 3.881 2.966 5.698-1.951-2.068-3.932-4.49-5.979-6.993-2.032-2.484-4.133-5.053-6.485-7.65-14.89-16.434-32.804-21.693-48.609-26.334-6.776-1.99-13.177-3.869-19.387-6.548-2.108-.91-6.014-2.595-7.038-3.583-1.141-1.483-2.237-4.13-1.878-12.177.492-11.035-8.054-20.379-19.088-20.872-11.032-.502-20.38 8.053-20.873 19.088-.501 11.222.234 25.77 10.45 38.756 6.874 8.738 16.326 12.816 22.58 15.515 8.448 3.646 16.691 6.066 23.965 8.201 14.632 4.296 23.25 7.102 30.234 14.811 1.673 1.845 3.368 3.919 5.164 6.115 4.639 5.673 9.897 12.104 17.133 17.494 9.797 7.299 21.38 11 34.428 11 17.075 0 29-14.553 29-35.389 0-14.743-6.25-26.487-11.272-35.924z" fill="#0023c4"/><path d="m349 95c-5.805.034-18.782.746-33.888 6.064 1.644-10.446-5.177-20.461-15.644-22.663-10.806-2.271-21.414 4.646-23.688 15.455-.002.006-1.455 6.916-3.122 14.773-2.604 12.279 2.049 24.565 12.141 32.065 5.628 4.183 12.198 6.305 18.813 6.305 5.181 0 10.389-1.302 15.193-3.937 15.599-8.551 30.195-8.062 30.195-8.062 11.046 0 20-8.954 20-20 0-10.986-9.037-19.903-20-20z" fill="#ff5cf3"/></g></svg>