<svg id="Layer_1" enable-background="new 0 0 512.01 512.01" height="512" viewBox="0 0 512.01 512.01" width="512" xmlns="http://www.w3.org/2000/svg"><g><g fill="#0023c4"><path d="m376.614 473.129c-25.862-9.055-49.054-26.205-65.303-48.292-2.767-3.759-5.419-7.756-8.228-11.988-7.381-11.12-15.012-22.618-26.265-32.348-18.005-15.567-39.321-21.662-59.936-27.557-14.236-4.071-27.683-7.916-38.558-14.606-14.154-8.708-26.12-24.066-33.691-43.244-8.115-20.55-10.755-43.544-12.147-61.282-.135-1.712-.264-3.434-.394-5.161-1.729-23.041-3.688-49.156-19.342-70.944-12.021-16.733-26.361-24.461-40.229-31.936-12.091-6.516-24.593-13.254-37.939-27.461-7.563-8.051-20.22-8.446-28.271-.884-8.051 7.563-8.446 20.22-.884 28.271 17.799 18.947 34.609 28.007 48.117 35.287 11.659 6.284 20.084 10.824 26.721 20.063 9.093 12.655 10.476 31.086 11.939 50.599.134 1.773.266 3.542.404 5.299 1.611 20.521 4.752 47.346 14.819 72.84 7.589 19.222 22.413 45.688 49.938 62.622 15.554 9.569 32.313 14.361 48.52 18.996 17.198 4.918 33.443 9.563 44.771 19.356 7.113 6.151 12.936 14.922 19.1 24.209 2.947 4.441 5.996 9.034 9.334 13.572 20.976 28.511 50.916 50.651 84.307 62.34 2.187.766 4.416 1.129 6.608 1.129 8.261 0 15.992-5.159 18.877-13.397 3.65-10.424-1.843-21.833-12.268-25.483z"/><circle cx="25.005" cy="25.005" r="25"/><circle cx="487.005" cy="487.005" r="25"/><path d="m272.807 50.678c10.133 15.009 25.299 26.021 42.705 31.009 17.928 5.127 39.859 11.399 60.092 23.846 11.389 7.006 22.377 16.037 31.776 26.114 3.938 4.223 9.276 6.358 14.629 6.358 4.886 0 9.783-1.78 13.638-5.375 8.077-7.534 8.518-20.19.983-28.268-11.812-12.663-25.666-24.039-40.066-32.898-24.912-15.326-51.659-22.975-70.034-28.23-8.384-2.402-15.688-7.708-20.57-14.939 0 0-12.847-18.964-14.471-20.951-6.992-8.551-19.591-9.814-28.144-2.823-8.493 6.945-9.798 19.421-2.964 27.968 1.419 1.886 12.426 18.189 12.426 18.189z"/><path d="m251.629 479.52c-1.419-1.884-12.426-18.188-12.426-18.188-10.133-15.009-25.299-26.021-42.705-31.009-17.928-5.127-39.859-11.399-60.092-23.846-11.175-6.875-21.525-15.344-30.765-25.171-7.567-8.048-20.224-8.439-28.271-.872-8.048 7.566-8.438 20.223-.872 28.271 11.659 12.402 24.763 23.114 38.947 31.841 24.912 15.326 51.659 22.975 70.034 28.23 8.384 2.402 15.688 7.708 20.57 14.939 0 0 12.847 18.964 14.471 20.951 3.954 4.835 9.701 7.34 15.495 7.34 4.452 0 8.933-1.479 12.648-4.518 8.496-6.945 9.8-19.421 2.966-27.968z"/><circle cx="146.005" cy="109.005" r="25"/><circle cx="311.005" cy="265.005" r="25"/><path d="m477.428 413.698c3.937 4.19 9.252 6.307 14.581 6.307 4.909 0 9.829-1.797 13.689-5.423 8.051-7.563 8.446-20.22.884-28.271-17.799-18.947-34.609-28.007-48.117-35.287-11.659-6.284-20.084-10.824-26.721-20.063-9.093-12.655-10.476-31.086-11.939-50.599-.134-1.773-.266-3.542-.404-5.299-1.611-20.521-4.752-47.346-14.819-72.84-7.589-19.222-22.413-45.688-49.938-62.622-15.554-9.569-32.313-14.361-48.52-18.996-17.198-4.918-33.443-9.563-44.771-19.356-7.113-6.151-12.936-14.922-19.1-24.209-2.947-4.441-5.996-9.034-9.334-13.572-20.976-28.511-50.916-50.651-84.307-62.34-10.423-3.649-21.835 1.843-25.485 12.268-3.649 10.425 1.843 21.835 12.269 25.485 25.862 9.055 49.054 26.205 65.303 48.292 2.767 3.759 5.419 7.756 8.228 11.988 7.381 11.12 15.012 22.618 26.265 32.348 18.005 15.567 39.321 21.662 59.936 27.557 14.236 4.071 27.683 7.916 38.558 14.606 14.154 8.708 26.12 24.066 33.691 43.244 8.115 20.55 10.755 43.544 12.147 61.282.135 1.712.264 3.434.394 5.161 1.729 23.041 3.688 49.156 19.342 70.944 12.021 16.733 26.361 24.461 40.229 31.936 12.09 6.514 24.592 13.252 37.939 27.459z"/><circle cx="224.005" cy="279.005" r="25"/></g><path d="m475.413 261.008c-9.686 0-18.196-7.05-19.736-16.919-3.84-24.611-8.182-42.843-13.274-55.738-4.057-10.273.983-21.891 11.257-25.948 10.276-4.059 21.892.983 25.948 11.256 6.276 15.894 11.23 36.313 15.591 64.262 1.703 10.914-5.764 21.142-16.678 22.844-1.044.164-2.083.243-3.108.243zm-416.446 89.415c10.273-4.057 15.313-15.674 11.257-25.948-5.401-13.677-10.334-33.762-13.891-56.553-1.703-10.913-11.924-18.379-22.844-16.677-10.914 1.703-18.381 11.93-16.678 22.844 2.828 18.126 7.936 44.131 16.207 65.078 3.105 7.863 10.638 12.66 18.608 12.66 2.445-.001 4.93-.452 7.341-1.404zm108.038-156.418c0 13.807 11.193 25 25 25s25-11.193 25-25-11.193-25-25-25-25 11.193-25 25zm152 174c0 13.807 11.193 25 25 25s25-11.193 25-25-11.193-25-25-25-25 11.193-25 25z" fill="#ff5cf3"/></g></svg>