<svg id="Layer_1" enable-background="new 0 0 512 512" height="512" viewBox="0 0 512 512" width="512" xmlns="http://www.w3.org/2000/svg"><g><path d="m80 256c0-120.176 89.826-219.372 206-234.11-9.824-1.247-19.837-1.89-30-1.89-130.339 0-236 105.661-236 236s105.661 236 236 236c10.163 0 20.176-.643 30-1.89-116.174-14.738-206-113.934-206-234.11z" fill="#c6e1f2"/><path d="m256 512c-68.38 0-132.667-26.629-181.02-74.98-48.351-48.353-74.98-112.64-74.98-181.02s26.629-132.667 74.98-181.02c48.353-48.351 112.64-74.98 181.02-74.98s132.667 26.629 181.02 74.98c48.351 48.353 74.98 112.64 74.98 181.02s-26.629 132.667-74.98 181.02c-48.353 48.351-112.64 74.98-181.02 74.98zm0-472c-119.103 0-216 96.897-216 216s96.897 216 216 216 216-96.897 216-216-96.897-216-216-216zm-26 344c0-11.046-8.954-20-20-20h-50c-11.046 0-20 8.954-20 20s8.954 20 20 20h50c11.046 0 20-8.954 20-20zm-28-160c0-11.046-8.954-20-20-20h-80.023c-11.046 0-20 8.954-20 20s8.954 20 20 20h80.023c11.046 0 20-8.954 20-20zm185-80c0-11.046-8.954-20-20-20h-223.023c-11.046 0-20 8.954-20 20s8.954 20 20 20h223.023c11.046 0 20-8.954 20-20z" fill="#0023c4"/><path d="m303.499 374c-14.453 0-28.677-3.153-41.136-9.119-9.963-4.77-14.172-16.713-9.401-26.676s16.715-14.171 26.676-9.401c7.1 3.399 15.351 5.196 23.862 5.196 16.052 0 30.731-6.376 38.307-16.641 15.417-20.888 40.536-33.359 67.193-33.359 11.046 0 20 8.954 20 20s-8.954 20-20 20c-14.014 0-27.103 6.397-35.012 17.113-15.198 20.593-41.55 32.887-70.489 32.887zm-37.937-86.599c8.173-8.391 21.461-13.401 35.546-13.401 8.413 0 16.583 1.758 23.627 5.085 9.988 4.717 21.909.443 26.625-9.545 4.717-9.988.443-21.908-9.545-26.625-12.35-5.832-26.427-8.915-40.708-8.915-25.021 0-48.42 9.291-64.2 25.492-15.17 15.575-36.958 24.508-59.775 24.508h-70.024c-11.046 0-20 8.954-20 20s8.954 20 20 20h70.024c33.543 0 65.775-13.34 88.43-36.599z" fill="#ff5cf3"/></g></svg>