<svg id="Layer_1" enable-background="new 0 0 509 509" height="512" viewBox="0 0 509 509" width="512" xmlns="http://www.w3.org/2000/svg"><g><path d="m188 287c0-41.983 27.235-77.601 65-90.161-9.431-3.136-19.516-4.839-30-4.839-52.467 0-95 42.533-95 95s42.533 95 95 95c10.484 0 20.569-1.703 30-4.839-37.765-12.56-65-48.178-65-90.161z" fill="#c6e1f2"/><path d="m223 402c-63.411 0-115-51.589-115-115s51.589-115 115-115 115 51.589 115 115-51.589 115-115 115zm0-190c-41.355 0-75 33.645-75 75s33.645 75 75 75 75-33.645 75-75-33.645-75-75-75zm52-187c0 13.807 11.193 25 25 25s25-11.193 25-25-11.193-25-25-25-25 11.193-25 25zm-96 3c0 13.807 11.193 25 25 25s25-11.193 25-25-11.193-25-25-25-25 11.193-25 25zm-89 42c0 13.807 11.193 25 25 25s25-11.193 25-25-11.193-25-25-25-25 11.193-25 25zm-63 74c0 13.807 11.193 25 25 25s25-11.193 25-25-11.193-25-25-25-25 11.193-25 25zm-26 94c0 13.807 11.193 25 25 25s25-11.193 25-25-11.193-25-25-25-25 11.193-25 25zm14 97c0 13.807 11.193 25 25 25s25-11.193 25-25-11.193-25-25-25-25 11.193-25 25zm53 82c0 13.807 11.193 25 25 25s25-11.193 25-25-11.193-25-25-25-25 11.193-25 25zm82 53c0 13.807 11.193 25 25 25s25-11.193 25-25-11.193-25-25-25-25 11.193-25 25zm96 14c0 13.807 11.193 25 25 25s25-11.193 25-25-11.193-25-25-25-25 11.193-25 25zm95-27c0 13.807 11.193 25 25 25s25-11.193 25-25-11.193-25-25-25-25 11.193-25 25zm74-63c0 13.807 11.193 25 25 25s25-11.193 25-25-11.193-25-25-25-25 11.193-25 25zm42-88c0 13.807 11.193 25 25 25s25-11.193 25-25-11.193-25-25-25-25 11.193-25 25zm1-98c0 13.807 11.193 25 25 25s25-11.193 25-25-11.193-25-25-25-25 11.193-25 25z" fill="#0023c4"/><path d="m424 156c-38.598 0-70-31.402-70-70s31.402-70 70-70 70 31.402 70 70-31.402 70-70 70zm0-100c-16.542 0-30 13.458-30 30s13.458 30 30 30 30-13.458 30-30-13.458-30-30-30z" fill="#ff5cf3"/></g></svg>