<svg id="Layer_1" enable-background="new 0 0 512 512" height="512" viewBox="0 0 512 512" width="512" xmlns="http://www.w3.org/2000/svg"><g><path d="m136.096 463.789c-33.916-13.793-56.096-46.757-56.096-83.37v-287.379c0-29.69 19.967-53.097 45.509-60.555l-18.777-7.804c-41.429-16.849-86.732 13.634-86.732 58.359v287.379c0 36.613 22.18 69.577 56.096 83.37l73.83 30.024.656-14.133z" fill="#c6e1f2"/><path d="m475.335 14.177c-22.959-15.448-51.97-18.448-77.602-8.022-.047.019-.095.039-.142.058l-59.581 24.763h-164.02s-59.677-24.803-59.724-24.822c-25.632-10.423-54.64-7.425-77.601 8.023-22.958 15.448-36.665 41.191-36.665 68.863v287.379c0 44.962 26.912 84.959 68.563 101.897l73.829 30.023c15.725 6.395 32.304 9.637 49.278 9.637h128.66c16.975 0 33.554-3.242 49.278-9.637l73.829-30.024c41.651-16.938 68.563-56.934 68.563-101.897v-287.378c0-27.672-13.707-53.415-36.665-68.863zm-391.704 421.085c-26.505-10.779-43.631-36.231-43.631-64.844v-287.378c0-14.55 6.924-27.553 18.995-35.676 7.291-4.906 15.521-7.401 23.868-7.401 5.451 0 10.951 1.065 16.269 3.217l50.868 21.142v397.93zm108.039 36.714c-.558 0-1.113-.03-1.67-.04v-400.96h132v400.96c-.557.01-1.112.04-1.67.04zm280.33-101.558c0 28.612-17.126 54.065-43.631 64.844l-66.369 26.99v-397.93l50.868-21.142c13.461-5.449 28.085-3.926 40.137 4.184 12.071 8.122 18.995 21.126 18.995 35.676zm-23-140.442c0 13.807-11.193 25-25 25s-25-11.193-25-25 11.193-25 25-25 25 11.193 25 25zm-39-74c-13.807 0-25-11.193-25-25s11.193-25 25-25 25 11.193 25 25-11.193 25-25 25zm-345-27c0-13.807 11.193-25 25-25s25 11.193 25 25-11.193 25-25 25-25-11.193-25-25zm204 275c0 13.807-11.193 25-25 25s-25-11.193-25-25 11.193-25 25-25 25 11.193 25 25zm26-93c0 13.807-11.193 25-25 25s-25-11.193-25-25 11.193-25 25-25 25 11.193 25 25zm-81-78c0-13.807 11.193-25 25-25s25 11.193 25 25-11.193 25-25 25-25-11.193-25-25zm-95 129c0 13.807-11.193 25-25 25s-25-11.193-25-25 11.193-25 25-25 25 11.193 25 25z" fill="#0023c4"/><path d="m275 137.976c0 13.807-11.193 25-25 25s-25-11.193-25-25 11.193-25 25-25 25 11.193 25 25zm132 193c-13.807 0-25 11.193-25 25s11.193 25 25 25 25-11.193 25-25-11.193-25-25-25zm-303-88c-13.807 0-25 11.193-25 25s11.193 25 25 25 25-11.193 25-25-11.193-25-25-25z" fill="#ff5cf3"/></g></svg>