<svg id="Layer_1" enable-background="new 0 0 512 512" height="512" viewBox="0 0 512 512" width="512" xmlns="http://www.w3.org/2000/svg"><g><path d="m80 256c0-120.176 89.826-219.372 206-234.11-9.824-1.247-19.837-1.89-30-1.89-130.339 0-236 105.661-236 236s105.661 236 236 236c10.163 0 20.176-.643 30-1.89-116.174-14.738-206-113.934-206-234.11z" fill="#c6e1f2"/><path d="m256 512c-68.38 0-132.667-26.629-181.02-74.98-48.351-48.353-74.98-112.64-74.98-181.02s26.629-132.667 74.98-181.02c48.353-48.351 112.64-74.98 181.02-74.98s132.667 26.629 181.02 74.98c48.351 48.353 74.98 112.64 74.98 181.02s-26.629 132.667-74.98 181.02c-48.353 48.351-112.64 74.98-181.02 74.98zm0-472c-119.103 0-216 96.897-216 216s96.897 216 216 216 216-96.897 216-216-96.897-216-216-216zm132.658 125.425c5.206-9.742 1.527-21.86-8.215-27.065-9.743-5.206-21.86-1.525-27.064 8.215-11.346 21.234-33.332 34.425-57.379 34.425-35.841 0-65-29.159-65-65 0-5.716.739-11.381 2.197-16.837 2.852-10.671-3.488-21.634-14.159-24.485-10.675-2.849-21.634 3.487-24.485 14.159-2.358 8.823-3.553 17.962-3.553 27.163 0 57.897 47.103 105 105 105 38.839 0 74.343-21.295 92.658-55.575zm-117.658-49.425c0 13.807 11.193 25 25 25s25-11.193 25-25-11.193-25-25-25-25 11.193-25 25zm43.983 312.016c7.28-8.307 6.448-20.943-1.859-28.223-10.247-8.981-16.124-21.938-16.124-35.549 0-26.05 21.193-47.244 47.244-47.244 16.399 0 31.391 8.317 40.101 22.248 5.854 9.366 18.195 12.211 27.561 6.355 9.366-5.855 12.212-18.195 6.355-27.561-16.068-25.699-43.738-41.042-74.017-41.042-48.106 0-87.244 39.138-87.244 87.244 0 25.134 10.848 49.055 29.761 65.63 3.795 3.327 8.494 4.959 13.174 4.959 5.561 0 11.094-2.306 15.048-6.817zm-163.983-82.016c-38.598 0-70-31.402-70-70s31.402-70 70-70 70 31.402 70 70-31.402 70-70 70zm0-100c-16.542 0-30 13.458-30 30s13.458 30 30 30 30-13.458 30-30-13.458-30-30-30z" fill="#0023c4"/><path d="m409 210c13.807 0 25 11.193 25 25s-11.193 25-25 25-25-11.193-25-25 11.193-25 25-25zm-225 195c0 13.807 11.193 25 25 25s25-11.193 25-25-11.193-25-25-25-25 11.193-25 25z" fill="#ff5cf3"/></g></svg>