<svg id="Layer_1" enable-background="new 0 0 512.031 512.031" height="512" viewBox="0 0 512.031 512.031" width="512" xmlns="http://www.w3.org/2000/svg"><g><path d="m126.016 250.774c-10.65-24.578.641-53.135 25.218-63.785l-60 10.014c-24.577 10.65-35.868 39.208-25.218 63.785 10.65 24.578 39.208 35.868 63.785 25.218l22.649-9.512c-11.439-4.592-21.145-13.515-26.434-25.72z" fill="#c6e1f2"/><path d="m137.644 304.405c-8.812 3.8-17.991 5.599-27.03 5.599-20.292 0-39.861-9.074-52.939-24.919l-30.035 12.404c-2.497 1.031-5.084 1.52-7.627 1.52-7.856 0-15.309-4.659-18.493-12.371-4.217-10.209.642-21.904 10.852-26.12l29.953-12.37c-1.053-10.69.428-21.55 4.491-31.827 6.727-17.016 19.678-30.393 36.466-37.667.071-.031 178.986-75.092 178.986-75.092 10.188-4.271 21.906.52 26.18 10.706s-.52 21.907-10.705 26.18l-178.65 74.949c-6.939 3.036-12.292 8.583-15.078 15.631-2.799 7.08-2.674 14.825.354 21.81 6.247 14.418 23.059 21.067 37.481 14.819.069-.03.139-.06.208-.089l176.204-74c10.185-4.278 21.906.512 26.184 10.696s-.512 21.907-10.695 26.184zm237.187 175.369-97.826-126.599v-42.172c0-11.046-8.954-20-20-20s-20 8.954-20 20v42.172l-97.826 126.599c-6.753 8.74-5.143 21.301 3.598 28.055 8.741 6.755 21.302 5.143 28.055-3.597l86.174-111.52 86.174 111.52c3.941 5.1 9.858 7.772 15.841 7.772 4.27 0 8.574-1.362 12.214-4.175 8.739-6.754 10.349-19.315 3.596-28.055z" fill="#0023c4"/><path d="m417.552 215.983c-9.049 0-17.734-1.22-25.924-3.672-24.707-7.401-43.932-25.525-55.602-52.42 0 0-11.067-25.005-11.088-25.054-10.826-24.997-11.829-50.036-2.901-72.411 9.763-24.468 30.442-44.014 59.805-56.525 37.048-15.787 80.178 1.347 96.137 38.196l28.012 64.676v.001c7.764 17.927 8.053 37.792.813 55.936-7.27 18.219-21.241 32.5-39.342 40.213-17.249 7.349-34.13 11.06-49.91 11.06zm-55.935-97.107s11.061 24.989 11.081 25.038c17.5 40.406 52.665 35.466 79.085 24.21 8.229-3.507 14.576-9.984 17.87-18.239 3.263-8.178 3.133-17.133-.367-25.216l-28.012-64.675c-7.245-16.728-26.871-24.486-43.752-17.294-19.349 8.245-32.604 20.192-38.332 34.55-4.957 12.424-4.141 26.428 2.427 41.626z" fill="#ff5cf3"/></g></svg>