<svg id="Layer_1" enable-background="new 0 0 512 512" height="512" viewBox="0 0 512 512" width="512" xmlns="http://www.w3.org/2000/svg"><g><path d="m361 439c13.807 0 25 11.193 25 25s-11.193 25-25 25-25-11.193-25-25 11.193-25 25-25zm-183-176c0 13.807 11.193 25 25 25s25-11.193 25-25-11.193-25-25-25-25 11.193-25 25z" fill="#ff5cf3"/><path d="m512 487c0 13.807-11.193 25-25 25s-25-11.193-25-25 11.193-25 25-25 25 11.193 25 25zm-80-166c0 33.084-26.916 60-60 60s-60-26.916-60-60c0-17.582 7.602-33.421 19.691-44.405l-43.135-102.86c-4.271-10.186.523-21.907 10.709-26.178 10.185-4.271 21.906.523 26.178 10.709l43.126 102.839c1.136-.064 2.278-.105 3.43-.105 33.085 0 60.001 26.916 60.001 60zm-40 0c0-11.028-8.972-20-20-20s-20 8.972-20 20 8.972 20 20 20 20-8.972 20-20zm-309-38c-13.807 0-25 11.193-25 25s11.193 25 25 25 25-11.193 25-25-11.193-25-25-25zm-83-122c0-33.084 26.916-60 60-60s60 26.916 60 60-26.916 60-60 60-60-26.916-60-60zm40 0c0 11.028 8.972 20 20 20s20-8.972 20-20-8.972-20-20-20-20 8.972-20 20zm241.41 197.185c4.316 10.168-.427 21.909-10.594 26.226l-150.927 64.071c.068 1.165.112 2.337.112 3.519 0 33.084-26.916 60-60 60s-60.001-26.917-60.001-60.001 26.916-60 60-60c17.549 0 33.361 7.574 44.343 19.624l150.842-64.034c10.168-4.315 21.909.428 26.225 10.595zm-201.41 93.815c0-11.028-8.972-20-20-20s-20 8.972-20 20 8.972 20 20 20 20-8.972 20-20zm305.862-244.81 30.125-99.234c-14.556-10.957-23.987-28.375-23.987-47.956 0-33.084 26.916-60 60-60s60 26.916 60 60c0 32.363-25.76 58.807-57.85 59.945l-30.012 98.864c-2.621 8.633-10.553 14.196-19.13 14.196-1.924 0-3.88-.28-5.817-.868-10.57-3.208-16.537-14.377-13.329-24.947zm46.138-147.19c0 11.028 8.972 20 20 20s20-8.972 20-20-8.972-20-20-20-20 8.972-20 20zm-285.986 56.747c-4.831-9.933-.695-21.902 9.239-26.733l47.178-22.945c-.274-2.32-.431-4.676-.431-7.069 0-33.084 26.916-60 60-60s60 26.916 60 60-26.916 60-60 60c-16.268 0-31.035-6.517-41.854-17.066l-47.399 23.052c-2.816 1.37-5.797 2.019-8.732 2.019-7.415-.001-14.539-4.141-18.001-11.258zm95.986-56.747c0 11.028 8.972 20 20 20s20-8.972 20-20-8.972-20-20-20-20 8.972-20 20z" fill="#0023c4"/></g></svg>