<svg id="Layer_1" enable-background="new 0 0 512.005 512.005" height="512" viewBox="0 0 512.005 512.005" width="512" xmlns="http://www.w3.org/2000/svg"><g><path d="m435 174.005c-8.357 6.278-18.743 9.999-30 9.999-27.614 0-50-22.386-50-50s22.386-50 50-50c11.257 0 21.643 3.722 30 9.999-12.144 9.122-20 23.643-20 40.001s7.856 30.879 20 40.001zm-251-23c0-16.357 7.856-30.878 20-40.001-8.357-6.278-18.743-9.999-30-9.999-27.614 0-50 22.386-50 50s22.386 50 50 50c11.257 0 21.643-3.722 30-9.999-12.144-9.123-20-23.644-20-40.001z" fill="#c6e1f2"/><path d="m174 221.005c-38.598 0-70-31.402-70-70s31.402-70 70-70 70 31.402 70 70-31.402 70-70 70zm0-100c-16.542 0-30 13.458-30 30s13.458 30 30 30 30-13.458 30-30-13.458-30-30-30zm231 83c-38.598 0-70-31.402-70-70s31.402-70 70-70 70 31.402 70 70-31.402 70-70 70zm0-100c-16.542 0-30 13.458-30 30s13.458 30 30 30 30-13.458 30-30-13.458-30-30-30zm-229 387.99c0-86.019-69.981-156-156-156-11.046 0-20 8.954-20 20s8.954 20 20 20c63.962 0 116 52.037 116 116.02 0 11.046 8.954 19.99 20 19.99s20-8.964 20-20.01zm240-.035c0-54.198-10.758-106.729-31.975-156.135-20.489-47.71-49.771-90.396-87.035-126.872-7.893-7.728-20.555-7.593-28.283.302-7.727 7.893-7.591 20.556.302 28.283 68.994 67.536 106.991 157.891 106.991 254.476 0 11.046 8.954 19.973 20 19.973s20-8.981 20-20.027zm-343.075-372.84c.957-11.004-7.188-20.701-18.192-21.658-11.47-.997-23.155-1.503-34.733-1.503-11.046 0-20 8.954-20 20s8.954 20 20 20c10.425 0 20.945.455 31.267 1.353.59.051 1.175.076 1.756.076 10.261 0 18.996-7.853 19.902-18.268zm427.962 157.802c9.896-4.907 13.939-16.908 9.031-26.804-4.504-9.081-9.324-18.158-14.326-26.979-5.448-9.608-17.654-12.98-27.263-7.532-9.608 5.449-12.98 17.655-7.532 27.263 4.639 8.18 9.109 16.599 13.286 25.021 3.492 7.04 10.573 11.118 17.933 11.118 2.984 0 6.016-.671 8.871-2.087zm-174.226-213.445c6.11-9.202 3.604-21.615-5.597-27.725-18.618-12.363-38.176-23.682-58.132-33.642-9.883-4.933-21.894-.919-26.827 8.963-4.933 9.883-.92 21.894 8.963 26.827 18.491 9.229 36.614 19.718 53.868 31.175 3.404 2.26 7.245 3.341 11.045 3.341 6.476-.001 12.83-3.141 16.68-8.939z" fill="#0023c4"/><path d="m256 511.995h-20c-11.046 0-20-8.954-20-20s8.954-20 20-20h20c11.046 0 20 8.954 20 20s-8.954 20-20 20zm-68.858-158.848 14-14c7.811-7.811 7.811-20.475 0-28.285s-20.474-7.811-28.284 0l-14 14c-7.811 7.811-7.811 20.475 0 28.285 3.905 3.905 9.023 5.857 14.142 5.857s10.237-1.952 14.142-5.857zm-64.585-53.022 6.803-18.075c3.891-10.338-1.335-21.872-11.673-25.763-10.34-3.89-21.873 1.334-25.764 11.673l-6.803 18.075c-3.891 10.338 1.335 21.872 11.673 25.763 2.32.874 4.7 1.288 7.042 1.288 8.089 0 15.705-4.944 18.722-12.961zm104.959 125.976 17-8c9.994-4.703 14.284-16.618 9.58-26.612-4.703-9.995-16.616-14.283-26.612-9.581l-17 8c-9.994 4.703-14.284 16.618-9.58 26.612 3.408 7.243 10.602 11.489 18.109 11.489 2.853 0 5.751-.613 8.503-1.908zm-187.516-150.097v-19.999c0-11.046-8.954-20-20-20s-20 8.954-20 20v19.999c0 11.046 8.954 20 20 20s20-8.954 20-20z" fill="#ff5cf3"/></g></svg>