<svg id="Layer_1" enable-background="new 0 0 512.01 512.01" height="512" viewBox="0 0 512.01 512.01" width="512" xmlns="http://www.w3.org/2000/svg"><g><path d="m118.003 370.006c-20.376-34.898-36.822-70.672-36.822-113.998-.001-119.68 89.861-218.975 205.488-234.02-9.823-1.275-19.833-1.954-29.997-1.982-130.245-.361-236.67 105.756-236.669 236.001 0 43.327 11.676 83.926 32.053 118.824 10.107 17.31 32.273 23.207 49.815 13.507 5.993-3.314 12.81-7.29 20.381-12.011-1.526-1.98-2.949-4.095-4.249-6.321z" fill="#c6e1f2"/><g fill="#0023c4"><path d="m509.67 221.318c-1.484-10.945-11.554-18.615-22.506-17.131-10.945 1.484-18.615 11.561-17.131 22.506 1.307 9.64 1.97 19.502 1.97 29.313 0 119.103-96.897 216-216 216-12.612 0-25.245-1.093-37.548-3.249-10.883-1.901-21.245 5.369-23.152 16.248-1.906 10.881 5.368 21.246 16.248 23.152 14.577 2.554 29.533 3.849 44.452 3.849 68.38 0 132.667-26.629 181.02-74.98 48.352-48.353 74.98-112.64 74.98-181.02 0-11.602-.785-23.272-2.333-34.688z"/><path d="m411.941 69.796c-3.828-14.549-13.052-26.761-25.972-34.388-39.017-23.034-84.432-35.276-129.966-35.402-68.074 0-132.209 26.575-180.637 74.869-48.599 48.465-75.363 112.792-75.363 181.132 0 45.363 12.027 89.939 34.781 128.909 7.55 12.929 19.69 22.2 34.187 26.107 4.931 1.329 9.947 1.987 14.938 1.987 9.576 0 19.054-2.423 27.642-7.172 35.619-19.696 93.153-58.25 164.964-130.06 71.532-71.534 110.133-128.312 129.918-163.346 7.358-13.03 9.314-28.172 5.508-42.636zm-40.339 22.968c-18.561 32.866-55.03 86.389-123.373 154.731-68.513 68.512-122.669 104.889-156.036 123.34-8.049 4.452-18.307 1.719-22.865-6.089-19.185-32.854-29.324-70.457-29.324-108.739 0-57.635 22.589-111.904 63.608-152.81 40.877-40.765 94.976-63.192 152.392-63.192 38.426.106 76.737 10.428 109.633 29.847 7.816 4.616 10.493 14.894 5.965 22.912z"/></g><path d="m51.667 512.01c-16.291 0-29.203-4.686-38.536-14.019-11.378-11.378-15.374-27.883-11.878-49.057 1.8-10.897 12.091-18.279 22.991-16.474 10.897 1.799 18.273 12.093 16.474 22.991-1.327 8.038-.605 12.952.698 14.255 1.609 1.61 8.71 3.833 24.047.732 17.153-3.47 39.396-12.473 64.322-26.036 55.736-30.325 118.6-79.194 177.01-137.605 58.411-58.41 107.28-121.273 137.605-177.009 13.563-24.928 22.566-47.17 26.036-64.322 3.103-15.34.878-22.437-.731-24.047-.665-.663-4.275-2.135-12.897-.995-10.956 1.442-21.002-6.256-22.448-17.207-1.448-10.95 6.256-21.001 17.206-22.448 19.965-2.637 35.579 1.523 46.424 12.366 13.159 13.159 17.079 33.434 11.652 60.262-4.311 21.312-14.439 46.717-30.104 75.509-32.108 59.011-83.41 125.13-144.457 186.177-61.049 61.047-127.167 112.348-186.179 144.457-28.792 15.665-54.196 25.794-75.509 30.104-7.8 1.578-15.047 2.366-21.726 2.366z" fill="#ff5cf3"/></g></svg>