<svg id="Layer_1" enable-background="new 0 0 512 512" height="512" viewBox="0 0 512 512" width="512" xmlns="http://www.w3.org/2000/svg"><g><path d="m80 256c0-120.176 89.826-219.372 206-234.11-9.824-1.247-19.837-1.89-30-1.89-130.339 0-236 105.661-236 236s105.661 236 236 236c10.163 0 20.176-.643 30-1.89-116.174-14.738-206-113.934-206-234.11z" fill="#c6e1f2"/><path d="m256 512c-68.38 0-132.668-26.629-181.02-74.98-48.351-48.353-74.98-112.64-74.98-181.02s26.629-132.667 74.98-181.02c48.352-48.351 112.64-74.98 181.02-74.98 23.185 0 46.173 3.104 68.326 9.225 10.647 2.942 16.894 13.958 13.951 24.604-2.941 10.647-13.956 16.891-24.604 13.951-18.684-5.162-38.088-7.78-57.673-7.78-119.103 0-216 96.897-216 216s96.897 216 216 216 216-96.897 216-216c0-19.911-2.703-39.623-8.035-58.587-2.989-10.633 3.208-21.677 13.841-24.667 10.631-2.988 21.677 3.207 24.667 13.841 6.322 22.489 9.527 45.842 9.527 69.413 0 68.38-26.629 132.667-74.98 181.02-48.352 48.351-112.64 74.98-181.02 74.98zm.123-112.75c11.046-.068 19.944-9.077 19.877-20.123-.068-11.004-9.009-19.877-19.997-19.877-.042 0-.084 0-.126 0-.218.002-.434.002-.651.002-21.759 0-42.636-6.714-60.412-19.437-22.591-16.166-37.533-40.162-42.076-67.567-4.542-27.406 1.86-54.94 18.027-77.53 33.371-46.634 98.463-57.423 145.098-24.049 17.732 12.69 30.821 30.258 37.852 50.806 3.575 10.451 14.949 16.024 25.397 12.448 10.451-3.576 16.024-14.946 12.448-25.397-9.743-28.479-27.869-52.817-52.418-70.385-64.569-46.209-154.696-31.272-200.906 33.298-22.385 31.279-31.249 69.403-24.959 107.35 6.289 37.946 26.979 71.172 58.258 93.556 24.612 17.615 53.526 26.908 83.686 26.908.298-.001.602-.001.902-.003zm156.877-74.25c0-33.084-26.916-60-60-60s-60 26.916-60 60 26.916 60 60 60 60-26.916 60-60zm-40 0c0 11.028-8.972 20-20 20s-20-8.972-20-20 8.972-20 20-20 20 8.972 20 20z" fill="#0023c4"/><path d="m422 148c-33.084 0-60-26.916-60-60s26.916-60 60-60 60 26.916 60 60-26.916 60-60 60zm0-80c-11.028 0-20 8.972-20 20s8.972 20 20 20 20-8.972 20-20-8.972-20-20-20zm-191 187c0 13.807 11.193 25 25 25s25-11.193 25-25-11.193-25-25-25-25 11.193-25 25z" fill="#ff5cf3"/></g></svg>