<?xml version="1.0" encoding="UTF-8"?>
<!DOCTYPE svg PUBLIC "-//W3C//DTD SVG 1.1//EN" "http://www.w3.org/Graphics/SVG/1.1/DTD/svg11.dtd">
<svg version="1.1" xmlns="http://www.w3.org/2000/svg" xmlns:xlink="http://www.w3.org/1999/xlink" x="0" y="0" width="205" height="225" viewBox="0, 0, 205, 225">
  <g id="イメージ">
    <g>
      <g>
        <path d="M41.918,15.5 L131.918,15.573 C131.918,15.573 182.918,63.946 182.918,63.946 L182.918,199.5 C182.918,203.366 179.784,206.5 175.918,206.5 L41.918,206.5 C38.052,206.5 34.918,203.366 34.918,199.5 L34.918,22.5 C34.918,18.634 38.052,15.5 41.918,15.5 z" fill="#F8F8F8"/>
        <path d="M41.918,15.5 L131.918,15.573 C131.918,15.573 182.918,63.946 182.918,63.946 L182.918,199.5 C182.918,203.366 179.784,206.5 175.918,206.5 L41.918,206.5 C38.052,206.5 34.918,203.366 34.918,199.5 L34.918,22.5 C34.918,18.634 38.052,15.5 41.918,15.5 z" fill-opacity="0" stroke="#A4A4A4" stroke-width="7"/>
      </g>
      <g>
        <path d="M132.671,15.5 L182.918,65.747 C182.918,68.372 180.79,70.5 178.164,70.5 L132.671,70.5 C130.046,70.5 127.918,68.372 127.918,65.747 L127.918,20.253 C127.918,17.628 130.046,15.5 132.671,15.5 z" fill="#F8F8F8"/>
        <path d="M132.671,15.5 L182.918,65.747 C182.918,68.372 180.79,70.5 178.164,70.5 L132.671,70.5 C130.046,70.5 127.918,68.372 127.918,65.747 L127.918,20.253 C127.918,17.628 130.046,15.5 132.671,15.5 z" fill-opacity="0" stroke="#A4A4A4" stroke-width="6" stroke-linecap="round" stroke-linejoin="round"/>
      </g>
      <g>
        <path d="M22.5,131.871 L117.73,131.871 C121.596,131.871 124.73,135.005 124.73,138.871 L124.73,175.454 C124.73,179.32 121.596,182.454 117.73,182.454 L22.5,182.454 C18.634,182.454 15.5,179.32 15.5,175.454 L15.5,138.871 C15.5,135.005 18.634,131.871 22.5,131.871 z" fill="#FFB475"/>
        <path d="M22.5,131.871 L117.73,131.871 C121.596,131.871 124.73,135.005 124.73,138.871 L124.73,175.454 C124.73,179.32 121.596,182.454 117.73,182.454 L22.5,182.454 C18.634,182.454 15.5,179.32 15.5,175.454 L15.5,138.871 C15.5,135.005 18.634,131.871 22.5,131.871 z" fill-opacity="0" stroke="#FE8B32" stroke-width="7"/>
      </g>
      <text transform="matrix(1, 0, 0, 1, 70.746, 156.402)">
        <tspan x="-36.475" y="12.344" font-family="YuGo-Medium" font-size="33" fill="#FCFCFC">FILE</tspan>
      </text>
    </g>
  </g>
</svg>
