<?xml version="1.0" encoding="UTF-8"?>
<!DOCTYPE svg PUBLIC "-//W3C//DTD SVG 1.1//EN" "http://www.w3.org/Graphics/SVG/1.1/DTD/svg11.dtd">
<svg version="1.1" xmlns="http://www.w3.org/2000/svg" xmlns:xlink="http://www.w3.org/1999/xlink" x="0" y="0" width="425" height="247" viewBox="0, 0, 425, 247">
  <g id="イメージ">
    <path d="M75,40 L425.164,40 L425.164,247.934 L75,247.934 L75,40 z" fill="#A66946"/>
    <g>
      <path d="M0,0 L100,0 L100,248 L0,248 L0,0 z" fill="#D99873"/>
      <path d="M75,0 L425.341,0 L425.341,40 L75,40 L75,0 z" fill="#D99873"/>
    </g>
    <path d="M90,69 L100,69 L100,115 L90,115 L90,69 z" fill="#F2C3A7"/>
    <path d="M0,131.351 L100,131.351 L100,191.351 L0,191.351 L0,131.351 z" fill="#EEBA9D"/>
    <path d="M27.068,30 C21.546,30 17.068,25.523 17.068,20 C17.068,14.477 21.546,10 27.068,10 C32.591,10 37.068,14.477 37.068,20 C37.068,25.523 32.591,30 27.068,30 z" fill="#F2F2F2"/>
    <path d="M378.688,12.594 L411.384,12.594 C415.25,12.594 418.384,15.728 418.384,19.594 L418.384,20 C418.384,23.866 415.25,27 411.384,27 L378.688,27 C374.822,27 371.688,23.866 371.688,20 L371.688,19.594 C371.688,15.728 374.822,12.594 378.688,12.594 z" fill="#F2F2F2"/>
    <path d="M20.775,79.963 L69.022,79.963 C75.649,79.963 81.022,85.335 81.022,91.963 L81.022,92.037 C81.022,98.665 75.649,104.037 69.022,104.037 L20.775,104.037 C14.147,104.037 8.775,98.665 8.775,92.037 L8.775,91.963 C8.775,85.335 14.147,79.963 20.775,79.963 z" fill="#F2F2F2"/>
    <path d="M138.283,75.475 L351.208,75.475 C360.335,75.475 367.733,82.874 367.733,92 L367.733,92 C367.733,101.126 360.335,108.525 351.208,108.525 L138.283,108.525 C129.157,108.525 121.758,101.126 121.758,92 L121.758,92 C121.758,82.874 129.157,75.475 138.283,75.475 z" fill="#F7F7F7"/>
    <path d="M143.629,138.427 L248.195,138.427 C254.18,138.427 259.031,143.279 259.031,149.263 L259.031,149.263 C259.031,155.248 254.18,160.099 248.195,160.099 L143.629,160.099 C137.644,160.099 132.793,155.248 132.793,149.263 L132.793,149.263 C132.793,143.279 137.644,138.427 143.629,138.427 z" fill="#F7F7F7"/>
    <path d="M20.775,148.226 L69.022,148.226 C75.649,148.226 81.022,153.598 81.022,160.226 L81.022,160.301 C81.022,166.928 75.649,172.301 69.022,172.301 L20.775,172.301 C14.147,172.301 8.775,166.928 8.775,160.301 L8.775,160.226 C8.775,153.598 14.147,148.226 20.775,148.226 z" fill="#F2F2F2"/>
    <g>
      <path d="M0.5,40.5 L425.5,40.5" fill-opacity="0" stroke="#BF6936" stroke-width="3"/>
      <path d="M101.5,248.5 L101.5,41.5" fill-opacity="0" stroke="#BF6936" stroke-width="3"/>
    </g>
  </g>
</svg>
