<svg id="ロゴ" xmlns="http://www.w3.org/2000/svg" viewBox="0 0 57.52 57.86">
  <g>
    <path d="M82,74.87c-4.32,3.85-11.25,6.31-18.94,6.31-13.25,0-23.33-9.39-23.49-21.79-.15-13.63,9.16-23.1,23.33-23.71,11.94-.31,21.41,7.16,21.79,19.86C84.93,66.4,78.62,68.71,76.85,67a5.77,5.77,0,0,1-1-3.62s0-2.26,0-5.31a6.45,6.45,0,0,1-2.19.6,11.21,11.21,0,0,1-.88,6.25,5.7,5.7,0,0,1-.37,4l.25,2c2.47,2.69,6.16,2.77,9.17,1.54,5.46-2.39,9-8.94,9-17,.31-15.63-13-26.64-28.1-25.95C45,30.21,33.11,42.14,33.27,59.39c.38,16.25,12.93,28,29.8,28,9.62,0,17.55-2.7,22.71-7.7A3.35,3.35,0,0,0,86,75.17,2.82,2.82,0,0,0,82,74.87Z" transform="translate(-33.27 -29.56)" style="fill: #eee"/>
    <path d="M62.16,40.49a16.62,16.62,0,0,0-2.54.2,2.87,2.87,0,0,0-2.55,2.8,2.37,2.37,0,0,0,2.68,2.09,15.71,15.71,0,0,1,2.41-.19c8.15.32,10.24,6.84,10.24,10.76-.13,11.47-6.91,13.69-16.57,13.49a.46.46,0,0,1-.52-.45V33.76a16,16,0,0,1-5,1l.06,36.29a3.39,3.39,0,0,0,3.26,3.39c16.17.59,23.67-5.35,23.67-18.19C77.42,47.8,72.07,40.49,62.16,40.49Z" transform="translate(-33.27 -29.56)" style="fill: #eee"/>
  </g>
</svg>
