<?xml version="1.0" encoding="UTF-8"?>
<svg id="_ロゴ" data-name="ロゴ" xmlns="http://www.w3.org/2000/svg" viewBox="0 0 48 48">
  <path d="m39.98,37.23c-3.45,3.08-8.99,5.05-15.15,5.05-10.59,0-18.66-7.51-18.78-17.42-.12-10.9,7.33-18.47,18.66-18.96,9.54-.25,17.12,5.73,17.42,15.89.19,8.68-4.86,10.53-6.28,9.17-.43-.49-.8-1.54-.8-2.89,0,0-.02-1.81-.04-4.25-.57.27-1.16.43-1.75.48.27,1.74-.02,3.44-.71,5,.3,1.06.2,2.25-.29,3.23l.2,1.64c1.97,2.16,4.93,2.22,7.33,1.23,4.37-1.91,7.2-7.14,7.2-13.61.25-12.5-10.41-21.3-22.47-20.75C10.36,1.52.88,11.06,1,24.85c.31,12.99,10.34,22.41,23.83,22.41,7.7,0,14.04-2.16,18.16-6.16.98-.98,1.11-2.59.18-3.63-.8-.99-2.28-1.05-3.2-.25Z" style="stroke-width: 0px;"/>
  <path d="m24.11,9.74c-.68,0-1.36.05-2.03.16-1.15.16-2.09,1.15-2.03,2.24.1,1.04,1.1,1.83,2.14,1.67.68-.1,1.3-.16,1.93-.16,6.52.26,8.19,5.48,8.19,8.6-.1,9.18-5.53,10.95-13.25,10.8-.26,0-.42-.16-.42-.37V4.36c-1.26.49-2.63.75-4.01.82l.05,29.02c0,1.46,1.15,2.66,2.61,2.71,12.93.47,18.93-4.28,18.93-14.55.1-6.78-4.17-12.62-12.1-12.62Z" style="stroke-width: 0px;"/>
</svg>