<svg id="ロゴ" xmlns="http://www.w3.org/2000/svg" viewBox="0 0 288.88 59.63">
  <g>
    <path d="M126.88,82.92H113.41a3.81,3.81,0,0,1-3.85-3.85V31.71a3,3,0,0,1,5.93,0V76.6a.66.66,0,0,0,.61.62h10.55c9.24,0,11.39-5.78,11.39-10.32,0-5.16-3.15-9.32-11-9.78a2.77,2.77,0,0,1-2.54-2.77,3,3,0,0,1,2.47-3c6.93-1.31,9-6.09,9-8.78.07-4.47-3.7-8-8.47-7.93l-7.55.08a2.84,2.84,0,0,1-2.85-2.85A2.79,2.79,0,0,1,120,29H127c8-.23,15,5.47,14.79,13.63a14.17,14.17,0,0,1-5.31,10.62.36.36,0,0,0,.07.62,13.67,13.67,0,0,1,7.47,12.7C144.05,77.14,137.51,82.92,126.88,82.92Z" transform="translate(-33.27 -27.79)"/>
    <path d="M165.69,62.2c.23,9.94,5.47,14.71,12.93,14.63,6.16,0,10.17-4.08,10.24-10.47V45a2.9,2.9,0,0,1,2.93-3,3.07,3.07,0,0,1,3.08,3V69.83c-.15,2.46.08,4.62.85,5.54a6.41,6.41,0,0,0,3.15,1.31c1.47.15,2.78.61,2.78,2.15a3.23,3.23,0,0,1-2.85,3.09,8.45,8.45,0,0,1-8.24-4.39c-.08-.24-.46-.24-.62-.08A14.31,14.31,0,0,1,179,82.3c-12.24.46-18.48-7.55-18.87-19.33-.61-14.09,8.55-20.63,17.56-20.78a16.75,16.75,0,0,1,5.77.69c1.62.54,2.78,1.77,2.55,3.46a2.33,2.33,0,0,1-3,1.93,16.43,16.43,0,0,0-5.08-.62C172.39,47.88,165.69,51.81,165.69,62.2Z" transform="translate(-33.27 -27.79)"/>
    <path d="M245.23,69.75c.23,8.47-7.47,12.78-13.94,12.94-7.47.23-13.32-2.78-15.24-8.32a2.73,2.73,0,0,1,2.69-3.62,3.4,3.4,0,0,1,3.47,2.31c1,2.46,3.69,4,9,3.93,5.7-.16,8.4-3.78,8.24-6.93s-1.77-4.78-7.16-5.7c-10.85-1.92-15.86-5.16-16.24-11.09-.54-9.39,7.93-11.7,13.86-11.7a23.83,23.83,0,0,1,10.7,2.62c1.61.92,2.85,2.38,2.62,4.23-.24,1.54-2.31,2.7-3.55,1.85A18.33,18.33,0,0,0,230,47c-5.62,0-8.16,1.77-8.16,5.39.23,3.46,4.24,5,11.55,6.39C241.69,60.2,245.23,64.44,245.23,69.75Z" transform="translate(-33.27 -27.79)"/>
    <path d="M269.79,30.71v4.47a3,3,0,0,1-5.93,0V30.71a3,3,0,0,1,5.93,0Zm0,14.48V79.76a3,3,0,0,1-5.93,0V45.19a3,3,0,1,1,5.93,0Z" transform="translate(-33.27 -27.79)"/>
    <path d="M322.07,71.6c-1.62,6.7-6.77,10.7-15.17,10.93-11.16-.23-18.24-8.7-18.09-21.4,0-12.4,7.78-19.48,18.09-19.18,7,0,12.86,3.08,14.71,10.24a2.8,2.8,0,0,1-2.77,3.39,3,3,0,0,1-2.93-2.31c-1.23-4.39-6.08-6-9-5.93-9.7.08-12.32,7.78-12.32,14.17,0,10.78,6.47,15.09,12,15.32,2.84-.07,8.31-.84,9.77-5.85a3.37,3.37,0,0,1,3.24-2.62A2.74,2.74,0,0,1,322.07,71.6Z" transform="translate(-33.27 -27.79)"/>
  </g>
  <g>
    <path d="M82,74.87c-4.32,3.85-11.25,6.31-18.94,6.31-13.25,0-23.33-9.39-23.49-21.79-.15-13.63,9.16-23.1,23.33-23.71,11.94-.31,21.41,7.16,21.79,19.86C84.93,66.4,78.62,68.71,76.85,67a5.77,5.77,0,0,1-1-3.62s0-2.26,0-5.31a6.45,6.45,0,0,1-2.19.6,11.21,11.21,0,0,1-.88,6.25,5.7,5.7,0,0,1-.37,4l.25,2c2.47,2.69,6.16,2.77,9.17,1.54,5.46-2.39,9-8.94,9-17,.31-15.63-13-26.64-28.1-25.95C45,30.21,33.11,42.14,33.27,59.39c.38,16.25,12.93,28,29.8,28,9.62,0,17.55-2.7,22.71-7.7A3.35,3.35,0,0,0,86,75.17,2.82,2.82,0,0,0,82,74.87Z" transform="translate(-33.27 -27.79)"/>
    <path d="M62.16,40.49a16.62,16.62,0,0,0-2.54.2,2.87,2.87,0,0,0-2.55,2.8,2.37,2.37,0,0,0,2.68,2.09,15.71,15.71,0,0,1,2.41-.19c8.15.32,10.24,6.84,10.24,10.76-.13,11.47-6.91,13.69-16.57,13.49a.46.46,0,0,1-.52-.45V33.76a16,16,0,0,1-5,1l.06,36.29a3.39,3.39,0,0,0,3.26,3.39c16.17.59,23.67-5.35,23.67-18.19C77.42,47.8,72.07,40.49,62.16,40.49Z" transform="translate(-33.27 -27.79)"/>
  </g>
</svg>
