<?xml version="1.0" encoding="iso-8859-1"?>
<!-- Generator: Adobe Illustrator 19.0.0, SVG Export Plug-In . SVG Version: 6.00 Build 0)  -->
<svg version="1.1" id="Capa_1" xmlns="http://www.w3.org/2000/svg" xmlns:xlink="http://www.w3.org/1999/xlink" x="0px" y="0px"
	 viewBox="0 0 496 496" style="enable-background:new 0 0 496 496;" xml:space="preserve">
<path style="fill:#AFB8C9;" d="M248,8c-68.392,0-127.68,39.016-156.808,96h313.616C375.68,47.016,316.392,8,248,8z"/>
<path style="fill:#8C95A4;" d="M248,8c-7.6,0-15.064,0.56-22.408,1.488C284.36,16.968,334.104,53.344,360,104h44.808
	C375.68,47.016,316.392,8,248,8z"/>
<path style="fill:#AFB8C9;" d="M424,160H72c-26.512,0-48,21.488-48,48v128h448V208C472,181.488,450.512,160,424,160z"/>
<path style="fill:#8C95A4;" d="M448,166.472V336h24V208C472,190.24,462.336,174.776,448,166.472z"/>
<rect x="24" y="248" style="fill:#FEA82F;" width="448" height="40"/>
<rect x="24" y="208" style="fill:#FCD770;" width="448" height="40"/>
<rect x="448" y="248" style="fill:#FF8031;" width="24" height="40"/>
<rect x="448" y="208" style="fill:#FFC729;" width="24" height="40"/>
<path style="fill:#ECECEC;" d="M444.128,313.792l-53.32-26.984H105.192l-53.32,26.984C24.96,327.416,8,355.008,8,385.176V488h480
	V385.176C488,355.008,471.04,327.416,444.128,313.792z"/>
<path style="fill:#B6C1CE;" d="M444.128,313.792l-53.32-26.984h-70.68L320,288l100.872,57.64
	c6.88,3.936,11.128,11.248,11.128,19.176V488h56V385.176C488,355.008,471.04,327.416,444.128,313.792z"/>
<polygon style="fill:#FCD770;" points="384,488 488,488 488,408 392,408 "/>
<rect x="432" y="408" style="fill:#FFC729;" width="56" height="80"/>
<polygon style="fill:#FCD770;" points="112,488 8,488 8,408 104,408 "/>
<circle style="fill:#ECECEC;" cx="248" cy="184" r="144"/>
<path style="fill:#B6C1CE;" d="M248,40c-6.808,0-13.448,0.632-20,1.552c70.04,9.752,124,69.72,124,142.448
	c0,72.72-53.96,132.696-124,142.448c6.552,0.92,13.192,1.552,20,1.552c79.528,0,144-64.472,144-144S327.528,40,248,40z"/>
<circle style="fill:#39C3FC;" cx="248" cy="184" r="112"/>
<path style="fill:#148CE0;" d="M248,72c-5.448,0-10.76,0.52-16,1.272c54.256,7.784,96,54.32,96,110.728s-41.744,102.944-96,110.728
	c5.24,0.752,10.552,1.272,16,1.272c61.856,0,112-50.144,112-112S309.856,72,248,72z"/>
<path style="fill:#39C3FC;" d="M368,264h-0.384c-25.84,38.552-69.72,64-119.616,64s-93.776-25.448-119.616-64H128l-22.808,22.808
	C137.152,331.128,189.184,360,248,360s110.848-28.872,142.808-73.192L368,264z"/>
<g>
	<polygon style="fill:#AFB8C9;" points="90.296,296 112,488 152,488 130.88,312 104,288 	"/>
	<polygon style="fill:#AFB8C9;" points="405.704,296 384,488 344,488 365.12,312 392,288 	"/>
</g>
<path style="fill:#FCD770;" d="M304,392H192c-8.84,0-16,7.16-16,16v80h144v-80C320,399.16,312.84,392,304,392z"/>
<rect x="176" y="464" style="fill:#FFC729;" width="144" height="24"/>
<g>
	<circle style="fill:#ECECEC;" cx="232" cy="440" r="16"/>
	<path style="fill:#ECECEC;" d="M128,216H80c-4.416,0-8-3.584-8-8v-96c0-4.416,3.584-8,8-8h48c4.416,0,8,3.584,8,8v96
		C136,212.416,132.416,216,128,216z"/>
	<path style="fill:#ECECEC;" d="M416,216h-48c-4.416,0-8-3.584-8-8v-96c0-4.416,3.584-8,8-8h48c4.416,0,8,3.584,8,8v96
		C424,212.416,420.416,216,416,216z"/>
</g>
<path d="M233.592,113.44c4.704-0.952,9.552-1.44,14.408-1.44V96c-5.928,0-11.84,0.592-17.592,1.76L233.592,113.44z"/>
<path d="M160,184h16c0-28.632,16.96-54.544,43.2-66.008l-6.4-14.664C180.72,117.344,160,149.008,160,184z"/>
<path d="M480,334.8V208c0-28.152-20.904-51.456-48-55.36V112c0-8.824-7.176-16-16-16h-6.488C377.176,36.696,315.8,0,248,0
	S118.824,36.696,86.488,96H80c-8.824,0-16,7.176-16,16v40.64c-27.096,3.904-48,27.208-48,55.36v126.8
	C5.856,349.288,0,366.664,0,385.168V496h496V385.168C496,366.672,490.144,349.288,480,334.8z M312,480H184v-72c0-4.408,3.592-8,8-8
	h112c4.408,0,8,3.592,8,8V480z M304,384H192c-13.232,0-24,10.768-24,24v72h-8.904L141.56,333.88C172.344,355.72,209.488,368,248,368
	s75.656-12.28,106.44-34.12L336.904,480H328v-72C328,394.768,317.232,384,304,384z M98.696,299.064l4.192-2.12
	c6.344,8.136,13.32,15.664,20.832,22.544L142.984,480h-23.84L98.696,299.064z M139.92,101.432C165.616,67.824,205.4,48,248,48
	c42.624,0,82.376,19.824,108.072,53.44C353.568,104.264,352,107.936,352,112v12.392C331.272,88.368,292.464,64,248,64
	s-83.272,24.368-104,60.392V112C144,107.936,142.432,104.264,139.92,101.432z M248,288c-57.344,0-104-46.656-104-104
	S190.656,80,248,80s104,46.656,104,104S305.344,288,248,288z M248,304c52.656,0,97.392-34.136,113.512-81.4
	c1.992,0.88,4.176,1.4,6.488,1.4h9.968c-17.376,56.992-69.416,96-129.968,96s-112.592-39.008-129.968-96H128
	c2.312,0,4.496-0.52,6.488-1.4C150.608,269.864,195.344,304,248,304z M429.776,216H464v24h-74.704c2.032-5.176,3.752-10.528,5.24-16
	H416C421.896,224,427,220.76,429.776,216z M447.736,306.656L426.68,296H464v21.512C459.016,313.408,453.672,309.664,447.736,306.656
	z M464,280h-68.688l-17.232-17.224c1.336-2.224,2.656-4.472,3.88-6.776H464V280z M248,352c-51.544,0-100.48-23.976-132.24-64.448
	l11.224-11.224C154.936,313.136,198.992,336,248,336s93.064-22.864,121.016-59.672l11.224,11.224
	C348.48,328.024,299.544,352,248,352z M117.912,262.776L100.688,280H32v-24h82.032C115.256,258.304,116.576,260.544,117.912,262.776
	z M69.32,296l-21.056,10.656c-5.936,3.008-11.28,6.752-16.264,10.856V296H69.32z M372.28,319.48
	c7.512-6.88,14.488-14.4,20.832-22.544l4.192,2.12L376.856,480h-23.84L372.28,319.48z M404.712,376H432v-16h-25.48l6.016-53.232
	l27.976,14.16C464.864,333.256,480,357.872,480,385.168V400h-78L404.712,376z M463.192,200H432v-31.192
	C447.648,172,460,184.352,463.192,200z M416.008,208H368v-96h48L416.008,208z M248,16c58.944,0,112.608,30.352,143.096,80h-19.232
	C343.312,55.864,297.408,32,248,32c-49.376,0-95.312,23.872-123.856,64h-19.24C135.392,46.352,189.056,16,248,16z M80,112h48
	l0.008,71.824c0,0.064-0.008,0.12-0.008,0.176s0.008,0.112,0.008,0.176V208H80V112z M101.464,224c1.48,5.472,3.208,10.824,5.24,16
	H32v-24h34.224c2.776,4.76,7.88,8,13.776,8H101.464z M64,168.808V200H32.808C36,184.352,48.352,172,64,168.808z M55.488,320.928
	l27.976-14.16L89.48,360H64v16h27.288L94,400H16v-14.832C16,357.872,31.136,333.256,55.488,320.928z M16,416h79.808l2.712,24H32v16
	h68.336l2.712,24H16V416z M392.952,480l2.712-24H464v-16h-66.52l2.712-24H480v64H392.952z"/>
<rect x="272" y="416" width="16" height="16"/>
<rect x="272" y="448" width="16" height="16"/>
<path d="M232,416c-13.232,0-24,10.768-24,24s10.768,24,24,24s24-10.768,24-24S245.232,416,232,416z M232,448c-4.408,0-8-3.592-8-8
	s3.592-8,8-8s8,3.592,8,8S236.408,448,232,448z"/>
<rect x="96" y="128" width="16" height="16"/>
<rect x="96" y="176" width="16" height="16"/>
<rect x="384" y="128" width="16" height="16"/>
<rect x="384" y="176" width="16" height="16"/>
<rect x="32" y="360" width="16" height="16"/>
<rect x="448" y="360" width="16" height="16"/>
<g>
</g>
<g>
</g>
<g>
</g>
<g>
</g>
<g>
</g>
<g>
</g>
<g>
</g>
<g>
</g>
<g>
</g>
<g>
</g>
<g>
</g>
<g>
</g>
<g>
</g>
<g>
</g>
<g>
</g>
</svg>
