<svg id="filled_outline" height="512" viewBox="0 0 512 512" width="512" xmlns="http://www.w3.org/2000/svg" data-name="filled outline"><path d="m375.19 292.5 8.81-28.5 1.181-.59a40 40 0 0 1 30.537-2.171l8.282 2.761-16 40h-32z" fill="#dbdbdb"/><path d="m336 256 48 8-8.81 28.495-23.19-12.495z" fill="#c3c3c3"/><path d="m479.958 195.293a160 160 0 1 1 -163.251-163.251 232.249 232.249 0 0 0 -60.707-8.042c-128.13 0-232 103.87-232 232s103.87 232 232 232 232-103.87 232-232a232.249 232.249 0 0 0 -8.042-60.707z" fill="#ea9d2d"/><path d="m208 280h96v72h-96z" fill="#dbdbdb"/><path d="m324 256h8a20 20 0 0 1 20 20v54a22 22 0 0 1 -22 22h-26a0 0 0 0 1 0 0v-76a20 20 0 0 1 20-20z" fill="#dbdbdb"/><path d="m352 280 48 24-16 32-32-16z" fill="#cbcbcb"/><path d="m400 304 3.585-1.195a44 44 0 0 1 38.32 5.132l6.095 4.063-28.482 42.723a6 6 0 0 1 -8.592 1.471l-26.926-20.194z" fill="#dbdbdb"/><path d="m272 280h32v32h-32z" fill="#ebebeb"/><path d="m232 344h72a0 0 0 0 1 0 0v28a4 4 0 0 1 -4 4h-68a0 0 0 0 1 0 0v-32a0 0 0 0 1 0 0z" fill="#dbdbdb"/><path d="m200 344h32a0 0 0 0 1 0 0v32a0 0 0 0 1 0 0h-18a14 14 0 0 1 -14-14v-18a0 0 0 0 1 0 0z" fill="#cbcbcb"/><path d="m360 184h16v16h-16z" fill="#f7ba61"/><path d="m360 216h16v16h-16z" fill="#f7ba61"/><path d="m344 200h16v16h-16z" fill="#f7ba61"/><path d="m376 200h16v16h-16z" fill="#f7ba61"/><g fill="#ea9d2d"><path d="m288 80h16v16h-16z"/><path d="m288 128h16v16h-16z"/><path d="m264 104h16v16h-16z"/><path d="m312 104h16v16h-16z"/><path d="m400 152h-32a8 8 0 0 1 -5.657-13.657l18.344-18.343h-12.687a8 8 0 0 1 0-16h32a8 8 0 0 1 5.657 13.657l-18.344 18.343h12.687a8 8 0 0 1 0 16z"/><path d="m472 120h-40a8 8 0 0 1 -6.146-13.121l29.065-34.879h-22.919a8 8 0 0 1 0-16h40a8 8 0 0 1 6.146 13.121l-29.065 34.879h22.919a8 8 0 0 1 0 16z"/></g><path d="m72 192h16v16h-16z" fill="#d18d28"/><path d="m104 216h16v16h-16z" fill="#d18d28"/><path d="m72 240h16v16h-16z" fill="#d18d28"/><path d="m288 416h16v16h-16z" fill="#d18d28"/><path d="m256 440h16v16h-16z" fill="#d18d28"/><path d="m261.27 280a48.026 48.026 0 0 1 -45.27 32v-32z" fill="#cbcbcb"/><path d="m256 324a19.994 19.994 0 0 1 -20 20h-46a22 22 0 0 1 -22-22v-42l32 24h36a20.007 20.007 0 0 1 20 20z" fill="#cfcfcf"/><path d="m225.21 304a48.032 48.032 0 0 1 -57.21-14.68v-9.32l32 16z" fill="#c3c3c3"/><path d="m200 344h32v8h-32z" fill="#c1c1c1"/><path d="m296 312h8v40h-8z" fill="#cbcbcb"/><path d="m232 344h72v8h-72z" fill="#c3c3c3"/><path d="m264 280h8v32h-8z" fill="#e4e4e2"/><path d="m256 256a47.928 47.928 0 1 1 -1.49-11.93 48 48 0 0 1 1.49 11.93z" fill="#dbdbdb"/><path d="m254.51 244.07-4.47 1.92-42.04 18.01-19.28-44.97-2.49-5.82a48.037 48.037 0 0 1 68.28 30.86z" fill="#6cbae5"/><path d="m250.04 245.99-42.04 18.01-19.28-44.97a48.05 48.05 0 0 1 61.32 26.96z" fill="#4799cf"/><circle cx="208" cy="264" fill="#cbcbcb" r="16"/><path d="m478.988 187.35a8 8 0 0 0 -7.027 7.777 151.306 151.306 0 0 1 -39.866 99.5 51.417 51.417 0 0 0 -10.939-1.978l10.272-25.675a8 8 0 0 0 -4.9-10.562l-8.278-2.759a47.665 47.665 0 0 0 -35.45 2.037l-45.489-7.582c-.9-.149-4.426-.108-5.315-.108h-8a28.04 28.04 0 0 0 -27.71 24h-34.627a55.836 55.836 0 0 0 .714-29.379c-.037-.2-.216-.891-.262-1.031a55.959 55.959 0 0 0 -78.93-35.771c-.035.014-.8.38-1.13.579a56.244 56.244 0 0 0 -12.28 8.735 153.214 153.214 0 0 1 -1.771-23.133 152 152 0 0 1 148.872-151.962 8 8 0 0 0 1.928-15.721 239.813 239.813 0 1 0 168.883 168.883 8 8 0 0 0 -8.695-5.85zm-47.788 123.902c.125.054.249.1.375.151a36.277 36.277 0 0 1 5.328 2.821l-22.868 34.3-19.894-14.919 11.533-23.065.44-.146a36.475 36.475 0 0 1 4.172-1.117l.078-.014a35.635 35.635 0 0 1 20.836 1.989zm-40.927-41.393a31.768 31.768 0 0 1 22.917-1.029l.231.076-10.272 25.677c-.7.2-1.4.4-2.1.633l-.44.147-17.12-8.56zm-1.006 37.719-8.845 17.689-20.422-10.211v-22.112zm-16.387-37.321-3.747 9.366-9.175-4.588a27.683 27.683 0 0 0 -1.2-7.131zm-13.031 62.612 7.328 3.663q-4.263 1.391-8.6 2.526a29.781 29.781 0 0 0 1.272-6.189zm-47.849-52.869v-4a12.013 12.013 0 0 1 12-12h8a11.488 11.488 0 0 1 2.612.3 12.033 12.033 0 0 1 9.388 11.7v54a14.031 14.031 0 0 1 -9.7 13.321 153.5 153.5 0 0 1 -22.3.465zm-32 8h16v16h-16zm-16 0v24a8 8 0 0 0 8 8h24v22.108a151 151 0 0 1 -23.583-5.709c-3.318-1.089-6.607-2.314-9.849-3.639a28.011 28.011 0 0 0 -17.147-35.141 56.459 56.459 0 0 0 8.5-9.619zm-74 48a14.015 14.015 0 0 1 -14-14v-20.083a55.645 55.645 0 0 0 28.307 9.948c3.693.135 31.693.135 31.693.135a12 12 0 0 1 0 24zm34 16v16h-10a6.006 6.006 0 0 1 -6-6v-10zm16 0v-.294a27.794 27.794 0 0 0 13.129-5.554c4.672 2.031 9.458 3.859 14.287 5.446a167.117 167.117 0 0 0 28.584 6.683v9.719h-56zm-32-136a40.047 40.047 0 0 1 36.5 23.658l-18.86 8.084a23.941 23.941 0 0 0 -17.64-7.742c-.523 0-1.04.023-1.555.056l-9.627-22.456a39.861 39.861 0 0 1 11.182-1.6zm8 48a8 8 0 1 1 -8-8 8.009 8.009 0 0 1 8 8zm-33.375-38.9 9.117 21.262a23.994 23.994 0 1 0 40.258 17.638c0-.522-.023-1.039-.056-1.553l16.045-6.877c0 .144.011.286.011.43a40 40 0 1 1 -65.375-30.9zm231.767 189.292a224 224 0 0 1 -316.784-316.784 222.533 222.533 0 0 1 158.392-65.608q5.829 0 11.639.3a168.135 168.135 0 0 0 -110.609 200.548 55.841 55.841 0 0 0 2.97 51.962v37.19a30.034 30.034 0 0 0 30 30h2v10a22.025 22.025 0 0 0 22 22h90a8 8 0 0 0 8-8v-16.193c2.671.125 5.343.193 8 .193h10a29.829 29.829 0 0 0 7.145-.875 166.476 166.476 0 0 0 48.024-12.248l20.957 15.723a14.074 14.074 0 0 0 8.419 2.8 13.985 13.985 0 0 0 11.629-6.233l28.482-42.722a8 8 0 0 0 -2.218-11.094l-5.31-3.54a167.241 167.241 0 0 0 32.572-57.522q.3 5.846.3 11.711a222.535 222.535 0 0 1 -65.608 158.392z"/><path d="m360 184h16v16h-16z"/><path d="m360 216h16v16h-16z"/><path d="m344 200h16v16h-16z"/><path d="m376 200h16v16h-16z"/><path d="m288 80h16v16h-16z"/><path d="m288 128h16v16h-16z"/><path d="m264 104h16v16h-16z"/><path d="m312 104h16v16h-16z"/><path d="m368 104a8 8 0 0 0 0 16h12.687l-18.344 18.343a8 8 0 0 0 5.657 13.657h32a8 8 0 0 0 0-16h-12.687l18.344-18.343a8 8 0 0 0 -5.657-13.657z"/><path d="m479.245 60.606a8 8 0 0 0 -7.245-4.606h-40a8 8 0 0 0 0 16h22.919l-29.065 34.879a8 8 0 0 0 6.146 13.121h40a8 8 0 0 0 0-16h-22.919l29.065-34.879a8 8 0 0 0 1.099-8.515z"/><path d="m72 192h16v16h-16z"/><path d="m104 216h16v16h-16z"/><path d="m72 240h16v16h-16z"/><path d="m288 416h16v16h-16z"/><path d="m256 440h16v16h-16z"/></svg>