<?xml version="1.0" encoding="iso-8859-1"?>
<!-- Generator: Adobe Illustrator 19.0.0, SVG Export Plug-In . SVG Version: 6.00 Build 0)  -->
<svg version="1.1" id="Capa_1" xmlns="http://www.w3.org/2000/svg" xmlns:xlink="http://www.w3.org/1999/xlink" x="0px" y="0px"
	 viewBox="0 0 480.071 480.071" style="enable-background:new 0 0 480.071 480.071;" xml:space="preserve">
<path style="fill:#F4F4E6;" d="M240.026,16.071c55.286,40.207,87.996,104.44,88,172.8v219.2h-176v-219.2
	C152.029,120.511,184.74,56.279,240.026,16.071z"/>
<g>
	<path style="fill:#CFDFE8;" d="M124.026,144.071c15.464,0,28,12.536,28,28l0,0v236l0,0h-56l0,0v-236
		C96.026,156.607,108.562,144.071,124.026,144.071L124.026,144.071z"/>
	<path style="fill:#CFDFE8;" d="M356.026,144.071c15.464,0,28,12.536,28,28l0,0v236l0,0h-56l0,0v-236
		C328.026,156.607,340.562,144.071,356.026,144.071L356.026,144.071z"/>
</g>
<path style="fill:#FCF05A;" d="M40.026,120.071c-4.418,0-8-3.582-8-8c0-13.255-10.745-24-24-24c-4.418,0-8-3.582-8-8s3.582-8,8-8
	c13.255,0,24-10.745,24-24c0-4.418,3.582-8,8-8s8,3.582,8,8c0,13.255,10.745,24,24,24c4.418,0,8,3.582,8,8s-3.582,8-8,8
	c-13.255,0-24,10.745-24,24C48.026,116.49,44.444,120.071,40.026,120.071z M32.026,80.071c3.029,2.278,5.722,4.971,8,8
	c2.278-3.029,4.971-5.722,8-8c-3.029-2.278-5.722-4.971-8-8C37.748,75.101,35.055,77.794,32.026,80.071z"/>
<g>
	<g>
		<path id="SVGCleanerId_0" style="fill:#FDBD40;" d="M112.026,0.071h16v16h-16V0.071z"/>
	</g>
	<g>
		<path id="SVGCleanerId_1" style="fill:#FDBD40;" d="M112.026,32.071h16v16h-16V32.071z"/>
	</g>
	<g>
		<path id="SVGCleanerId_2" style="fill:#FDBD40;" d="M96.026,16.071h16v16h-16V16.071z"/>
	</g>
	<g>
		<path id="SVGCleanerId_3" style="fill:#FDBD40;" d="M128.026,16.071h16v16h-16V16.071z"/>
	</g>
	<g>
		<path id="SVGCleanerId_4" style="fill:#FDBD40;" d="M416.026,136.071h16v16h-16V136.071z"/>
	</g>
	<g>
		<path id="SVGCleanerId_5" style="fill:#FDBD40;" d="M448.026,152.071h16v16h-16V152.071z"/>
	</g>
</g>
<path style="fill:#CFDFE8;" d="M288.026,408.071h-96v-256l48-64l48,64V408.071z"/>
<path style="fill:#7D8D9C;" d="M152.026,408.071h-96v-56l96-64V408.071z"/>
<path style="fill:#AABECE;" d="M192.026,408.071h-40v-160l40-16V408.071z"/>
<path style="fill:#7D8D9C;" d="M328.026,408.071h88v-56l-88-64V408.071z"/>
<path style="fill:#AABECE;" d="M288.026,408.071h40v-160l-40-16V408.071z"/>
<g>
	<path style="fill:#FDBD40;" d="M208.026,408.071c17.673,0,32,14.327,32,32v32l0,0h-64l0,0v-32
		C176.026,422.398,190.353,408.071,208.026,408.071z"/>
	<path style="fill:#FDBD40;" d="M272.026,408.071c17.673,0,32,14.327,32,32v32l0,0h-64l0,0v-32
		C240.026,422.398,254.353,408.071,272.026,408.071z"/>
</g>
<path style="fill:#7D8D9C;" d="M224.026,320.071h32v88h-32V320.071z"/>
<path style="fill:#AABECE;" d="M264.026,184.071h-48c-4.418-0.003-7.997-3.588-7.994-8.006c0.001-1.446,0.394-2.865,1.138-4.106
	c10.242-17.041,32.359-22.553,49.401-12.311c5.049,3.035,9.277,7.262,12.311,12.311c2.271,3.79,1.04,8.703-2.75,10.974
	C266.891,183.677,265.472,184.07,264.026,184.071z"/>
<circle style="fill:#FCF05A;" cx="416.026" cy="48.071" r="40"/>
<path style="fill:#E9686A;" d="M360.026,88.071c-4.418,0.015-8.012-3.554-8.028-7.972c-0.01-2.879,1.528-5.542,4.028-6.972l112-64
	c3.835-2.209,8.735-0.891,10.944,2.944s0.891,8.735-2.944,10.944l-112,64C362.81,87.716,361.429,88.081,360.026,88.071z"/>
<path d="M8.026,88.071c13.255,0,24,10.745,24,24c0,4.418,3.582,8,8,8s8-3.582,8-8c0-13.255,10.745-24,24-24c4.418,0,8-3.582,8-8
	s-3.582-8-8-8c-13.255,0-24-10.745-24-24c0-4.418-3.582-8-8-8s-8,3.582-8,8c0,13.255-10.745,24-24,24c-4.418,0-8,3.582-8,8
	S3.607,88.071,8.026,88.071z M40.026,72.071c2.278,3.029,4.971,5.722,8,8c-3.029,2.278-5.722,4.971-8,8
	c-2.278-3.029-4.971-5.722-8-8C35.055,77.794,37.748,75.101,40.026,72.071z"/>
<path id="SVGCleanerId_0_1_" d="M112.026,0.071h16v16h-16V0.071z"/>
<path id="SVGCleanerId_1_1_" d="M112.026,32.071h16v16h-16V32.071z"/>
<path id="SVGCleanerId_2_1_" d="M96.026,16.071h16v16h-16V16.071z"/>
<path id="SVGCleanerId_3_1_" d="M128.026,16.071h16v16h-16V16.071z"/>
<path id="SVGCleanerId_4_1_" d="M416.026,136.071h16v16h-16V136.071z"/>
<path id="SVGCleanerId_5_1_" d="M448.026,152.071h16v16h-16V152.071z"/>
<path d="M416.026,416.071c4.418,0,8-3.582,8-8v-56c0-2.56-1.225-4.966-3.296-6.472l-28.704-20.872V172.071
	c0.072-19.811-15.929-35.93-35.741-36.003c-9.137-0.033-17.942,3.421-24.619,9.659C320.771,91.06,289.744,42.477,244.73,9.599
	c-2.805-2.039-6.603-2.039-9.408,0c-45.014,32.878-76.041,81.461-86.936,136.128c-14.477-13.524-37.177-12.752-50.701,1.725
	c-6.237,6.677-9.692,15.482-9.659,24.619v149.056l-36.44,24.288c-2.225,1.484-3.56,3.982-3.56,6.656v56c0,4.418,3.582,8,8,8h120.208
	c-5.294,6.883-8.179,15.316-8.208,24v32c0,4.418,3.582,8,8,8h128c4.418,0,8-3.582,8-8v-32c-0.029-8.684-2.914-17.117-8.208-24
	H416.026z M320.026,400.071h-24V243.887l24,9.6V400.071z M248.026,400.071h-16v-72h16V400.071z M240.234,416.071
	c-0.072,0.088-0.144,0.16-0.208,0.248c-0.064-0.088-0.136-0.16-0.208-0.248H240.234z M264.026,400.071v-80c0-4.418-3.582-8-8-8h-32
	c-4.418,0-8,3.582-8,8v80h-16V154.735l40-53.328l40,53.328v245.336H264.026z M408.026,400.071h-72v-96.288l72,52.36V400.071z
	 M336.026,172.071c0-11.046,8.954-20,20-20s20,8.954,20,20v141.024l-40-29.096V172.071z M240.026,26.071
	c50.369,39.007,79.896,99.093,80,162.8v47.368l-24-9.6v-74.568c0-1.731-0.561-3.415-1.6-4.8l-48-64
	c-2.908-3.535-8.131-4.042-11.666-1.134c-0.414,0.34-0.794,0.72-1.134,1.134l-48,64c-1.039,1.385-1.6,3.069-1.6,4.8v74.584l-24,9.6
	v-47.384C160.13,125.165,189.656,65.078,240.026,26.071L240.026,26.071z M104.026,172.071c0-11.046,8.954-20,20-20s20,8.954,20,20
	v111.72l-40,26.68V172.071z M64.026,356.351l80-53.328v97.048h-80V356.351z M160.026,253.487l24-9.6v156.184h-24V253.487z
	 M184.026,440.071c0-13.255,10.745-24,24-24s24,10.745,24,24v24h-48V440.071z M296.026,464.071h-48v-24c0-13.255,10.745-24,24-24
	s24,10.745,24,24V464.071z"/>
<path d="M240.026,154.471c-12.656-0.061-24.397,6.588-30.856,17.472c-2.28,3.785-1.06,8.701,2.725,10.981
	c1.247,0.751,2.675,1.148,4.131,1.147h48c4.418-0.003,7.997-3.588,7.994-8.006c-0.001-1.446-0.394-2.865-1.138-4.106
	C264.427,161.069,252.685,154.414,240.026,154.471L240.026,154.471z"/>
<path d="M478.97,12.071c-2.199-3.832-7.088-5.156-10.92-2.958c-0.008,0.005-0.016,0.009-0.024,0.014l-14.896,8.544
	c-16.715-20.53-46.909-23.622-67.439-6.907c-15.91,12.954-21.812,34.597-14.681,53.835l-14.984,8.528
	c-3.835,2.194-5.166,7.081-2.972,10.916c1.43,2.499,4.092,4.037,6.972,4.028c1.403,0.009,2.784-0.355,4-1.056l14.896-8.544
	c16.723,20.524,46.917,23.605,67.441,6.883c15.892-12.949,21.791-34.569,14.679-53.795l14.984-8.544
	c3.832-2.199,5.156-7.088,2.958-10.92C478.979,12.087,478.974,12.079,478.97,12.071z M384.026,48.071
	c-0.023-17.647,14.263-31.971,31.91-31.994c8.658-0.011,16.95,3.491,22.978,9.706l-53.6,30.648
	C384.513,53.715,384.08,50.903,384.026,48.071z M448.026,48.071c0.023,17.647-14.263,31.971-31.91,31.994
	c-8.658,0.011-16.95-3.491-22.978-9.706l53.6-30.648C447.538,42.428,447.972,45.24,448.026,48.071z"/>
<g>
</g>
<g>
</g>
<g>
</g>
<g>
</g>
<g>
</g>
<g>
</g>
<g>
</g>
<g>
</g>
<g>
</g>
<g>
</g>
<g>
</g>
<g>
</g>
<g>
</g>
<g>
</g>
<g>
</g>
</svg>
