<svg id="Layer_1" enable-background="new 0 0 512 512" height="512" viewBox="0 0 512 512" width="512" xmlns="http://www.w3.org/2000/svg"><g><path d="m80 255.995c0-107.063 71.299-197.459 169-226.336l-.007-9.562c-127.098 3.706-228.993 107.902-228.993 235.898 0 128.114 102.035 235.908 229.345 235.908l-.006-8.26c-97.901-27.505-169.339-120.455-169.339-227.648z" fill="#c6e1f2"/><path d="m335 503.247c-8.228 0-15.936-5.115-18.847-13.312-3.696-10.409 1.744-21.843 12.153-25.54 85.948-30.525 143.694-112.348 143.694-203.607 0-90.383-57.011-171.942-141.864-202.947-10.375-3.791-15.712-15.274-11.921-25.649 3.79-10.374 15.271-15.714 25.649-11.921 48.807 17.834 90.595 49.731 120.847 92.243 30.936 43.474 47.289 94.746 47.289 148.274 0 108.151-68.441 205.122-170.307 241.3-2.212.786-4.472 1.159-6.693 1.159zm-53.822-11.821c4.791-14.876-3.278-30.561-13.304-37.767-49.212-35.372-107.874-98.378-107.874-197.664 0-90.742 52.853-163.714 105.569-196.188 12.408-6.004 19.64-20.449 16.984-34.576-2.179-11.594-12.275-25.134-33.561-25.134-.194 0-.389.003-.583.008-66.779 1.947-129.252 29.43-175.909 77.385-46.752 48.054-72.5 111.448-72.5 178.505 0 33.984 6.538 67.127 19.433 98.51 12.493 30.405 30.358 57.781 53.101 81.369 47.271 49.028 110.063 76.03 176.812 76.03 23.416-.001 30.284-15.675 31.832-20.478zm-123.926-373.605c-24.37 42.379-37.252 90.159-37.252 138.174 0 83.981 35.874 157.609 104.088 214.346-103.568-12.901-184.088-104.108-184.088-214.346 0-107.77 77.259-196.402 180.57-213.153-24.652 20.016-46.578 45.868-63.318 74.979z" fill="#0023c4"/><path d="m348 150.097c13.807 0 25 11.193 25 25s-11.193 25-25 25-25-11.193-25-25 11.193-25 25-25zm18 117c0 13.807 11.193 25 25 25s25-11.193 25-25-11.193-25-25-25-25 11.193-25 25zm-152-13c0 13.807 11.193 25 25 25s25-11.193 25-25-11.193-25-25-25-25 11.193-25 25zm102 125c0 13.807 11.193 25 25 25s25-11.193 25-25-11.193-25-25-25-25 11.193-25 25zm-71-243c0 13.807 11.193 25 25 25s25-11.193 25-25-11.193-25-25-25-25 11.193-25 25z" fill="#ff5cf3"/></g></svg>