<svg id="Layer_1" enable-background="new 0 0 512 512" height="512" viewBox="0 0 512 512" width="512" xmlns="http://www.w3.org/2000/svg"><g><path d="m315 256c0-109.629 75.462-201.79 177-228.313v-7.687c-130.339 0-237 105.661-237 236s106.661 236 237 236v-7.688c-101.538-26.522-177-118.683-177-228.312z" fill="#c6e1f2"/><path d="m492 512c-141.71 0-257-114.841-257-256s115.29-256 257-256c11.046 0 20 8.954 20 20s-8.954 20-20 20c-119.654 0-217 96.897-217 216s97.346 216 217 216c11.046 0 20 8.954 20 20s-8.954 20-20 20zm-260-487c0 13.807 11.193 25 25 25s25-11.193 25-25-11.193-25-25-25-25 11.193-25 25zm0 462c0 13.807 11.193 25 25 25s25-11.193 25-25-11.193-25-25-25-25 11.193-25 25zm-207-206c13.807 0 25-11.193 25-25s-11.193-25-25-25-25 11.193-25 25 11.193 25 25 25zm95-227c0 13.807 11.193 25 25 25s25-11.193 25-25-11.193-25-25-25-25 11.193-25 25zm-89 86c0 13.807 11.193 25 25 25s25-11.193 25-25-11.193-25-25-25-25 11.193-25 25zm0 232c0 13.807 11.193 25 25 25s25-11.193 25-25-11.193-25-25-25-25 11.193-25 25zm89 87c0 13.807 11.193 25 25 25s25-11.193 25-25-11.193-25-25-25-25 11.193-25 25z" fill="#0023c4"/><path d="m221.017 419.9c-1.54 0-3.103-.179-4.666-.553-36.532-8.731-69.634-29.782-93.208-59.274-23.952-29.964-37.143-67.631-37.143-106.062 0-39.466 13.819-77.906 38.911-108.261 24.75-29.942 59.24-50.665 97.115-58.352 10.83-2.192 21.381 4.798 23.579 15.623 2.197 10.825-4.798 21.382-15.623 23.579-60.251 12.228-103.982 65.802-103.982 127.389 0 60.44 40.978 112.431 99.649 126.455 10.743 2.567 17.371 13.358 14.803 24.102-2.194 9.179-10.393 15.354-19.435 15.354z" fill="#ff5cf3"/></g></svg>