<svg id="Layer_1" enable-background="new 0 0 512 512" height="512" viewBox="0 0 512 512" width="512" xmlns="http://www.w3.org/2000/svg"><g><path d="m80 256c0-120.176 89.826-219.372 206-234.11-9.824-1.247-19.837-1.89-30-1.89-130.339 0-236 105.661-236 236s105.661 236 236 236c10.163 0 20.176-.643 30-1.89-116.174-14.738-206-113.934-206-234.11z" fill="#c6e1f2"/><path d="m256 512c-68.38 0-132.667-26.629-181.02-74.98-48.351-48.353-74.98-112.64-74.98-181.02s26.629-132.667 74.98-181.02c48.353-48.351 112.64-74.98 181.02-74.98s132.667 26.629 181.02 74.98c48.351 48.353 74.98 112.64 74.98 181.02s-26.629 132.667-74.98 181.02c-48.353 48.351-112.64 74.98-181.02 74.98zm0-472c-119.103 0-216 96.897-216 216s96.897 216 216 216 216-96.897 216-216-96.897-216-216-216zm118 86c0-11.046-8.954-20-20-20h-196c-11.046 0-20 8.954-20 20s8.954 20 20 20h196c11.046 0 20-8.954 20-20zm0 260c0-11.046-8.954-20-20-20h-196c-11.046 0-20 8.954-20 20s8.954 20 20 20h196c11.046 0 20-8.954 20-20z" fill="#0023c4"/><path d="m170 320c-50.467 0-90-27.673-90-63s39.533-63 90-63c26.277 0 51.01 7.678 67.857 21.066 17.8 14.144 39.444 21.934 60.944 21.934h113.199c11.046 0 20 8.954 20 20s-8.954 20-20 20h-113.199c-30.5 0-60.982-10.874-85.829-30.618-9.757-7.753-25.821-12.382-42.972-12.382-30.058 0-50 13.843-50 23 0 9.156 19.942 23 50 23 8.972 0 19.366-1.795 28.517-4.924 10.452-3.576 21.821 2.001 25.396 12.453 3.574 10.451-2.001 21.821-12.453 25.395-13.344 4.563-28.068 7.076-41.46 7.076z" fill="#ff5cf3"/></g></svg>