<svg id="Layer_1" enable-background="new 0 0 512.003 512.003" height="512" viewBox="0 0 512.003 512.003" width="512" xmlns="http://www.w3.org/2000/svg"><g><path d="m80.001 282.003c0-93.829 61.543-173.264 146.46-200.19.321-3.264.711-6.523 1.163-9.78-114.883 1.276-207.624 94.785-207.624 209.97 0 115.98 94.02 210 210 210 10.188 0 20.2-.74 30-2.142-101.765-14.56-179.999-102.066-179.999-207.858z" fill="#c6e1f2"/><path d="m230.001 512.003c-61.436 0-119.193-23.924-162.635-67.365s-67.365-101.2-67.365-162.635 23.924-119.193 67.365-162.635c43.441-43.441 101.199-67.365 162.635-67.365 11.046 0 20 8.954 20 20s-8.954 20-20 20c-104.767 0-190 85.233-190 190s85.233 190 190 190 190-85.233 190-190c0-11.046 8.954-20 20-20s20 8.954 20 20c0 61.436-23.924 119.193-67.365 162.635s-101.199 67.365-162.635 67.365zm170.143-371.858 106-106c7.81-7.811 7.81-20.474 0-28.284-7.811-7.811-20.475-7.811-28.285 0l-106 106c-7.81 7.811-7.81 20.474 0 28.284 3.905 3.905 9.024 5.858 14.143 5.858s10.237-1.953 14.142-5.858zm31.787 90.219 69.933-40c9.588-5.484 12.915-17.703 7.431-27.291-5.482-9.587-17.702-12.915-27.29-7.431l-69.933 40c-9.589 5.484-12.915 17.703-7.431 27.291 3.692 6.457 10.438 10.073 17.379 10.073 3.366 0 6.78-.851 9.911-2.642zm-116.784-130.131 42-69.933c5.687-9.469 2.621-21.756-6.849-27.443-9.467-5.686-21.755-2.622-27.442 6.848l-42 69.933c-5.687 9.469-2.621 21.756 6.849 27.443 3.224 1.936 6.772 2.857 10.278 2.857 6.79 0 13.413-3.46 17.164-9.705z" fill="#0023c4"/><path d="m279.43 324.074c-50.453 0-91.5-41.047-91.5-91.5s41.047-91.5 91.5-91.5 91.5 41.047 91.5 91.5-41.047 91.5-91.5 91.5zm0-143c-28.397 0-51.5 23.103-51.5 51.5s23.103 51.5 51.5 51.5 51.5-23.103 51.5-51.5-23.102-51.5-51.5-51.5z" fill="#ff5cf3"/></g></svg>