<?xml version="1.0" encoding="iso-8859-1"?>
<!-- Generator: Adobe Illustrator 19.0.0, SVG Export Plug-In . SVG Version: 6.00 Build 0)  -->
<svg version="1.1" id="Capa_1" xmlns="http://www.w3.org/2000/svg" xmlns:xlink="http://www.w3.org/1999/xlink" x="0px" y="0px"
	 viewBox="0 0 479.999 479.999" style="enable-background:new 0 0 479.999 479.999;" xml:space="preserve">
<path style="fill:#FDBD40;" d="M239.999,7.999c57.438,0,104,46.562,104,104v152l0,0h-208l0,0v-152
	C135.999,54.561,182.562,7.999,239.999,7.999z"/>
<circle style="fill:#E9686A;" cx="239.999" cy="151.999" r="72"/>
<circle style="fill:#FFFFFF;" cx="239.999" cy="151.999" r="40"/>
<path style="fill:#CFDFE8;" d="M247.999,159.999c-8.837,0-16-7.163-16-16s7.163-16,16-16c8.837,0,16,7.163,16,16
	S256.836,159.999,247.999,159.999z"/>
<path style="fill:#E9686A;" d="M111.999,263.999h256v144h-256V263.999z"/>
<g>
	<path style="fill:#CFDFE8;" d="M15.999,295.999c0-21.6,16-21.6,16-43.2s-16-21.6-16-43.2s16-21.6,16-43.2s-16-21.6-16-43.2
		s16-21.6,16-43.2h40c0,21.6-16,21.6-16,43.2s16,21.6,16,43.2s-16,21.6-16,43.2s16,21.6,16,43.2s-16,21.6-16,43.2h56v40h-88
		L15.999,295.999z"/>
	<path style="fill:#CFDFE8;" d="M463.999,295.999c0-21.6-16-21.6-16-43.2s16-21.6,16-43.2s-16-21.6-16-43.2s16-21.6,16-43.16
		s-16-21.6-16-43.2h-40c0,21.6,16,21.6,16,43.2s-16,21.6-16,43.2s16,21.6,16,43.2s-16,21.6-16,43.2s16,21.6,16,43.2h-56v40h88
		L463.999,295.999z"/>
	<path style="fill:#CFDFE8;" d="M143.999,407.999h48v64h-48V407.999z"/>
	<path style="fill:#CFDFE8;" d="M287.999,407.999h48v64h-48V407.999z"/>
</g>
<g>
	<path style="fill:#E9686A;" d="M159.999,47.999c-2.122,0-4.156-0.844-5.656-2.344l-24-24c-3.069-3.178-2.981-8.243,0.197-11.312
		c3.1-2.994,8.015-2.994,11.115,0l24,24c3.124,3.125,3.123,8.19-0.002,11.314C164.154,47.156,162.12,47.998,159.999,47.999
		L159.999,47.999z"/>
	<path style="fill:#E9686A;" d="M319.999,47.999c-4.418-0.001-7.999-3.583-7.998-8.002c0-2.121,0.843-4.154,2.342-5.654l24-24
		c3.07-3.178,8.134-3.266,11.312-0.196s3.266,8.134,0.196,11.312c-0.064,0.067-0.13,0.132-0.196,0.196l-24,24
		C324.155,47.155,322.121,47.998,319.999,47.999z"/>
</g>
<path style="fill:#FCF05A;" d="M239.999,311.999c26.51,0,48,21.49,48,48v48l0,0h-96l0,0v-48
	C191.999,333.489,213.49,311.999,239.999,311.999z"/>
<path d="M239.999,71.999c-44.183,0-80,35.817-80,80s35.817,80,80,80s80-35.817,80-80C319.951,107.836,284.162,72.047,239.999,71.999
	z M239.999,215.999c-35.346,0-64-28.654-64-64s28.654-64,64-64s64,28.654,64,64C303.96,187.328,275.329,215.959,239.999,215.999z"/>
<path d="M239.999,103.999c-26.51,0-48,21.49-48,48s21.49,48,48,48s48-21.49,48-48C287.973,125.5,266.498,104.025,239.999,103.999z
	 M239.999,183.999c-17.673,0-32-14.327-32-32s14.327-32,32-32s32,14.327,32,32S257.672,183.999,239.999,183.999z"/>
<circle cx="247.999" cy="143.999" r="16"/>
<path d="M471.999,123.199c0.103-9.672-3.308-19.053-9.6-26.4c-4.206-4.574-6.496-10.587-6.4-16.8c0-4.418-3.582-8-8-8h-40
	c-4.418,0-8,3.582-8,8c-0.101,9.672,3.31,19.052,9.6,26.4c8.569,9.576,8.569,24.064,0,33.64c-12.764,15.249-12.764,37.454,0,52.704
	c8.577,9.595,8.577,24.101,0,33.696c-12.757,15.267-12.757,37.477,0,52.744c2.196,2.643,3.957,5.619,5.216,8.816h-38.816v-24
	c0-4.418-3.582-8-8-8h-16v-144c-0.003-24.973-8.399-49.221-23.84-68.848l21.496-21.496c3.178-3.07,3.266-8.134,0.196-11.312
	s-8.134-3.266-11.312-0.196c-0.067,0.064-0.132,0.13-0.196,0.196l-20.92,20.92c-43.2-41.684-111.648-41.684-154.848,0l-20.92-20.92
	c-3.178-3.069-8.243-2.981-11.312,0.197c-2.994,3.1-2.994,8.015,0,11.115l21.496,21.496c-15.441,19.627-23.837,43.875-23.84,68.848
	v144h-16c-4.418,0-8,3.582-8,8v24H65.183c1.265-3.213,3.037-6.203,5.248-8.856c12.757-15.267,12.757-37.477,0-52.744
	c-8.577-9.595-8.577-24.101,0-33.696c12.764-15.249,12.764-37.454,0-52.704c-8.545-9.57-8.545-24.03,0-33.6
	c6.279-7.352,9.678-16.732,9.568-26.4c0-4.418-3.582-8-8-8h-40c-4.418,0-8,3.582-8,8c0.096,6.213-2.194,12.226-6.4,16.8
	c-12.763,15.247-12.763,37.449,0,52.696c8.571,9.582,8.571,24.074,0,33.656c-12.758,15.261-12.758,37.467,0,52.728
	c8.575,9.601,8.575,24.111,0,33.712c-6.288,7.352-9.699,16.734-9.6,26.408c-0.005,0.538,0.049,1.074,0.16,1.6l8,40
	c0.76,3.725,4.038,6.401,7.84,6.4h80v64c0,4.418,3.582,8,8,8h24v56c0,4.418,3.582,8,8,8h48c4.418,0,8-3.582,8-8v-56h80v56
	c0,4.418,3.582,8,8,8h48c4.418,0,8-3.582,8-8v-56h24c4.418,0,8-3.582,8-8v-64h80c3.802,0.001,7.08-2.675,7.84-6.4l8-40
	c0.111-0.526,0.165-1.062,0.16-1.6c0.097-9.671-3.314-19.05-9.6-26.4c-8.575-9.601-8.575-24.111,0-33.712
	c12.758-15.261,12.758-37.467,0-52.728c-8.571-9.582-8.571-24.074,0-33.656C468.677,142.185,472.087,132.839,471.999,123.199z
	 M143.999,111.999c0-53.019,42.981-96,96-96s96,42.981,96,96v144h-192V111.999z M30.559,327.999l-6.56-32.752
	c0.091-5.97,2.368-11.7,6.4-16.104c12.757-15.267,12.757-37.477,0-52.744c-8.577-9.595-8.577-24.101,0-33.696
	c12.764-15.249,12.764-37.454,0-52.704c-8.545-9.57-8.545-24.03,0-33.6c4.437-5.306,7.493-11.627,8.896-18.4h23.52
	c-1.264,3.19-3.024,6.16-5.216,8.8c-12.763,15.247-12.763,37.449,0,52.696c8.571,9.582,8.571,24.074,0,33.656
	c-12.758,15.261-12.758,37.467,0,52.728c8.575,9.601,8.575,24.111,0,33.712c-6.288,7.352-9.699,16.734-9.6,26.408
	c0,4.418,3.582,8,8,8h48v24L30.559,327.999z M183.999,463.999h-32v-48h32V463.999z M279.999,399.999h-80v-40
	c0-22.091,17.909-40,40-40s40,17.909,40,40V399.999z M327.999,463.999h-32v-48h32V463.999z M359.999,399.999h-64v-40
	c0-30.928-25.072-56-56-56s-56,25.072-56,56l0,0v40h-64v-128h240V399.999z M449.599,139.999c-12.764,15.249-12.764,37.454,0,52.704
	c8.577,9.595,8.577,24.101,0,33.696c-12.757,15.267-12.757,37.477,0,52.744c4.032,4.404,6.309,10.134,6.4,16.104l-6.56,32.752
	h-73.44v-24h48c4.418,0,8-3.582,8-8c0.097-9.671-3.314-19.05-9.6-26.4c-8.575-9.601-8.575-24.111,0-33.712
	c12.758-15.261,12.758-37.467,0-52.728c-8.571-9.582-8.571-24.074,0-33.656c12.763-15.247,12.763-37.449,0-52.696
	c-2.203-2.638-3.975-5.608-5.248-8.8h23.52c1.414,6.773,4.481,13.091,8.928,18.392c8.569,9.576,8.569,24.064,0,33.64V139.999z"/>
<g>
</g>
<g>
</g>
<g>
</g>
<g>
</g>
<g>
</g>
<g>
</g>
<g>
</g>
<g>
</g>
<g>
</g>
<g>
</g>
<g>
</g>
<g>
</g>
<g>
</g>
<g>
</g>
<g>
</g>
</svg>
