<svg id="Layer_1" enable-background="new 0 0 496 496" height="512" viewBox="0 0 496 496" width="512" xmlns="http://www.w3.org/2000/svg"><path d="m308.87 140.08c-20.926 12.4-32.66 17.212-40.24 32.69-9.13 18.68-35.29 24.79-51.58 8.5-18.31-18.31-8.14-47.9 14.34-53.81 8.04-2.11 15.31-6.43 21.38-12.11 20.61-19.29 69.34-58.42 139.77-74.36l19.333-19.333c3.124-3.124 8.19-3.124 11.314 0l51.156 51.156c3.124 3.124 3.124 8.19 0 11.314l-19.333 19.333-19.61 51.15c-4.17 10.88-12.5 19.66-23.16 24.39l-25.53 11.32c-19.33 8.58-42.03 2.13-53.97-15.32-.306-.448-23.59-34.454-23.87-34.92z" fill="#befa91"/><path d="m140.08 308.87c.466.279 34.472 23.563 34.92 23.87 17.45 11.94 23.9 34.64 15.32 53.97l-11.32 25.53c-4.73 10.66-13.51 18.99-24.39 23.16l-51.15 19.61-19.333 19.333c-3.124 3.124-8.19 3.124-11.314 0l-51.156-51.156c-3.124-3.124-3.124-8.19 0-11.314l19.333-19.333.99-54.63c.09-5.03 2.13-9.83 5.69-13.39l94.86-94.86c3.79-3.8 8.77-5.69 13.75-5.69 14.991 0 24.425 16.355 16.72 29.35z" fill="#ffebd2"/><path d="m161.873 224.848c11.209 3.437 13.417 18.046 4.271 25.383-1.231.987 5.083-5.248-96.464 96.31-3.56 3.55-5.6 8.35-5.69 13.38l-.884 48.772c-.068 3.758-1.591 7.343-4.248 10.001-16.026 16.034-15.131 15.169-15.231 15.213-4.496 1.982-9.662 1.588-13.137-1.886l-8.831-8.831c-3.126-3.126-3.126-8.194 0-11.32l19.33-19.33.99-54.63c.09-5.03 2.13-9.83 5.69-13.39l94.86-94.86c5.58-5.594 12.959-6.77 19.344-4.812z" fill="#fff3e4"/><path d="m438.046 36.516c3.038 3.038 2.778 7.895-.335 10.855-.048.045-19.354 19.342-19.4 19.389-70.43 15.94-119.16 55.07-139.77 74.36-6.07 5.68-13.34 10-21.38 12.11-11.653 3.061-19.995 12.487-22.78 23.406-1.945 7.628-11.582 10.315-17.182 4.782-18.508-18.287-8.357-48.029 14.192-53.958 8.04-2.11 15.31-6.43 21.38-12.11 20.61-19.29 69.34-58.42 139.77-74.36l19.33-19.33c3.126-3.126 8.194-3.126 11.32 0z" fill="#d0ffad"/><path d="m204.947 393.202-11.324 25.526c-6.403 14.437-18.535 25.961-33.285 31.616l-47.969 18.388-22.582 22.582c-6.249 6.248-16.379 6.249-22.627 0-6.249-6.249-6.249-16.379 0-22.627l24.989-24.989c3.217-3.217.587-1.71 56.733-23.233 6.864-2.631 12.51-7.993 15.489-14.711l11.325-25.527c5.446-12.278 1.354-26.694-9.732-34.279l-20.812-14.24c-17.359 29.293-16.541 27.377-15.829 27.95 6.874 5.553 7.945 15.626 2.394 22.5-5.554 6.875-15.625 7.945-22.501 2.394-12.56-10.145-15.824-28.269-7.593-42.158l57.618-97.23c2.05-3.462-2.551-7.033-5.396-4.189l-94.857 94.858c-1.401 1.401-.923-2.276-2.001 56.999-.075 4.142-1.754 8.093-4.684 11.023l-24.989 24.989c-6.246 6.245-16.376 6.251-22.627 0-6.249-6.249-6.249-16.379 0-22.627l20.423-20.422.876-48.17c.166-9.221 3.851-17.893 10.375-24.417l94.857-94.858c13.852-13.852 36.269-13.853 50.122 0 11.457 11.457 13.689 29.192 5.43 43.13l-25.27 42.642 22.534 15.418c23.823 16.296 32.619 47.277 20.913 73.662zm286.367-326.043c-6.247-6.248-16.378-6.248-22.627 0-27.191 27.191-26.992 26.337-28.615 30.576l-19.606 51.148c-2.632 6.864-7.994 12.509-14.713 15.49l-25.526 11.324c-12.277 5.446-26.693 1.354-34.279-9.731l-14.24-20.813 25.356-15.026c.833-.425 3.029-.148 3.737.467 6.249 6.238 16.373 6.233 22.618-.01 6.248-6.249 6.247-16.379-.001-22.628-10.969-10.968-29.305-13.277-42.651-5.368l-61.768 36.604c-10.827 6.416-19.382 15.596-24.739 26.548-2.242 4.585-6.74 7.849-12.032 8.732-11.113 1.856-21.15-8.447-18.054-19.882 1.56-5.765 5.884-10.229 11.287-11.648 10.231-2.688 19.997-8.189 28.241-15.908 21.291-19.934 66.8-55.592 132.37-70.438 6.017-1.362 5.872-2.383 32.771-29.28 6.248-6.249 6.247-16.379-.001-22.627s-16.378-6.248-22.628 0l-21.766 21.766c-70.492 17.099-119.454 55.534-142.617 77.219-4.378 4.099-9.393 6.976-14.503 8.318-16.455 4.323-29.5 17.443-34.044 34.24-8.418 31.114 15.669 60.474 46.172 60.473 18.385 0 35.473-10.392 43.55-26.906 4.679-9.568 11.911-12.844 21.114-18.297l15.417 22.534c16.313 23.84 47.298 32.609 73.666 20.913l25.526-11.324c14.438-6.405 25.962-18.537 31.616-33.287l18.387-47.969 22.582-22.581c6.249-6.25 6.249-16.38 0-22.629zm-378.93 79.099c3.124 3.125 7.218 4.687 11.313 4.687 14.125 0 21.424-17.203 11.313-27.313l-22.717-22.717c-6.246-6.248-16.377-6.249-22.627 0-6.249 6.249-6.249 16.379 0 22.627zm-26.887 54.665h18.473c8.837 0 16-7.164 16-16s-7.163-16-16-16h-18.473c-8.837 0-16 7.164-16 16s7.163 16 16 16zm88.179-81.064c8.837 0 16-7.164 16-16v-18.474c0-8.836-7.163-16-16-16s-16 7.164-16 16v18.473c0 8.837 7.163 16.001 16 16.001zm121.256 158.693c-6.246-6.247-16.377-6.249-22.627 0-6.249 6.249-6.249 16.379 0 22.627l22.717 22.717c6.248 6.249 16.378 6.249 22.627 0s6.249-16.379 0-22.627zm-61.291 15.041c-8.837 0-16 7.164-16 16v18.473c0 8.836 7.163 16 16 16s16-7.164 16-16v-18.473c0-8.836-7.163-16-16-16zm99.537-69.706h-18.473c-8.837 0-16 7.164-16 16s7.163 16 16 16h18.473c8.837 0 16-7.164 16-16s-7.163-16-16-16z"/></svg>