<?xml version="1.0" encoding="iso-8859-1"?>
<!-- Generator: Adobe Illustrator 19.0.0, SVG Export Plug-In . SVG Version: 6.00 Build 0)  -->
<svg version="1.1" id="Capa_1" xmlns="http://www.w3.org/2000/svg" xmlns:xlink="http://www.w3.org/1999/xlink" x="0px" y="0px"
	 viewBox="0 0 512.002 512.002" style="enable-background:new 0 0 512.002 512.002;" xml:space="preserve">
<g>
	<path style="fill:#D3D6DB;" d="M165.325,349.583l-37.267-8.284v127.979h59.723l17.064-68.255l17.064,68.255h59.723V341.299
		l-37.267,8.284C218.334,355.368,191.356,355.368,165.325,349.583z"/>
	<path style="fill:#D3D6DB;" d="M259.705,215.812L259.705,215.812c-1.834,1.084-3.711,2.099-5.64,3.071
		c-0.563,0.29-1.135,0.572-1.706,0.853c-1.766,0.853-3.549,1.647-5.384,2.406c-0.853,0.341-1.706,0.665-2.508,0.99
		c-1.706,0.64-3.353,1.254-5.076,1.817c-1.101,0.35-2.218,0.665-3.327,0.99c-1.57,0.452-3.131,0.904-4.735,1.297
		c-1.391,0.333-2.816,0.606-4.266,0.853s-2.807,0.589-4.266,0.811c-1.792,0.29-3.626,0.478-5.452,0.683
		c-1.135,0.128-2.244,0.299-3.413,0.392c-3.012,0.239-6.066,0.375-9.163,0.375c-2.943,0-5.836-0.145-8.703-0.358
		c-0.981-0.077-1.945-0.196-2.918-0.29c-1.86-0.188-3.711-0.41-5.537-0.691c-1.152-0.179-2.304-0.367-3.413-0.572
		c-1.57-0.29-3.114-0.631-4.65-0.981c-1.246-0.282-2.491-0.555-3.72-0.853s-2.389-0.708-3.583-1.075
		c-3.029-0.913-5.981-1.945-8.848-3.106c-0.495-0.205-1.007-0.384-1.502-0.589c-1.817-0.768-3.575-1.595-5.315-2.457
		c-0.401-0.196-0.802-0.392-1.194-0.597c-1.86-0.939-3.677-1.928-5.443-2.978l0,0l-21.884,116.964v8.532l37.267,8.284
		c26.031,5.785,53.009,5.785,79.04,0l37.267-8.284v-8.532L259.705,215.812z"/>
	<path style="fill:#D3D6DB;" d="M128.058,463.988c-5.477,6.16-8.506,14.112-8.532,22.354c0,9.428,7.636,17.064,17.064,17.064h34.128
		c9.428,0,17.064-7.636,17.064-17.064c-0.034-6.006-1.664-11.902-4.735-17.064h-54.988
		C128.058,469.278,128.058,463.988,128.058,463.988z"/>
	<path style="fill:#D3D6DB;" d="M149.985,215.812L149.985,215.812c-2.116-1.246-4.172-2.56-6.143-3.925
		c-0.196-0.137-0.375-0.29-0.572-0.427c-1.809-1.288-3.6-2.56-5.281-4.001l0,0l-4.573,3.268
		c-24.768,17.815-43.939,42.318-55.27,70.644c-0.401,0.998-0.853,1.971-1.254,2.986l-8.558,22.814l5.972,2.56l0,0l53.751,23.036
		L149.985,215.812z"/>
	<path style="fill:#D3D6DB;" d="M226.644,469.278c-3.072,5.162-4.701,11.057-4.735,17.064c0,9.428,7.636,17.064,17.064,17.064H273.1
		c9.428,0,17.064-7.636,17.064-17.064c-0.026-8.242-3.054-16.194-8.532-22.354v5.29H226.644z"/>
	<path style="fill:#D3D6DB;" d="M334.581,289.109c-12.269-32.72-34.008-61.037-62.445-81.352l-0.435-0.307l0,0
		c-1.706,1.399-3.472,2.713-5.281,4.001c-0.196,0.137-0.375,0.29-0.572,0.427c-1.706,1.186-3.464,2.304-5.264,3.413l-0.853,0.538
		l0,0l21.901,116.938l5.921-2.56l0,0l9.957-4.266l43.845-18.77l-3.771-10.059l0,0L334.581,289.109z"/>
	<path style="fill:#D3D6DB;" d="M76.866,281.576h1.066l0.213-0.213l0,0c4.786-12.021,11.032-23.412,18.583-33.914H76.866
		c-18.847,0-34.128-15.281-34.128-34.128s15.281-34.128,34.128-34.128v-34.128c-37.694,0-68.255,30.561-68.255,68.255
		S39.172,281.576,76.866,281.576z"/>
	<path style="fill:#D3D6DB;" d="M33.353,350.684c-6.578,6.655-6.518,17.371,0.137,23.949c5.495,5.426,13.958,6.459,20.588,2.5
		l31.321-18.77v10.725c-0.051,8.216,6.57,14.914,14.786,14.956c6.467,0.043,12.218-4.112,14.223-10.255l13.651-41.021
		l-53.751-23.036L33.353,350.684z"/>
	<path style="fill:#D3D6DB;" d="M284.379,332.767l13.651,41.021c2.551,7.807,10.946,12.073,18.753,9.522
		c6.152-2.005,10.298-7.756,10.255-14.223v-10.725l31.321,18.77c8.054,4.761,18.437,2.09,23.198-5.964
		c3.908-6.604,2.884-15.016-2.5-20.485l-41.747-41.806l-39.801,17.064l-9.957,4.266L284.379,332.767z"/>
	<path style="fill:#D3D6DB;" d="M298.21,161.421c-0.051,0.444-0.179,0.853-0.239,1.322c-0.247,1.706-0.555,3.353-0.939,5
		c-0.154,0.7-0.299,1.391-0.478,2.082c-0.58,2.184-1.237,4.343-2.031,6.459c-0.128,0.341-0.299,0.665-0.435,1.007
		c-0.708,1.783-1.493,3.541-2.355,5.273c-0.384,0.759-0.793,1.51-1.203,2.261c-0.725,1.322-1.493,2.628-2.304,3.916
		c-0.461,0.734-0.913,1.467-1.399,2.184c-1.237,1.826-2.56,3.609-3.959,5.332h32.891c9.428,0,17.064-7.636,17.064-17.064v-34.128
		c0-9.428-7.636-17.064-17.064-17.064h-22.456c0.29,0.674,0.572,1.348,0.853,2.022c0.29,0.751,0.538,1.51,0.811,2.27
		c0.529,1.502,1.007,3.012,1.425,4.548c0.222,0.853,0.435,1.638,0.623,2.466c0.375,1.595,0.665,3.217,0.904,4.846
		c0.119,0.742,0.256,1.485,0.341,2.244c0.282,2.389,0.427,4.795,0.435,7.201c-0.017,2.355-0.162,4.71-0.435,7.047
		C298.235,160.9,298.244,161.165,298.21,161.421z"/>
	<path style="fill:#D3D6DB;" d="M113.971,134.724c-0.538,1.706-1.007,3.413-1.391,5.119c-0.205,0.896-0.35,1.8-0.503,2.696
		c-0.239,1.305-0.486,2.602-0.64,3.925c-0.282,2.363-0.427,4.752-0.444,7.133c0.017,2.355,0.162,4.71,0.435,7.047
		c0.077,0.708,0.188,1.399,0.29,2.099c0.247,1.706,0.555,3.353,0.939,5c0.154,0.7,0.299,1.391,0.478,2.082
		c0.58,2.184,1.237,4.343,2.031,6.459c0.128,0.341,0.299,0.665,0.435,1.007c0.708,1.783,1.493,3.541,2.355,5.273
		c0.384,0.759,0.793,1.51,1.203,2.261c0.717,1.322,1.493,2.628,2.304,3.916c0.461,0.734,0.913,1.467,1.399,2.184
		c1.237,1.826,2.56,3.609,3.959,5.332l0,0c3.362,4.078,7.099,7.824,11.168,11.194c1.706,1.399,3.464,2.722,5.281,4.001
		c0.196,0.137,0.375,0.29,0.572,0.427c1.979,1.374,4.027,2.688,6.143,3.925l0,0c1.766,1.049,3.592,2.039,5.443,2.978
		c0.392,0.205,0.793,0.401,1.194,0.597c1.706,0.853,3.507,1.706,5.315,2.457c0.495,0.205,0.998,0.384,1.502,0.589
		c2.867,1.16,5.827,2.184,8.848,3.106c1.194,0.367,2.372,0.759,3.583,1.075s2.474,0.597,3.72,0.853
		c1.536,0.35,3.08,0.691,4.65,0.981c1.135,0.205,2.287,0.392,3.413,0.572c1.826,0.273,3.677,0.503,5.537,0.691
		c0.973,0.102,1.937,0.213,2.918,0.29c2.867,0.213,5.768,0.358,8.703,0.358c3.097,0,6.152-0.137,9.163-0.375
		c1.143-0.094,2.261-0.264,3.413-0.392c1.826-0.196,3.66-0.392,5.452-0.683c1.433-0.23,2.833-0.529,4.266-0.811
		c1.433-0.282,2.841-0.555,4.266-0.853c1.595-0.392,3.165-0.853,4.735-1.297c1.109-0.316,2.227-0.64,3.327-0.99
		c1.706-0.563,3.413-1.177,5.076-1.817c0.853-0.324,1.706-0.648,2.508-0.99c1.826-0.759,3.626-1.553,5.384-2.406
		c0.572-0.273,1.143-0.563,1.706-0.853c1.92-0.973,3.814-1.988,5.64-3.071l0,0c2.338-1.382,4.582-2.858,6.757-4.385
		c-1.365,0.973-2.816,1.86-4.266,2.773c1.22-0.768,2.457-1.51,3.626-2.321c0.196-0.137,0.375-0.29,0.572-0.427
		c1.817-1.28,3.6-2.56,5.281-4.001l0,0l-0.324,0.247c6.049-4.949,11.347-10.742,15.733-17.209c0.282-0.427,0.546-0.853,0.853-1.28
		c1.032-1.604,1.988-3.242,2.884-4.906c0.282-0.52,0.563-1.041,0.853-1.57c2.099-4.155,3.754-8.515,4.94-13.02
		c0.162-0.64,0.299-1.288,0.444-1.928c0.392-1.706,0.708-3.413,0.956-5.119c0.094-0.674,0.205-1.348,0.282-2.031
		c0.247-2.338,0.367-4.684,0.358-7.039c-0.017-2.38-0.162-4.761-0.444-7.124c-0.154-1.322-0.401-2.619-0.64-3.925
		c-0.154-0.853-0.299-1.8-0.503-2.696c-0.392-1.706-0.853-3.413-1.391-5.119c-0.102-0.341-0.205-0.674-0.316-1.007
		c-0.64-1.937-1.348-3.848-2.159-5.716c-0.478-1.092-0.93-2.184-1.459-3.251c-0.196-0.401-0.358-0.811-0.563-1.212
		c-1.075-2.056-2.27-4.07-3.549-6.032c-0.452-0.691-0.956-1.357-1.433-2.031c-0.853-1.28-1.826-2.56-2.807-3.788
		c-0.623-0.768-1.263-1.527-1.92-2.287c-0.947-1.101-1.937-2.176-2.952-3.234c-0.717-0.734-1.425-1.485-2.167-2.201
		c-1.126-1.084-2.312-2.124-3.507-3.157c-0.7-0.606-1.365-1.229-2.09-1.817c-1.834-1.485-3.754-2.901-5.733-4.266
		c-0.853-0.614-1.834-1.177-2.764-1.758c-1.229-0.785-2.457-1.561-3.737-2.295c-1.075-0.614-2.176-1.194-3.285-1.775
		s-2.432-1.237-3.677-1.826c-1.246-0.589-2.329-1.084-3.515-1.595c-1.186-0.512-2.636-1.058-3.976-1.57
		c-1.177-0.444-2.338-0.904-3.541-1.314c-11.518-3.856-23.582-5.81-35.723-5.793c-40.842,0-75.499,21.39-88.399,51.191
		c-0.811,1.868-1.519,3.78-2.159,5.716C114.176,134.05,114.074,134.383,113.971,134.724z M145.121,145.065
		c0-9.428,7.636-17.064,17.064-17.064h85.319c9.428,0,17.064,7.636,17.064,17.064v17.064c0,18.847-15.281,34.128-34.128,34.128
		h-51.191c-18.847,0-34.128-15.281-34.128-34.128V145.065z"/>
	<path style="fill:#D3D6DB;" d="M93.93,196.256h32.891c-1.416-1.706-2.722-3.507-3.959-5.332c-0.486-0.717-0.939-1.45-1.399-2.184
		c-0.811-1.288-1.578-2.594-2.304-3.916c-0.41-0.751-0.853-1.502-1.203-2.261c-0.862-1.706-1.647-3.464-2.355-5.273
		c-0.137-0.341-0.307-0.665-0.435-1.007c-0.793-2.116-1.45-4.266-2.031-6.459c-0.179-0.691-0.324-1.382-0.478-2.082
		c-0.384-1.647-0.691-3.31-0.939-5c-0.102-0.7-0.213-1.391-0.29-2.099c-0.273-2.338-0.418-4.693-0.435-7.047
		c0.009-2.38,0.154-4.761,0.444-7.124c0.145-1.322,0.41-2.619,0.64-3.925c0.162-0.853,0.299-1.809,0.503-2.696
		c0.384-1.706,0.853-3.413,1.391-5.119c0.102-0.341,0.205-0.674,0.316-1.007c0.631-1.937,1.348-3.839,2.159-5.716H93.93
		c-9.428,0-17.064,7.636-17.064,17.064v34.128C76.875,188.62,84.511,196.256,93.93,196.256z"/>
</g>
<path style="fill:#5EC2FF;" d="M179.249,196.256h51.191c18.847,0,34.128-15.281,34.128-34.128v-17.064
	c0-9.428-7.636-17.064-17.064-17.064h-85.319c-9.428,0-17.064,7.636-17.064,17.064v17.064
	C145.121,180.976,160.402,196.256,179.249,196.256z"/>
<path style="fill:#FFC145;" d="M358.419,8.554c-51.516,0.009-99.141,27.379-125.086,71.881c2.457,0.64,4.872,1.357,7.235,2.167
	c1.203,0.41,2.363,0.853,3.541,1.314c1.34,0.512,2.67,1.015,3.976,1.57c1.305,0.555,2.355,1.049,3.515,1.595
	s2.474,1.194,3.677,1.826c1.203,0.631,2.21,1.16,3.285,1.775c1.28,0.734,2.508,1.51,3.737,2.295c0.93,0.58,1.868,1.143,2.764,1.758
	c1.979,1.357,3.899,2.773,5.733,4.266c0.725,0.589,1.391,1.212,2.09,1.817c1.194,1.032,2.38,2.073,3.507,3.157
	c0.742,0.725,1.45,1.459,2.167,2.201c1.015,1.058,2.005,2.133,2.952,3.234c0.657,0.759,1.297,1.51,1.92,2.287
	c0.981,1.237,1.911,2.508,2.807,3.788c0.478,0.674,0.981,1.34,1.433,2.031c1.28,1.962,2.474,3.976,3.549,6.032
	c0.205,0.401,0.367,0.811,0.563,1.212c0.538,1.075,1.041,2.15,1.519,3.251h22.456c9.428,0,17.064,7.636,17.064,17.064v34.128
	c0,9.428-7.636,17.064-17.064,17.064h-32.891c-3.362,4.078-7.099,7.824-11.168,11.194l0.435,0.307
	c28.437,20.314,50.176,48.632,62.445,81.352l3.003,8.003c79.27,11.561,152.9-43.325,164.461-122.587
	c11.561-79.261-43.325-152.9-122.595-164.461C372.488,9.058,365.458,8.546,358.419,8.554z"/>
<path d="M358.419,0.022c-52.258,0.196-100.864,26.85-129.122,70.815c-8.046-1.681-16.236-2.534-24.452-2.56
	c-41.892,0-77.939,21.099-93.774,51.191H93.93c-10.946,0.051-20.639,7.056-24.137,17.422c-42.199,3.831-73.298,41.141-69.475,83.34
	c3.217,35.442,30.391,64.023,65.627,69.023l-5.605,14.939c-0.828,2.278-0.631,4.795,0.538,6.919l-33.496,33.505
	c-9.94,9.957-9.923,26.082,0.034,36.013c8.25,8.233,21.048,9.82,31.056,3.839l18.77-11.254c2.269,12.704,14.41,21.168,27.114,18.89
	c6.169-1.101,11.629-4.633,15.17-9.795v78.946c-5.452,7.235-8.447,16.023-8.532,25.084c0,14.137,11.458,25.596,25.596,25.596h34.128
	c14.137,0,25.596-11.458,25.596-25.596c-0.017-4.053-0.631-8.071-1.817-11.945c0.725-0.904,1.254-1.945,1.561-3.063l8.788-35.134
	l8.788,35.151c0.307,1.118,0.836,2.159,1.561,3.063c-1.186,3.865-1.8,7.883-1.817,11.928c0,14.137,11.458,25.596,25.596,25.596
	H273.1c14.137,0,25.596-11.458,25.596-25.596c-0.085-9.061-3.08-17.849-8.532-25.084v-84.295
	c4.343,12.167,17.721,18.506,29.887,14.172c7.901-2.816,13.694-9.658,15.161-17.917l18.77,11.262
	c12.073,7.218,27.72,3.285,34.938-8.796c5.989-10.016,4.411-22.814-3.831-31.065l-35.552-35.561c0.188-0.7,0.273-1.425,0.273-2.15
	c2.892,0.171,5.776,0.264,8.617,0.264c84.816,0,153.574-68.759,153.574-153.574S443.235,0.022,358.419,0.022L358.419,0.022z
	 M204.845,85.342c47.045,0,85.319,30.621,85.319,68.255s-38.274,68.255-85.319,68.255s-85.319-30.621-85.319-68.255
	S157.8,85.342,204.845,85.342z M305.163,136.533h10.597c4.71,0,8.532,3.822,8.532,8.532v34.128c0,4.71-3.822,8.532-8.532,8.532
	h-17.141c5.614-10.503,8.566-22.217,8.609-34.128C307.228,147.846,306.537,142.113,305.163,136.533z M79.178,302.538l5.708-15.195
	c10.409-27.857,28.872-51.985,53.026-69.33c0.853,0.631,1.706,1.28,2.628,1.886l-18.907,100.83L79.178,302.538z M70.211,188.714
	c3.882,9.692,13.276,16.057,23.719,16.074h29.205c0.546,0.606,1.066,1.229,1.638,1.826c-12.252,9.232-23.181,20.101-32.472,32.302
	H76.866c-14.103,0.026-25.553-11.39-25.579-25.493C51.262,201.845,59.034,191.709,70.211,188.714z M156.273,228.678
	c12.661,5.631,26.219,8.976,40.04,9.88v68.614h17.064v-68.614c13.847-0.887,27.422-4.24,40.1-9.88L273.1,333.56v0.853l-30.578,6.826
	c-24.819,5.477-50.535,5.477-75.354,0l-30.578-6.766L156.273,228.678z M288.057,320.728l-1.604-8.532l-17.303-92.298
	c0.853-0.572,1.655-1.186,2.483-1.775c24.913,19.001,43.965,44.639,54.963,73.98l3.916,10.435L288.057,320.728z M85.398,145.065
	c0-4.71,3.822-8.532,8.532-8.532h10.597c-1.374,5.588-2.065,11.313-2.065,17.064c0.043,11.911,2.995,23.625,8.609,34.128H93.93
	c-4.71,0-8.532-3.822-8.532-8.532V145.065z M17.143,213.32c0.034-29.665,21.833-54.8,51.191-59.041v17.234
	c-23.087,4.684-38.001,27.208-33.317,50.296c4.044,19.896,21.543,34.187,41.849,34.17h4.147c-3.157,5.452-6.006,11.074-8.532,16.842
	C41.305,270.527,17.177,244.581,17.143,213.32z M106.293,371.084c-1.092,3.327-4.675,5.136-8.003,4.044
	c-2.611-0.853-4.377-3.293-4.36-6.041v-10.725c0-4.71-3.822-8.532-8.532-8.532c-1.544,0-3.063,0.418-4.394,1.22l-31.312,18.77
	c-4.019,2.329-9.163,0.964-11.501-3.054c-1.894-3.268-1.382-7.397,1.263-10.102l36.832-36.832l41.226,17.67L106.293,371.084z
	 M170.717,494.873h-34.128c-4.71,0-8.532-3.822-8.532-8.532c0.017-2.918,0.563-5.81,1.621-8.532h47.779
	c1.109,2.713,1.715,5.605,1.792,8.532C179.249,491.051,175.427,494.873,170.717,494.873z M213.121,398.949
	c-1.143-4.573-5.776-7.346-10.349-6.203c-3.054,0.768-5.435,3.148-6.203,6.203l-15.451,61.797h-44.528V351.938l26.884,5.972
	c27.259,6.024,55.5,6.024,82.76,0l26.884-5.972v108.807h-44.545L213.121,398.949z M273.1,494.873h-34.128
	c-4.71,0-8.532-3.822-8.532-8.532c0.068-2.926,0.665-5.819,1.766-8.532h47.779c1.066,2.722,1.621,5.614,1.647,8.532
	C281.632,491.051,277.81,494.873,273.1,494.873z M373.017,368.601c-2.722,2.722-6.936,3.242-10.238,1.263l-31.321-18.77
	c-4.027-2.44-9.274-1.152-11.714,2.875c-0.802,1.322-1.229,2.841-1.237,4.394v10.725c0,3.498-2.841,6.339-6.348,6.331
	c-2.73,0-5.145-1.749-6.006-4.334l-11.535-34.597l40.765-17.465l37.634,37.634c3.302,3.276,3.319,8.6,0.051,11.893
	C373.051,368.567,373.034,368.584,373.017,368.601z M343.736,289.254l-1.16-3.114c-11.706-31.201-31.679-58.631-57.778-79.347
	c0.606-0.64,1.169-1.305,1.758-1.962h29.205c14.137,0,25.596-11.458,25.596-25.596v-34.17c0-14.137-11.458-25.596-25.596-25.596
	h-17.141c-11.441-20.451-29.973-36.005-52.104-43.726c43.018-61.848,128.038-77.12,189.886-34.093s77.111,128.038,34.094,189.886
	C441.989,272.515,393.366,294.655,343.736,289.254z"/>
<rect x="17.151" y="0.022" width="17.064" height="17.064"/>
<rect x="0.079" y="17.044" width="17.064" height="17.064"/>
<rect x="34.215" y="17.044" width="17.064" height="17.064"/>
<rect x="17.151" y="34.107" width="17.064" height="17.064"/>
<rect x="170.726" y="8.512" width="17.064" height="17.064"/>
<rect x="477.874" y="273.086" width="17.064" height="17.064"/>
<rect x="460.811" y="290.15" width="17.064" height="17.064"/>
<rect x="494.938" y="290.15" width="17.064" height="17.064"/>
<rect x="477.874" y="307.214" width="17.064" height="17.064"/>
<rect x="230.449" y="247.405" width="17.064" height="17.064"/>
<rect x="230.449" y="273.086" width="17.064" height="17.064"/>
<path d="M179.249,204.788h51.191c23.548-0.026,42.634-19.111,42.66-42.66v-17.064c0-14.137-11.458-25.596-25.596-25.596h-85.319
	c-14.137,0-25.596,11.458-25.596,25.596v17.064C136.615,185.677,155.701,204.754,179.249,204.788z M153.653,145.065
	c0-4.71,3.822-8.532,8.532-8.532h85.319c4.71,0,8.532,3.822,8.532,8.532v17.064c0,14.137-11.458,25.596-25.596,25.596h-51.191
	c-14.137,0-25.596-11.458-25.596-25.596V145.065z"/>
<rect x="418.151" y="460.788" width="17.064" height="17.064"/>
<rect x="401.087" y="477.852" width="17.064" height="17.064"/>
<rect x="435.215" y="477.852" width="17.064" height="17.064"/>
<rect x="418.151" y="494.916" width="17.064" height="17.064"/>
<path d="M375.483,93.873c18.847,0,34.128-15.281,34.128-34.128h-17.064c0,9.428-7.636,17.064-17.064,17.064h-17.064
	c-9.428,0-17.064-7.636-17.064-17.064h-17.064c0,18.847,15.281,34.128,34.128,34.128H375.483z"/>
<path d="M418.143,145.065v8.532c0,18.847,15.281,34.128,34.128,34.128v-17.064c-9.428,0-17.064-7.636-17.064-17.064v-8.532
	c0-9.428,7.636-17.064,17.064-17.064v-17.064C433.423,110.937,418.143,126.218,418.143,145.065z"/>
<path d="M392.547,204.788c-19.137,0-34.128,11.245-34.128,25.596c0,14.351,14.991,25.596,34.128,25.596
	c19.137,0,34.128-11.245,34.128-25.596C426.674,216.033,411.684,204.788,392.547,204.788z M392.547,238.916
	c-10.417,0-17.064-5.051-17.064-8.532c0-3.481,6.646-8.532,17.064-8.532c10.417,0,17.064,5.051,17.064,8.532
	C409.611,233.865,402.964,238.916,392.547,238.916z"/>
<rect x="324.3" y="34.107" width="17.064" height="17.064"/>
<g>
</g>
<g>
</g>
<g>
</g>
<g>
</g>
<g>
</g>
<g>
</g>
<g>
</g>
<g>
</g>
<g>
</g>
<g>
</g>
<g>
</g>
<g>
</g>
<g>
</g>
<g>
</g>
<g>
</g>
</svg>
