<svg id="Layer_1" enable-background="new 0 0 512 512" height="512" viewBox="0 0 512 512" width="512" xmlns="http://www.w3.org/2000/svg"><g><path d="m372.47 212.664-42.426 42.426-150.714-150.713c-6.804-6.804-6.766-17.874.085-24.725 3.994-3.994 9.653-5.834 15.205-4.943l35.278 5.66c7.959 1.277 15.299 5.023 20.986 10.709z" fill="#f1f1f1"/><path d="m229.898 80.368-35.277-5.66c-5.552-.891-11.211.949-15.205 4.943-4.482 4.482-6.029 10.767-4.67 16.485l33.94 5.445c7.959 1.277 15.299 5.023 20.986 10.709l121.586 121.586 21.213-21.213-121.587-121.586c-5.687-5.686-13.027-9.432-20.986-10.709z" fill="#e2e2e2"/><path d="m250.884 91.077c-5.686-5.686-13.027-9.432-20.986-10.709l-29.742-4.772 33.068 33.068c7.09 7.09 18.584 7.09 25.673 0l4.787-4.787z" fill="#426778"/><path d="m331.863 229.484h60v30h-60z" fill="#497285" transform="matrix(.707 -.707 .707 .707 -66.889 327.484)"/><path d="m357.47 218.877h30v30h-30z" fill="#426778" transform="matrix(.707 -.707 .707 .707 -56.282 331.877)"/><path d="m362.932 296.72-66.211 66.211c-2.414 2.414-6.328 2.414-8.742 0l-264.956-264.954c-20.698-20.698-20.698-54.255 0-74.953 20.698-20.698 54.255-20.698 74.953 0l264.955 264.955c2.415 2.413 2.415 6.327.001 8.741z" fill="#f1f1f1"/><path d="m23.023 23.023c-3.685 3.685-6.702 7.783-9.074 12.139 20.106-10.954 45.802-7.938 62.815 9.074l264.955 264.955c2.414 2.414 2.414 6.328 0 8.742l21.213-21.213c2.414-2.414 2.414-6.328 0-8.742l-264.955-264.955c-20.698-20.697-54.256-20.697-74.954 0z" fill="#e2e2e2"/><path d="m406.274 342.637-63.636 63.636c-2.859 2.859-7.654 2.224-9.67-1.281l-28.597-49.711 50.912-50.912 49.711 28.597c3.504 2.017 4.139 6.812 1.28 9.671z" fill="#497285"/><path d="m404.993 332.967-49.711-28.597-21.213 21.213 49.711 28.597c3.505 2.016 4.14 6.811 1.281 9.67l21.213-21.213c2.859-2.859 2.224-7.654-1.281-9.67z" fill="#426778"/><path d="m165.538 153.538h106v130h-106z" fill="#f55632" transform="matrix(.707 -.707 .707 .707 -90.522 218.538)"/><path d="m230.408 126.668h30v130h-30z" fill="#e13629" transform="matrix(.707 -.707 .707 .707 -63.652 229.668)"/><path d="m413.482 199.936-31.904 21.836-29.451-29.451 44.994-8.746z" fill="#f1f1f1"/><path d="m351.14 233.994-21.096 21.096-69.301-69.301c-5.826-5.826-5.826-15.271 0-21.096 5.826-5.826 15.271-5.826 21.096 0z" fill="#63e5ff"/><path d="m406.274 342.637 8.381 4.466c55.299 29.469 89.846 87.026 89.846 149.687v4.979c0 1.508-1.223 2.731-2.731 2.731h-3.282c-57.501 0-111.087-29.133-142.352-77.392l-13.498-20.835z" fill="#ffd54f"/><path d="m414.655 347.104-8.381-4.466-10.78 10.78c48.932 30.912 79.007 84.916 79.007 143.373v4.979c0 .347-.071.675-.189.981 7.947 1.144 16.02 1.75 24.176 1.75h3.282c1.508 0 2.731-1.223 2.731-2.731v-4.979c-.001-62.662-34.548-120.218-89.846-149.687z" fill="#ffc128"/><g><path d="m126.678 178.514c1.465 1.464 3.385 2.197 5.304 2.197s3.839-.732 5.304-2.197l15.447-15.447c2.929-2.929 2.929-7.678 0-10.606-2.93-2.929-7.678-2.929-10.607 0l-15.447 15.447c-2.93 2.928-2.93 7.677-.001 10.606z"/><path d="m126.314 136.65-15.447 15.448c-2.929 2.929-2.929 7.678.001 10.606 1.464 1.465 3.384 2.197 5.303 2.197s3.839-.732 5.304-2.197l15.447-15.448c2.929-2.929 2.929-7.678-.001-10.606-2.928-2.93-7.677-2.929-10.607 0z"/><path d="m81.151 96.327c-2.93-2.929-7.678-2.929-10.607 0s-2.929 7.678 0 10.606l28.067 28.067c1.465 1.464 3.385 2.197 5.304 2.197 1.92 0 3.839-.732 5.304-2.197 2.929-2.929 2.929-7.678 0-10.606z"/><path d="m496.962 425.368c-1.67-3.791-6.097-5.507-9.888-3.837-3.79 1.671-5.508 6.098-3.837 9.888 9.132 20.716 13.763 42.71 13.763 65.371v.203c-54.615-.491-104.833-28.061-134.57-73.962l-10.199-15.743 55.418-55.419 3.478 1.853c22.916 12.212 42.786 29.983 57.465 51.394 2.342 3.416 7.008 4.289 10.427 1.945 3.416-2.342 4.287-7.01 1.944-10.427-16.036-23.392-37.745-42.809-62.781-56.15l-2.647-1.411c.047-.85.035-1.708-.08-2.573-.563-4.243-3.013-7.901-6.722-10.035l-41.225-23.716.727-.727c5.334-5.334 5.334-14.014 0-19.348l-6.372-6.372 37.124-37.124c1.406-1.406 2.196-3.314 2.196-5.303s-.79-3.897-2.197-5.303l-5.716-5.716 24.448-16.733c1.841-1.26 3.025-3.274 3.231-5.496.206-2.221-.587-4.419-2.164-5.997l-16.361-16.361c-1.763-1.763-4.288-2.533-6.734-2.059l-41.08 7.985-46.962-46.963c-2.929-2.929-7.677-2.929-10.607 0-2.929 2.929-2.929 7.678 0 10.606l49.781 49.782s0 .001.001.001l15.04 15.04-10.723 10.724-63.997-63.997c-4.234-4.234-9.863-6.566-15.852-6.566s-11.617 2.332-15.852 6.566c-1.84 1.84-3.269 3.931-4.334 6.155l-66.472-66.472c-3.869-3.869-3.831-10.203.085-14.119 2.287-2.288 5.551-3.351 8.713-2.841l3.138.503 31.352 31.351c4.846 4.845 11.287 7.514 18.14 7.514 6.609 0 12.831-2.488 17.611-7.01l10.744 10.744c2.93 2.929 7.678 2.929 10.607 0s2.929-7.678 0-10.606l-28.835-28.835c-6.845-6.845-15.524-11.275-25.101-12.811l-35.279-5.66c-7.907-1.268-16.016 1.366-21.696 7.045-2.525 2.525-4.393 5.458-5.617 8.586l-65.215-65.212c-11.426-11.427-26.62-17.72-42.78-17.72s-31.354 6.293-42.78 17.72-17.72 26.62-17.72 42.78 6.293 31.353 17.72 42.78l20.816 20.816c2.93 2.929 7.678 2.929 10.607 0s2.929-7.678 0-10.606l-20.816-20.817c-8.595-8.593-13.327-20.02-13.327-32.173s4.732-23.58 13.327-32.173c8.593-8.594 20.02-13.327 32.173-13.327s23.58 4.733 32.173 13.327l81.351 81.351c.001.001.002.002.003.003l25.419 25.419-64.346 64.346-63.384-63.384c-2.93-2.929-7.678-2.929-10.607 0s-2.929 7.678 0 10.606l68.686 68.686s.001.001.001.002l91.924 91.924c.001.001.002.002.004.003l60.951 60.951c2.668 2.667 6.171 4.001 9.675 4.001s7.007-1.333 9.675-4.001l.727-.727 23.715 41.224c2.134 3.71 5.791 6.16 10.034 6.722.612.081 1.222.121 1.828.121.455 0 .907-.023 1.355-.068l10.157 15.679c32.783 50.604 88.351 80.815 148.646 80.815h3.282c5.641 0 10.23-4.59 10.23-10.231v-4.979c.001-24.757-5.059-48.787-15.037-71.422zm-251.382-328.987 7.472 7.472c-1.939 1.695-4.391 2.629-6.992 2.629-2.846 0-5.521-1.108-7.532-3.12l-16.691-16.69 6.872 1.103c6.44 1.032 12.273 4.008 16.871 8.606zm105.677 169.316-10.606-10.606 31.819-31.82 3.804 3.804c.001.001.002.002.004.003l6.799 6.798zm43.381-73.999 7.152 7.152-19.311 13.217-4.706-4.706-10.369-10.369zm-128.591-21.701c1.4-1.401 3.263-2.172 5.244-2.172s3.844.771 5.244 2.172l63.998 63.997-10.49 10.49-63.997-63.997c-2.892-2.893-2.892-7.598.001-10.49zm-55.995-24.291 81.318 81.317-64.346 64.347-81.317-81.317zm27.578 156.271 26.37-26.37 22.763 22.763c1.465 1.465 3.384 2.197 5.304 2.197 1.919 0 3.839-.732 5.304-2.197 2.929-2.929 2.929-7.678 0-10.606l-22.764-22.764 27.369-27.369 25.14 25.14 18.836 18.837c.002.002.003.003.005.004l10.738 10.738-6.715 6.715c-.001.001-.002.002-.003.003l-50.912 50.912c-.002.002-.003.004-.005.006l-6.711 6.711zm76.106 54.546 42.786-42.786 43.196 24.849-61.133 61.133z"/></g></g></svg>