<?xml version="1.0" encoding="iso-8859-1"?>
<!-- Generator: Adobe Illustrator 19.0.0, SVG Export Plug-In . SVG Version: 6.00 Build 0)  -->
<svg version="1.1" id="Capa_1" xmlns="http://www.w3.org/2000/svg" xmlns:xlink="http://www.w3.org/1999/xlink" x="0px" y="0px"
	 viewBox="0 0 512 512" style="enable-background:new 0 0 512 512;" xml:space="preserve">
<circle style="fill:#ECEEFF;" cx="178" cy="178.01" r="168"/>
<path style="fill:#9AA9FF;" d="M491.309,491.32L491.309,491.32c-14.254,14.254-37.365,14.254-51.619,0L326.547,378.176
	c-6.049-6.049-6.049-15.857,0-21.907l29.712-29.712c6.049-6.049,15.857-6.049,21.907,0L491.31,439.701
	C505.564,453.955,505.564,477.066,491.309,491.32z"/>
<path style="fill:#FFFFFF;" d="M403.809,352.201l-25.644-25.644c-6.049-6.049-15.857-6.049-21.907,0l-29.712,29.712
	c-6.049,6.049-6.049,15.857,0,21.907l25.644,25.644L403.809,352.201z"/>
<circle style="fill:#FFDFAD;" cx="176" cy="176.01" r="112"/>
<circle style="fill:#C8D0FF;" cx="99.07" cy="442.02" r="60"/>
<circle style="fill:#FE7A77;" cx="450" cy="62.01" r="52"/>
<rect x="424.677" y="232.815" transform="matrix(-0.7071 0.7071 -0.7071 -0.7071 945.8954 120.4689)" style="fill:#ECEEFF;" width="46.642" height="46.642"/>
<path d="M176,54.011c-56.828,0-104.704,39.057-118.199,91.737c-0.077,0.27-0.147,0.543-0.201,0.822
	c-2.346,9.433-3.6,19.293-3.6,29.441c0,67.271,54.729,122,122,122s122-54.729,122-122S243.271,54.011,176,54.011z M264.16,227.261
	h-97.91c-5.523,0-10,4.477-10,10c0,5.523,4.477,10,10,10h82.663c-18.532,18.96-44.369,30.75-72.913,30.75
	c-56.243,0-102-45.757-102-102c0-5.974,0.521-11.829,1.511-17.524h43.544c2.336,0,3.633,1.39,4.197,2.219
	c0.565,0.829,1.385,2.544,0.531,4.719l-0.697,1.774c-3.034,7.727-2.055,16.435,2.621,23.294
	c4.676,6.859,12.423,10.955,20.724,10.955h37.825c5.523,0,10-4.477,10-10c0-5.523-4.477-10-10-10h-37.825
	c-2.336,0-3.633-1.39-4.198-2.219c-0.565-0.829-1.385-2.544-0.531-4.719l0.697-1.774c3.034-7.727,2.055-16.435-2.621-23.294
	s-12.423-10.955-20.724-10.955H81.152C96.131,100.757,133,74.011,176,74.011c33.077,0,62.522,15.83,81.171,40.308h-59.167
	c-5.523,0-10,4.477-10,10s4.477,10,10,10h71.08c5.727,12.735,8.917,26.848,8.917,41.692C278,194.681,272.953,212.192,264.16,227.261
	z"/>
<path d="M445.64,384.03c-2.63,0-5.21,1.07-7.07,2.931c-1.86,1.869-2.93,4.439-2.93,7.069s1.07,5.21,2.93,7.08
	c1.86,1.86,4.44,2.92,7.07,2.92s5.21-1.06,7.07-2.92c1.87-1.87,2.93-4.439,2.93-7.08c0-2.63-1.06-5.21-2.93-7.069
	C450.85,385.101,448.27,384.03,445.64,384.03z"/>
<path d="M477.213,411.464c-3.905-3.904-10.237-3.904-14.142,0c-3.905,3.905-3.905,10.237,0,14.143l21.167,21.166
	c5.005,5.005,7.762,11.659,7.762,18.738s-2.756,13.733-7.761,18.738c-10.333,10.332-27.145,10.334-37.477,0l-80.428-80.429
	l37.476-37.476l9.762,9.762c3.906,3.904,10.237,3.905,14.143,0c3.905-3.905,3.905-10.237,0-14.143l-42.477-42.478
	c-4.814-4.814-11.216-7.466-18.024-7.466c-6.809,0-13.21,2.651-18.025,7.466l-7.785,7.785l-30.731-30.731
	C338.843,265.042,356,223.495,356,178.011c0-98.149-79.851-178-178-178s-178,79.85-178,178s79.851,178,178,178
	c45.484,0,87.031-17.157,118.53-45.328l30.731,30.731l-7.785,7.786c-4.814,4.814-7.466,11.216-7.466,18.023
	c0,6.81,2.652,13.21,7.466,18.024l25.635,25.635c0.003,0.003,0.005,0.006,0.008,0.009s0.006,0.005,0.009,0.008l87.491,87.492
	c9.065,9.064,20.973,13.598,32.88,13.598s23.815-4.533,32.881-13.598c18.13-18.131,18.13-47.631,0-65.762L477.213,411.464z
	 M20,178.011c0-87.122,70.878-158,158-158s158,70.878,158,158c0,87.121-70.878,158-158,158S20,265.132,20,178.011z M332.01,367.223
	c0-1.466,0.571-2.845,1.608-3.882l29.712-29.713c1.037-1.036,2.416-1.607,3.882-1.607s2.845,0.571,3.882,1.608l18.573,18.573
	l-37.476,37.476l-18.573-18.573C332.581,370.067,332.01,368.689,332.01,367.223z"/>
<path d="M162.915,411.064c-0.406-0.125-0.813-0.214-1.221-0.286c-3.28-6.589-7.643-12.771-13.127-18.255
	c-13.222-13.221-30.8-20.502-49.498-20.502s-36.276,7.281-49.498,20.502c-5.499,5.499-9.953,11.76-13.301,18.534
	c-0.818,0.05-1.643,0.189-2.459,0.452C5.866,420.488,0,433.058,0,442.021c0,14.634,15.067,24.949,36.457,31.333
	c3.327,6.631,7.716,12.766,13.115,18.165c13.646,13.646,31.572,20.469,49.498,20.469c17.925,0,35.851-6.823,49.497-20.469l0,0
	c5.456-5.456,9.802-11.603,13.076-18.153c21.411-6.383,36.495-16.703,36.495-31.345
	C198.139,432.857,192.028,420.049,162.915,411.064z M63.714,406.666c9.444-9.444,22-14.645,35.355-14.645s25.911,5.2,35.355,14.645
	c13.472,13.472,17.629,32.782,12.481,49.862c-13.923,3.127-30.479,4.819-47.836,4.819s-33.913-1.692-47.836-4.819
	C46.085,439.448,50.242,420.138,63.714,406.666z M20,442.035c0.099-0.764,2.23-3.799,9.456-7.351
	c-0.251,2.422-0.386,4.869-0.386,7.337c0,2.469,0.135,4.917,0.386,7.34C22.233,445.815,20.099,442.787,20,442.035z M65.759,479.304
	c10.835,1.372,22.172,2.043,33.31,2.043c11.139,0,22.475-0.671,33.311-2.043C113.466,496.221,84.673,496.222,65.759,479.304z
	 M168.64,449.382c0.513-4.894,0.513-9.829,0-14.723c7.242,3.548,9.399,6.584,9.5,7.349
	C178.04,442.781,175.897,445.825,168.64,449.382z"/>
<path d="M450,124.011c34.187,0,62-27.813,62-62s-27.813-62-62-62s-62,27.813-62,62S415.813,124.011,450,124.011z M450,20.011
	c23.159,0,42,18.841,42,42s-18.841,42-42,42s-42-18.841-42-42S426.841,20.011,450,20.011z"/>
<path d="M488.052,249.066l-32.981-32.981c-3.905-3.905-10.237-3.905-14.143,0l-32.981,32.981c-3.905,3.905-3.905,10.237,0,14.143
	l32.981,32.981c1.875,1.875,4.419,2.929,7.071,2.929s5.196-1.054,7.071-2.929l32.981-32.981
	C491.957,259.304,491.957,252.972,488.052,249.066z M448,274.977l-18.839-18.839L448,237.299l18.839,18.839L448,274.977z"/>
<path d="M230.1,184.38c-1.86-1.87-4.44-2.93-7.07-2.93c-2.64,0-5.22,1.06-7.08,2.93c-1.86,1.86-2.92,4.43-2.92,7.07
	c0,2.63,1.06,5.21,2.92,7.07c1.87,1.86,4.44,2.93,7.08,2.93c2.63,0,5.21-1.07,7.07-2.93s2.93-4.44,2.93-7.07
	C233.03,188.811,231.96,186.241,230.1,184.38z"/>
<path d="M280,445.011c-2.63,0-5.21,1.069-7.07,2.93c-1.86,1.86-2.93,4.44-2.93,7.07s1.07,5.21,2.93,7.069
	c1.86,1.86,4.44,2.931,7.07,2.931s5.21-1.07,7.07-2.931c1.86-1.859,2.93-4.439,2.93-7.069s-1.07-5.21-2.93-7.07
	S282.63,445.011,280,445.011z"/>
<path d="M426.07,177.041c1.86-1.86,2.93-4.44,2.93-7.07s-1.07-5.21-2.93-7.08c-1.86-1.86-4.44-2.92-7.07-2.92s-5.21,1.06-7.07,2.92
	c-1.86,1.87-2.93,4.45-2.93,7.08s1.07,5.21,2.93,7.07c1.86,1.86,4.44,2.93,7.07,2.93S424.21,178.9,426.07,177.041z"/>
<path d="M496.07,367.631c2.63,0,5.21-1.061,7.07-2.931c1.86-1.859,2.93-4.439,2.93-7.069s-1.07-5.21-2.93-7.07
	c-1.86-1.86-4.44-2.93-7.07-2.93c-2.64,0-5.21,1.069-7.08,2.93c-1.86,1.86-2.92,4.44-2.92,7.07c0,2.64,1.06,5.21,2.92,7.069
	C490.86,366.57,493.44,367.631,496.07,367.631z"/>
<g>
</g>
<g>
</g>
<g>
</g>
<g>
</g>
<g>
</g>
<g>
</g>
<g>
</g>
<g>
</g>
<g>
</g>
<g>
</g>
<g>
</g>
<g>
</g>
<g>
</g>
<g>
</g>
<g>
</g>
</svg>
