<?xml version="1.0" encoding="iso-8859-1"?>
<!-- Generator: Adobe Illustrator 19.0.0, SVG Export Plug-In . SVG Version: 6.00 Build 0)  -->
<svg version="1.1" id="Capa_1" xmlns="http://www.w3.org/2000/svg" xmlns:xlink="http://www.w3.org/1999/xlink" x="0px" y="0px"
	 viewBox="0 0 512 512" style="enable-background:new 0 0 512 512;" xml:space="preserve">
<circle style="fill:#FFD189;" cx="394.5" cy="117.5" r="98.36"/>
<circle style="fill:#ECEEFF;" cx="154" cy="357.99" r="144"/>
<g>
	<path style="fill:#BDED7E;" d="M154,213.992c-2.815,0-5.609,0.09-8.384,0.249v40.57c0,6.747,2.699,13.213,7.496,17.957
		l13.271,13.126c4.728,4.677,11.11,7.3,17.761,7.3h22.43c4.645,0,9.064,2.008,12.119,5.509l32.648,37.409
		c1.174,1.345,2.872,2.117,4.658,2.117h10.66c3.414,0,6.182,2.768,6.182,6.182v15.003c0,1.639,0.651,3.212,1.811,4.371
		l19.998,19.998l0.864,0.939c1.626-8.663,2.487-17.595,2.487-26.73C298,278.463,233.529,213.992,154,213.992z"/>
	<path style="fill:#BDED7E;" d="M10,357.992c0,24.688,6.217,47.922,17.164,68.229c3.54-2.317,6.015-3.966,6.015-3.966l16.369-28.669
		c2.38-4.168,6.812-6.741,11.612-6.741h20.51c3.546,0,6.947-1.409,9.455-3.916l20.504-20.504c2.91-2.91,4.545-6.857,4.545-10.972
		v-18.724c0-8.57-6.947-15.516-15.517-15.516H69.733c-8.57,0-15.516-6.947-15.516-15.517v-47.519
		C26.964,280.378,10,317.202,10,357.992z"/>
	<path style="fill:#BDED7E;" d="M289.564,406.646l-1.439-1.275l-41.487,5.186l-13.019,37.538c-2.01,5.795-7.47,9.681-13.604,9.681
		l0,0c-5.29,0-10.153-2.9-12.668-7.554l-11.716-21.683c-3.215-5.949-9.433-9.657-16.195-9.657l0,0
		c-15.079,0-29.54,5.99-40.202,16.652l-6.675,6.675c-5.819,5.819-7.069,14.794-3.061,21.982l21.053,37.756l0.003,0.001
		c1.146,0.027,2.294,0.044,3.447,0.044C216.452,501.992,269.611,462.232,289.564,406.646z"/>
</g>
<circle style="fill:#9AA9FF;" cx="446" cy="366.65" r="56"/>
<rect x="19.66" y="40.666" transform="matrix(-0.7071 0.7071 -0.7071 -0.7071 118.6178 78.84)" style="fill:#ECEEFF;" width="46.642" height="46.642"/>
<path d="M154,203.992c-2.296,0-4.579,0.06-6.851,0.16c-0.501-0.077-1.01-0.13-1.533-0.13c-0.923,0-1.812,0.135-2.661,0.369
	c-36.249,2.581-69.064,17.765-94.089,41.182c-1.135,0.721-2.117,1.659-2.88,2.764C17.618,276.286,0,315.118,0,357.992
	c0,83.758,67.213,152.107,150.535,153.956c0.008,0,0.016,0.001,0.023,0.001c0.005,0,0.011-0.001,0.017-0.001
	c1.139,0.025,2.28,0.043,3.425,0.043c84.916,0,154-69.084,154-154S238.916,203.992,154,203.992z M44.216,281.25v20.445
	c0,14.07,11.446,25.517,25.517,25.517h30.925c3.041,0,5.516,2.475,5.516,5.517v18.724c0,1.474-0.574,2.86-1.615,3.901
	l-20.503,20.503c-0.637,0.637-1.484,0.988-2.385,0.988H61.16c-8.368,0-16.145,4.514-20.297,11.783l-11.128,19.49
	C23.463,392.625,20,375.706,20,357.992C20,329.468,28.965,303.002,44.216,281.25z M40.464,429.082
	c0.523-0.559,1.003-1.174,1.399-1.869l16.368-28.667c0.599-1.049,1.722-1.701,2.929-1.701h20.51c6.242,0,12.111-2.431,16.526-6.845
	l20.505-20.505c4.818-4.82,7.472-11.227,7.472-18.042v-18.724c0-14.07-11.446-25.517-25.516-25.517H69.732
	c-3.042,0-5.517-2.475-5.517-5.517v-43.089c19.48-17.616,44.146-29.592,71.4-33.348v29.552c0,9.354,3.814,18.49,10.464,25.067
	l13.271,13.126c6.644,6.571,15.449,10.19,24.793,10.19h22.431c1.758,0,3.429,0.759,4.584,2.083l32.647,37.409
	c3.074,3.522,7.519,5.542,12.193,5.542h6.841v11.185c0,4.324,1.685,8.389,4.74,11.442l17.05,17.05
	c-0.625,2.73-1.339,5.426-2.128,8.09l-37.104,4.638c-3.778,0.472-6.96,3.049-8.208,6.646l-13.019,37.538
	c-0.613,1.769-2.283,2.958-4.155,2.958c-1.618,0-3.102-0.884-3.87-2.308l-11.717-21.683c-4.967-9.193-14.544-14.903-24.993-14.903
	c-17.858,0-34.646,6.954-47.273,19.582l-6.675,6.675c-8.936,8.936-10.879,22.886-4.725,33.923l11.828,21.213
	C93.823,484.022,60.573,461.083,40.464,429.082z M156.431,491.961l-18.2-32.64c-1.822-3.267-1.247-7.396,1.398-10.041l6.675-6.675
	c8.849-8.85,20.615-13.723,33.131-13.723c3.093,0,5.928,1.69,7.397,4.411l11.717,21.683c4.267,7.895,12.491,12.8,21.466,12.8
	c10.385,0,19.648-6.592,23.052-16.404l10.98-31.663l20.143-2.518C252.632,460.784,208.05,491.037,156.431,491.961z M287.901,362.892
	l-5.061-5.061V344.41c0-8.922-7.259-16.182-16.182-16.182h-8.924l-31.507-36.101c-4.954-5.678-12.117-8.934-19.653-8.934h-22.431
	c-4.043,0-7.854-1.566-10.729-4.41l-13.271-13.126c-2.878-2.846-4.528-6.8-4.528-10.847v-30.798
	C228.761,224.883,288,284.645,288,357.992C288,359.633,287.96,361.265,287.901,362.892z"/>
<path d="M446,300.65c-36.393,0-66,29.607-66,66s29.607,66,66,66s66-29.607,66-66S482.393,300.65,446,300.65z M446,412.65
	c-25.364,0-46-20.636-46-46s20.636-46,46-46s46,20.636,46,46S471.364,412.65,446,412.65z"/>
<path d="M360.992,220.55c10.557,3.441,21.817,5.309,33.508,5.309c59.751,0,108.361-48.611,108.361-108.361
	c0-11.69-1.868-22.951-5.31-33.508c1.269-2.466,2.489-4.919,3.606-7.339c13.914-30.147,14.361-53.966,1.258-67.069
	c-6.391-6.39-18.834-12.907-41.85-7.653c-8.743,1.996-18.368,5.534-28.607,10.518c-1.19,0.58-2.209,1.368-3.045,2.295
	c-10.817-3.632-22.389-5.604-34.414-5.604c-59.751,0-108.361,48.611-108.361,108.361c0,38.748,20.448,72.805,51.115,91.964
	c-17.904,6.922-31.062,7.274-36.527,1.81c-3.59-3.59-3.956-9.944-3.63-14.642c0.381-5.51-3.775-10.286-9.285-10.667
	c-5.504-0.373-10.285,3.775-10.667,9.285c-1.11,16.021,4.521,25.247,9.439,30.167c6.346,6.345,15.202,9.513,26.075,9.513
	c11.579,0,25.446-3.594,40.994-10.771C356.074,223.039,358.526,221.818,360.992,220.55z M482.861,117.498
	c0,48.723-39.639,88.361-88.361,88.361c-2.78,0-5.528-0.135-8.243-0.388c17.561-11.872,35.474-26.758,52.466-43.75
	s31.878-34.905,43.75-52.466C482.726,111.97,482.861,114.718,482.861,117.498z M465.018,21.427
	c11.005-2.513,19.264-1.696,23.256,2.297c5.602,5.602,4.811,19.213-1.848,36.466c-8.758-13.998-20.62-25.86-34.618-34.618
	C456.476,23.764,460.899,22.367,465.018,21.427z M306.139,117.498c0-48.723,39.639-88.361,88.361-88.361
	c36.299,0,67.552,22.004,81.131,53.373c-12.078,21.177-29.78,43.8-51.05,65.07c-23.208,23.208-45.628,40.035-64.994,51.084
	C328.179,185.1,306.139,153.827,306.139,117.498z"/>
<path d="M35.91,104.044c1.876,1.875,4.419,2.929,7.071,2.929s5.195-1.054,7.071-2.929l32.98-32.981
	c3.905-3.905,3.905-10.237,0-14.142L50.053,23.94c-1.876-1.875-4.419-2.929-7.071-2.929s-5.195,1.054-7.071,2.929L2.929,56.921
	C1.054,58.796,0,61.34,0,63.992c0,2.652,1.054,5.196,2.929,7.071L35.91,104.044z M42.981,45.153L61.82,63.992L42.981,82.831
	L24.143,63.992L42.981,45.153z"/>
<path d="M390.183,471.992H380.5v-10c0-5.523-4.478-10-10-10s-10,4.477-10,10v10h-9.683c-5.522,0-10,4.477-10,10s4.478,10,10,10
	h9.683v10c0,5.523,4.478,10,10,10s10-4.477,10-10v-10h9.683c5.522,0,10-4.477,10-10S395.705,471.992,390.183,471.992z"/>
<path d="M165.616,107.498c-16.542,0-30,13.458-30,30s13.458,30,30,30s30-13.458,30-30S182.158,107.498,165.616,107.498z
	 M165.616,147.498c-5.514,0-10-4.486-10-10s4.486-10,10-10s10,4.486,10,10S171.13,147.498,165.616,147.498z"/>
<path d="M468,247.102c-1.87,1.86-2.931,4.44-2.931,7.08c0,2.63,1.061,5.21,2.931,7.07c1.859,1.86,4.439,2.93,7.069,2.93
	c2.631,0,5.21-1.07,7.07-2.93s2.93-4.44,2.93-7.07c0-2.64-1.069-5.22-2.93-7.08s-4.439-2.92-7.07-2.92
	C472.439,244.182,469.859,245.242,468,247.102z"/>
<path d="M350.33,320.652c2.64,0,5.21-1.07,7.069-2.93c1.87-1.86,2.931-4.44,2.931-7.07s-1.061-5.21-2.931-7.07
	c-1.859-1.86-4.43-2.93-7.069-2.93c-2.63,0-5.21,1.07-7.07,2.93s-2.93,4.44-2.93,7.07s1.069,5.21,2.93,7.07
	C345.12,319.582,347.7,320.652,350.33,320.652z"/>
<path d="M222.81,59.992c2.63,0,5.21-1.07,7.07-2.93s2.93-4.44,2.93-7.07s-1.069-5.21-2.93-7.07c-1.86-1.86-4.44-2.93-7.07-2.93
	c-2.64,0-5.21,1.07-7.069,2.93c-1.86,1.86-2.931,4.44-2.931,7.07s1.07,5.21,2.931,7.07C217.6,58.922,220.18,59.992,222.81,59.992z"
	/>
<path d="M137.003,59.992H185c5.522,0,10-4.477,10-10s-4.478-10-10-10h-47.997c-5.522,0-10,4.477-10,10S131.48,59.992,137.003,59.992
	z"/>
<path d="M394.5,53.998l-0.36,0.001c-5.522,0.026-9.979,4.524-9.953,10.047c0.025,5.507,4.498,9.953,9.999,9.953
	c0.016,0,0.032,0,0.048,0l0.267-0.001c5.522,0,10-4.477,10-10S400.022,53.998,394.5,53.998z"/>
<path d="M356.554,66.579C340.553,78.52,331,97.554,331,117.498c0,16.961,6.605,32.908,18.599,44.901
	c1.953,1.953,4.512,2.929,7.071,2.929s5.118-0.976,7.071-2.929c3.905-3.905,3.905-10.237,0-14.143
	C355.524,140.04,351,129.116,351,117.497c0-13.867,6.384-26.583,17.515-34.89c4.427-3.303,5.337-9.569,2.034-13.995
	C367.245,64.186,360.979,63.276,356.554,66.579z"/>
<g>
</g>
<g>
</g>
<g>
</g>
<g>
</g>
<g>
</g>
<g>
</g>
<g>
</g>
<g>
</g>
<g>
</g>
<g>
</g>
<g>
</g>
<g>
</g>
<g>
</g>
<g>
</g>
<g>
</g>
</svg>
