<?xml version="1.0" encoding="iso-8859-1"?>
<!-- Generator: Adobe Illustrator 19.0.0, SVG Export Plug-In . SVG Version: 6.00 Build 0)  -->
<svg version="1.1" id="Capa_1" xmlns="http://www.w3.org/2000/svg" xmlns:xlink="http://www.w3.org/1999/xlink" x="0px" y="0px"
	 viewBox="0 0 480 480" style="enable-background:new 0 0 480 480;" xml:space="preserve">
<path id="SVGCleanerId_0" style="fill:#FDBD40;" d="M240,88l44.496,94.8L384,198.008L312,271.8L329,376l-89-49.2L151,376l17-104.2
	l-72-73.792l99.504-15.208L240,88z"/>
<g>
	<path id="SVGCleanerId_0_1_" style="fill:#FDBD40;" d="M240,88l44.496,94.8L384,198.008L312,271.8L329,376l-89-49.2L151,376
		l17-104.2l-72-73.792l99.504-15.208L240,88z"/>
</g>
<path style="fill:#FCF05A;" d="M40,120c-4.418,0-8-3.582-8-8c0-13.255-10.745-24-24-24c-4.418,0-8-3.582-8-8s3.582-8,8-8
	c13.255,0,24-10.745,24-24c0-4.418,3.582-8,8-8s8,3.582,8,8c0,13.255,10.745,24,24,24c4.418,0,8,3.582,8,8s-3.582,8-8,8
	c-13.255,0-24,10.745-24,24C48,116.418,44.418,120,40,120z M32,80c3.031,2.276,5.724,4.969,8,8c2.276-3.031,4.969-5.724,8-8
	c-3.031-2.276-5.724-4.969-8-8C37.724,75.031,35.031,77.724,32,80z"/>
<g>
	<path style="fill:#E9686A;" d="M112,0h16v16h-16V0z"/>
	<path style="fill:#E9686A;" d="M112,32h16v16h-16V32z"/>
	<path style="fill:#E9686A;" d="M96,16h16v16H96V16z"/>
	<path style="fill:#E9686A;" d="M128,16h16v16h-16V16z"/>
</g>
<g>
	<path style="fill:#FCF05A;" d="M440,440c-4.418,0-8-3.582-8-8c0-13.255-10.745-24-24-24c-4.418,0-8-3.582-8-8s3.582-8,8-8
		c13.255,0,24-10.745,24-24c0-4.418,3.582-8,8-8s8,3.582,8,8c0,13.255,10.745,24,24,24c4.418,0,8,3.582,8,8s-3.582,8-8,8
		c-13.255,0-24,10.745-24,24C448,436.418,444.418,440,440,440z M432,400c3.031,2.276,5.724,4.969,8,8c2.276-3.031,4.969-5.724,8-8
		c-3.031-2.276-5.724-4.969-8-8C437.724,395.031,435.031,397.724,432,400z"/>
	<path style="fill:#FCF05A;" d="M112,464c-4.418,0-8-3.582-8-8c0-13.255-10.745-24-24-24c-4.418,0-8-3.582-8-8s3.582-8,8-8
		c13.255,0,24-10.745,24-24c0-4.418,3.582-8,8-8c4.418,0,8,3.582,8,8c0,13.255,10.745,24,24,24c4.418,0,8,3.582,8,8s-3.582,8-8,8
		c-13.255,0-24,10.745-24,24C120,460.418,116.418,464,112,464z M104,424c3.031,2.276,5.724,4.969,8,8c2.276-3.031,4.969-5.724,8-8
		c-3.031-2.276-5.724-4.969-8-8C109.724,419.031,107.031,421.724,104,424z"/>
	<path style="fill:#FCF05A;" d="M376,112c-4.418,0-8-3.582-8-8c0-13.255-10.745-24-24-24c-4.418,0-8-3.582-8-8s3.582-8,8-8
		c13.255,0,24-10.745,24-24c0-4.418,3.582-8,8-8s8,3.582,8,8c0,13.255,10.745,24,24,24c4.418,0,8,3.582,8,8s-3.582,8-8,8
		c-13.255,0-24,10.745-24,24C384,108.418,380.418,112,376,112z M368,72c3.031,2.276,5.724,4.969,8,8c2.276-3.031,4.969-5.724,8-8
		c-3.031-2.276-5.724-4.969-8-8C373.724,67.031,371.031,69.724,368,72z"/>
</g>
<g>
	<g>
		<path id="SVGCleanerId_1" style="fill:#E9686A;" d="M352,464h16v16h-16V464z"/>
	</g>
	<g>
		<path id="SVGCleanerId_2" style="fill:#E9686A;" d="M352,432h16v16h-16V432z"/>
	</g>
	<g>
		<path id="SVGCleanerId_3" style="fill:#E9686A;" d="M368,448h16v16h-16V448z"/>
	</g>
	<g>
		<path id="SVGCleanerId_4" style="fill:#E9686A;" d="M336,448h16v16h-16V448z"/>
	</g>
	<g>
		<path id="SVGCleanerId_5" style="fill:#E9686A;" d="M32,296h16v16H32V296z"/>
	</g>
	<g>
		<path id="SVGCleanerId_6" style="fill:#E9686A;" d="M64,312h16v16H64V312z"/>
	</g>
	<g>
		<path id="SVGCleanerId_7" style="fill:#E9686A;" d="M416,136h16v16h-16V136z"/>
	</g>
	<g>
		<path id="SVGCleanerId_8" style="fill:#E9686A;" d="M448,152h16v16h-16V152z"/>
	</g>
</g>
<path d="M391.584,195.472c-0.956-2.849-3.428-4.923-6.4-5.368l-95.28-14.568L247.24,84.6c-1.88-3.999-6.645-5.716-10.643-3.837
	c-1.687,0.793-3.044,2.15-3.837,3.837l-42.688,90.936l-95.28,14.568c-4.367,0.67-7.365,4.753-6.695,9.12
	c0.253,1.647,1.013,3.174,2.175,4.368l69.184,70.904l-16.352,100.216c-0.708,4.361,2.253,8.471,6.614,9.179
	c1.767,0.287,3.579-0.027,5.146-0.891L240,335.944L325.136,383c1.181,0.658,2.512,1.003,3.864,1c4.418,0,8-3.581,8-8
	c0-0.432-0.035-0.862-0.104-1.288l-16.352-100.216l69.184-70.904C391.818,201.446,392.534,198.313,391.584,195.472L391.584,195.472z
	 M306.272,266.208c-1.774,1.819-2.579,4.372-2.168,6.88l14.352,87.944l-74.592-41.224c-2.405-1.327-5.323-1.327-7.728,0
	l-74.592,41.224l14.352-87.944c0.411-2.508-0.394-5.061-2.168-6.88L112.6,203.56l84.112-12.848c2.637-0.404,4.9-2.096,6.032-4.512
	L240,106.832l37.256,79.368c1.132,2.416,3.395,4.108,6.032,4.512L367.4,203.56L306.272,266.208z"/>
<path d="M32,112c0,4.418,3.582,8,8,8s8-3.582,8-8c0-13.255,10.745-24,24-24c4.418,0,8-3.582,8-8s-3.582-8-8-8
	c-13.255,0-24-10.745-24-24c0-4.418-3.582-8-8-8s-8,3.582-8,8c0,13.255-10.745,24-24,24c-4.418,0-8,3.582-8,8s3.582,8,8,8
	C21.255,88,32,98.745,32,112z M40,72c2.276,3.031,4.969,5.724,8,8c-3.031,2.276-5.724,4.969-8,8c-2.276-3.031-4.969-5.724-8-8
	C35.031,77.724,37.724,75.031,40,72z"/>
<path d="M112,0h16v16h-16V0z"/>
<path d="M112,32h16v16h-16V32z"/>
<path d="M96,16h16v16H96V16z"/>
<path d="M128,16h16v16h-16V16z"/>
<path d="M472,392c-13.255,0-24-10.745-24-24c0-4.418-3.582-8-8-8s-8,3.582-8,8c0,13.255-10.745,24-24,24c-4.418,0-8,3.582-8,8
	s3.582,8,8,8c13.255,0,24,10.745,24,24c0,4.418,3.582,8,8,8s8-3.582,8-8c0-13.255,10.745-24,24-24c4.418,0,8-3.582,8-8
	S476.418,392,472,392z M440,408c-2.276-3.031-4.969-5.724-8-8c3.031-2.276,5.724-4.969,8-8c2.276,3.031,4.969,5.724,8,8
	C444.969,402.276,442.276,404.969,440,408z"/>
<path d="M80,432c13.255,0,24,10.745,24,24c0,4.418,3.582,8,8,8c4.418,0,8-3.582,8-8c0-13.255,10.745-24,24-24c4.418,0,8-3.582,8-8
	s-3.582-8-8-8c-13.255,0-24-10.745-24-24c0-4.418-3.582-8-8-8c-4.418,0-8,3.582-8,8c0,13.255-10.745,24-24,24c-4.418,0-8,3.582-8,8
	S75.582,432,80,432z M112,416c2.276,3.031,4.969,5.724,8,8c-3.031,2.276-5.724,4.969-8,8c-2.276-3.031-4.969-5.724-8-8
	C107.031,421.724,109.724,419.031,112,416z"/>
<path d="M416,72c0-4.418-3.582-8-8-8c-13.255,0-24-10.745-24-24c0-4.418-3.582-8-8-8s-8,3.582-8,8c0,13.255-10.745,24-24,24
	c-4.418,0-8,3.582-8,8s3.582,8,8,8c13.255,0,24,10.745,24,24c0,4.418,3.582,8,8,8s8-3.582,8-8c0-13.255,10.745-24,24-24
	C412.418,80,416,76.418,416,72z M376,80c-2.276-3.031-4.969-5.724-8-8c3.031-2.276,5.724-4.969,8-8c2.276,3.031,4.969,5.724,8,8
	C380.969,74.276,378.276,76.969,376,80z"/>
<path id="SVGCleanerId_1_1_" d="M352,464h16v16h-16V464z"/>
<path id="SVGCleanerId_2_1_" d="M352,432h16v16h-16V432z"/>
<path id="SVGCleanerId_3_1_" d="M368,448h16v16h-16V448z"/>
<path id="SVGCleanerId_4_1_" d="M336,448h16v16h-16V448z"/>
<path id="SVGCleanerId_5_1_" d="M32,296h16v16H32V296z"/>
<path id="SVGCleanerId_6_1_" d="M64,312h16v16H64V312z"/>
<path id="SVGCleanerId_7_1_" d="M416,136h16v16h-16V136z"/>
<path id="SVGCleanerId_8_1_" d="M448,152h16v16h-16V152z"/>
<g>
</g>
<g>
</g>
<g>
</g>
<g>
</g>
<g>
</g>
<g>
</g>
<g>
</g>
<g>
</g>
<g>
</g>
<g>
</g>
<g>
</g>
<g>
</g>
<g>
</g>
<g>
</g>
<g>
</g>
</svg>
