<?xml version="1.0" encoding="iso-8859-1"?>
<!-- Generator: Adobe Illustrator 19.0.0, SVG Export Plug-In . SVG Version: 6.00 Build 0)  -->
<svg version="1.1" id="Capa_1" xmlns="http://www.w3.org/2000/svg" xmlns:xlink="http://www.w3.org/1999/xlink" x="0px" y="0px"
	 viewBox="0 0 480 480" style="enable-background:new 0 0 480 480;" xml:space="preserve">
<path style="fill:#7FCAC9;" d="M40,120c-4.418,0-8-3.582-8-8c0-13.255-10.745-24-24-24c-4.418,0-8-3.582-8-8s3.582-8,8-8
	c13.255,0,24-10.745,24-24c0-4.418,3.582-8,8-8s8,3.582,8,8c0,13.255,10.745,24,24,24c4.418,0,8,3.582,8,8s-3.582,8-8,8
	c-13.255,0-24,10.745-24,24C48,116.418,44.418,120,40,120z M32,80c3.029,2.278,5.722,4.971,8,8c2.278-3.029,4.971-5.722,8-8
	c-3.029-2.278-5.722-4.971-8-8C37.722,75.029,35.029,77.722,32,80z"/>
<g>
	<path style="fill:#238892;" d="M80,0h16v16H80V0z"/>
	<path style="fill:#238892;" d="M80,32h16v16H80V32z"/>
	<path style="fill:#238892;" d="M64,16h16v16H64V16z"/>
	<path style="fill:#238892;" d="M96,16h16v16H96V16z"/>
</g>
<path style="fill:#7FCAC9;" d="M440,456c-4.418,0-8-3.582-8-8c0-13.255-10.745-24-24-24c-4.418,0-8-3.582-8-8s3.582-8,8-8
	c13.255,0,24-10.745,24-24c0-4.418,3.582-8,8-8s8,3.582,8,8c0,13.255,10.745,24,24,24c4.418,0,8,3.582,8,8s-3.582,8-8,8
	c-13.255,0-24,10.745-24,24C448,452.418,444.418,456,440,456z M432,416c3.029,2.278,5.722,4.971,8,8c2.278-3.029,4.971-5.722,8-8
	c-3.029-2.278-5.722-4.971-8-8C437.722,411.029,435.029,413.722,432,416z"/>
<g>
	<path style="fill:#238892;" d="M368,464h16v16h-16V464z"/>
	<path style="fill:#238892;" d="M368,432h16v16h-16V432z"/>
	<path style="fill:#238892;" d="M384,448h16v16h-16V448z"/>
	<path style="fill:#238892;" d="M352,448h16v16h-16V448z"/>
</g>
<path style="fill:#FDBD40;" d="M40,256h400c17.673,0,32,14.327,32,32l0,0c0,17.673-14.327,32-32,32H40c-17.673,0-32-14.327-32-32
	l0,0C8,270.327,22.327,256,40,256z"/>
<path style="fill:#7D8D9C;" d="M72,192h336v64H72V192z"/>
<path style="fill:#CFDFE8;" d="M240,16c92.784,0,168,75.216,168,168v8l0,0H72l0,0v-8C72,91.216,147.216,16,240,16z"/>
<path style="fill:#F4F4E6;" d="M124.656,120c-4.418-0.002-7.999-3.585-7.997-8.003c0.001-1.502,0.424-2.973,1.221-4.245
	C144.096,65.533,190.303,39.897,240,40c4.418,0,8,3.582,8,8s-3.582,8-8,8c-44.18-0.089-85.256,22.709-108.552,60.248
	C129.983,118.586,127.416,120.004,124.656,120z"/>
<path style="fill:#FCF05A;" d="M336,368H144l-32-48h256L336,368z"/>
<path style="fill:#FDBD40;" d="M264,128v-24c0-4.418-3.582-8-8-8s-8,3.582-8,8v24h-16v-24c0-4.418-3.582-8-8-8s-8,3.582-8,8v24
	c-17.673,0-32,14.327-32,32v32h112v-32C296,142.327,281.673,128,264,128z"/>
<g>
	<g>
		<path id="SVGCleanerId_0" style="fill:#FCF05A;" d="M208,152h16v16h-16V152z"/>
	</g>
	<g>
		<path id="SVGCleanerId_1" style="fill:#FCF05A;" d="M256,152h16v16h-16V152z"/>
	</g>
	<path style="fill:#FCF05A;" d="M184,440c-4.418,0-8-3.582-8-8v-32c0-4.418,3.582-8,8-8s8,3.582,8,8v32
		C192,436.418,188.418,440,184,440z"/>
	<path style="fill:#FCF05A;" d="M224,464c-4.418,0-8-3.582-8-8v-56c0-4.418,3.582-8,8-8s8,3.582,8,8v56
		C232,460.418,228.418,464,224,464z"/>
	<path style="fill:#FCF05A;" d="M256,480c-4.418,0-8-3.582-8-8v-72c0-4.418,3.582-8,8-8s8,3.582,8,8v72
		C264,476.418,260.418,480,256,480z"/>
	<path style="fill:#FCF05A;" d="M288,440c-4.418,0-8-3.582-8-8v-32c0-4.418,3.582-8,8-8s8,3.582,8,8v32
		C296,436.418,292.418,440,288,440z"/>
</g>
<g>
	<path style="fill:#F4F4E6;" d="M64,296H40c-4.418,0-8-3.582-8-8s3.582-8,8-8h24c4.418,0,8,3.582,8,8S68.418,296,64,296z"/>
	<path style="fill:#F4F4E6;" d="M440,296h-24c-4.418,0-8-3.582-8-8s3.582-8,8-8h24c4.418,0,8,3.582,8,8S444.418,296,440,296z"/>
	<path style="fill:#F4F4E6;" d="M256,296h-32c-4.418,0-8-3.582-8-8s3.582-8,8-8h32c4.418,0,8,3.582,8,8S260.418,296,256,296z"/>
</g>
<path d="M8,88c13.255,0,24,10.745,24,24c0,4.418,3.582,8,8,8s8-3.582,8-8c0-13.255,10.745-24,24-24c4.418,0,8-3.582,8-8
	s-3.582-8-8-8c-13.255,0-24-10.745-24-24c0-4.418-3.582-8-8-8s-8,3.582-8,8c0,13.255-10.745,24-24,24c-4.418,0-8,3.582-8,8
	S3.582,88,8,88z M40,72c2.278,3.029,4.971,5.722,8,8c-3.029,2.278-5.722,4.971-8,8c-2.278-3.029-4.971-5.722-8-8
	C35.029,77.722,37.722,75.029,40,72z"/>
<path d="M80,0h16v16H80V0z"/>
<path d="M80,32h16v16H80V32z"/>
<path d="M64,16h16v16H64V16z"/>
<path d="M96,16h16v16H96V16z"/>
<path d="M432,448c0,4.418,3.582,8,8,8s8-3.582,8-8c0-13.255,10.745-24,24-24c4.418,0,8-3.582,8-8s-3.582-8-8-8
	c-13.255,0-24-10.745-24-24c0-4.418-3.582-8-8-8s-8,3.582-8,8c0,13.255-10.745,24-24,24c-4.418,0-8,3.582-8,8s3.582,8,8,8
	C421.255,424,432,434.745,432,448z M440,408c2.278,3.029,4.971,5.722,8,8c-3.029,2.278-5.722,4.971-8,8
	c-2.278-3.029-4.971-5.722-8-8C435.029,413.722,437.722,411.029,440,408z"/>
<path d="M368,464h16v16h-16V464z"/>
<path d="M368,432h16v16h-16V432z"/>
<path d="M384,448h16v16h-16V448z"/>
<path d="M352,448h16v16h-16V448z"/>
<path d="M40,328h67.72l29.6,44.44c1.489,2.232,3.997,3.568,6.68,3.56h192c2.674,0,5.172-1.335,6.656-3.56L372.28,328H440
	c22.091,0,40-17.909,40-40s-17.909-40-40-40h-24v-64C416,86.798,337.202,8,240,8S64,86.798,64,184v64H40c-22.091,0-40,17.909-40,40
	S17.909,328,40,328z M331.72,360H148.28l-21.336-32h226.112L331.72,360z M240,24c88.324,0.101,159.899,71.676,160,160h-96v-24
	c-0.026-22.08-17.92-39.974-40-40v-16c0-4.418-3.582-8-8-8s-8,3.582-8,8v16h-16v-16c0-4.418-3.582-8-8-8s-8,3.582-8,8v16
	c-22.08,0.026-39.974,17.92-40,40v24H80C80.101,95.676,151.676,24.101,240,24z M264,136c13.255,0,24,10.745,24,24v24h-96v-24
	c0-13.255,10.745-24,24-24H264z M80,200h320v48H80V200z M40,264h400c13.255,0,24,10.745,24,24s-10.745,24-24,24H40
	c-13.255,0-24-10.745-24-24S26.745,264,40,264z"/>
<path d="M240,56c4.418,0,8-3.582,8-8s-3.582-8-8-8c-49.697-0.103-95.904,25.533-122.12,67.752
	c-2.346,3.756-1.204,8.702,2.552,11.048s8.702,1.204,11.048-2.552C154.77,78.718,195.831,55.923,240,56z"/>
<path id="SVGCleanerId_0_1_" d="M208,152h16v16h-16V152z"/>
<path id="SVGCleanerId_1_1_" d="M256,152h16v16h-16V152z"/>
<path d="M192,432v-32c0-4.418-3.582-8-8-8s-8,3.582-8,8v32c0,4.418,3.582,8,8,8S192,436.418,192,432z"/>
<path d="M232,456v-56c0-4.418-3.582-8-8-8s-8,3.582-8,8v56c0,4.418,3.582,8,8,8S232,460.418,232,456z"/>
<path d="M264,472v-72c0-4.418-3.582-8-8-8s-8,3.582-8,8v72c0,4.418,3.582,8,8,8S264,476.418,264,472z"/>
<path d="M296,432v-32c0-4.418-3.582-8-8-8s-8,3.582-8,8v32c0,4.418,3.582,8,8,8S296,436.418,296,432z"/>
<path d="M40,296h24c4.418,0,8-3.582,8-8s-3.582-8-8-8H40c-4.418,0-8,3.582-8,8S35.582,296,40,296z"/>
<path d="M416,296h24c4.418,0,8-3.582,8-8s-3.582-8-8-8h-24c-4.418,0-8,3.582-8,8S411.582,296,416,296z"/>
<path d="M224,296h32c4.418,0,8-3.582,8-8s-3.582-8-8-8h-32c-4.418,0-8,3.582-8,8S219.582,296,224,296z"/>
<g>
</g>
<g>
</g>
<g>
</g>
<g>
</g>
<g>
</g>
<g>
</g>
<g>
</g>
<g>
</g>
<g>
</g>
<g>
</g>
<g>
</g>
<g>
</g>
<g>
</g>
<g>
</g>
<g>
</g>
</svg>
