<svg id="Layer_1" height="512" viewBox="0 0 512 512" width="512" xmlns="http://www.w3.org/2000/svg" data-name="Layer 1"><circle cx="91" cy="401" fill="#50a6ea" r="57"/><path d="m64 401a57.014 57.014 0 0 1 42-54.991 57 57 0 1 0 0 109.982 57.014 57.014 0 0 1 -42-54.991z" fill="#867af4"/><path d="m468.03 286.1a21 21 0 1 1 -21 20.99 20.993 20.993 0 0 1 21-20.99z" fill="#5f6a78"/><path d="m461.21 425.11a20.991 20.991 0 1 1 -27.37-11.51 20.994 20.994 0 0 1 27.37 11.51z" fill="#fadf4a"/><path d="m366.14 92.35a26.8 26.8 0 1 1 -26.8 26.8 26.8 26.8 0 0 1 26.8-26.8zm13.4 32.71a.4.4 0 1 0 -.39.39.4.4 0 0 0 .39-.39zm-23.64-11.04a.393.393 0 0 0 -.4-.39.384.384 0 0 0 -.39.39.393.393 0 0 0 .39.4.4.4 0 0 0 .4-.4z" fill="#5f6a78"/><path d="m315.11 265.82a15.743 15.743 0 1 1 -20.53-8.63 15.748 15.748 0 0 1 20.53 8.63z" fill="#5f6a78"/><path d="m288.53 399.46a21 21 0 1 1 -20.99 21 21 21 0 0 1 20.99-21z" fill="#ed6337"/><path d="m180.95 23.61a28.333 28.333 0 0 0 -34.07 11.42 27.436 27.436 0 0 0 -2.49 5 28.339 28.339 0 1 0 36.56-16.42z" fill="#ed6337"/><path d="m131.09 154.89a38.84 38.84 0 1 1 -38.84 38.84 38.832 38.832 0 0 1 38.84-38.84z" fill="#fadf4a"/><path d="m133.45 400.11a11.075 11.075 0 1 1 -10.34-7.12 11.006 11.006 0 0 1 10.34 7.12z" fill="#604af3"/><path d="m62.65 53.53a15.747 15.747 0 1 1 -20.53-8.63 15.753 15.753 0 0 1 20.53 8.63z" fill="#604af3"/><path d="m64 401a57.014 57.014 0 0 1 42-54.991 57 57 0 1 0 0 109.982 57.014 57.014 0 0 1 -42-54.991z" fill="#72bcef"/><path d="m366.74 170.864a52.54 52.54 0 0 1 -7.515-.542 51.841 51.841 0 0 1 -23.637-92.829l73.428-54.9a6 6 0 1 1 7.184 9.607l-73.427 54.9a39.842 39.842 0 1 0 47.717 63.82l57.182-42.754a6 6 0 1 1 7.185 9.61l-57.181 42.755a51.456 51.456 0 0 1 -30.936 10.333z" fill="#b0b5ca"/><path d="m463 110.2a6 6 0 0 1 -3.6-10.8l.843-.63a6 6 0 1 1 7.188 9.609l-.843.63a5.97 5.97 0 0 1 -3.588 1.191z" fill="#b0b5ca"/><path d="m449.9 28.124a6 6 0 0 1 -3.786-10.658l7.758-6.3a6 6 0 0 1 7.565 9.315l-7.758 6.3a5.974 5.974 0 0 1 -3.779 1.343z" fill="#b0b5ca"/><path d="m425.1 48.262a6 6 0 0 1 -3.786-10.662l11.267-9.15a6 6 0 0 1 7.565 9.316l-11.267 9.149a5.972 5.972 0 0 1 -3.779 1.347z" fill="#b0b5ca"/><path d="m402.664 66.482a6 6 0 0 1 -3.786-10.657l10.206-8.289a6 6 0 0 1 7.564 9.316l-10.206 8.288a5.971 5.971 0 0 1 -3.778 1.342z" fill="#b0b5ca"/><path d="m479.607 62.6a6 6 0 0 1 -3.866-10.591l7.028-5.913a6 6 0 1 1 7.726 9.181l-7.027 5.913a5.975 5.975 0 0 1 -3.861 1.41z" fill="#b0b5ca"/><path d="m443.315 93.136a6 6 0 0 1 -3.866-10.591l23.9-20.113a6 6 0 1 1 7.726 9.181l-23.9 20.114a5.98 5.98 0 0 1 -3.86 1.409z" fill="#b0b5ca"/><path d="m428.662 105.466a6 6 0 0 1 -3.862-10.591l3.942-3.317a6 6 0 0 1 7.725 9.182l-3.943 3.317a5.976 5.976 0 0 1 -3.862 1.409z" fill="#ccd3df"/><path d="m459.888 50.753a6 6 0 0 1 -3.707-10.721l28.847-22.632a6 6 0 0 1 7.407 9.442l-28.848 22.632a5.978 5.978 0 0 1 -3.699 1.279z" fill="#b0b5ca"/><path d="m443.316 63.752a6 6 0 0 1 -3.707-10.722l4.5-3.528a6 6 0 0 1 7.407 9.443l-4.5 3.528a5.981 5.981 0 0 1 -3.7 1.279z" fill="#b0b5ca"/><path d="m402.664 95.841a6 6 0 0 1 -3.727-10.7l28.385-22.468a6 6 0 0 1 7.448 9.41l-28.386 22.463a5.974 5.974 0 0 1 -3.72 1.295z" fill="#b0b5ca"/><path d="m431.046 24.051a7.1 7.1 0 1 1 7.1-7.095 7.1 7.1 0 0 1 -7.1 7.095z" fill="#b0b5ca"/><path d="m360.23 137.755a6.394 6.394 0 1 1 6.394-6.394 6.4 6.4 0 0 1 -6.394 6.394z" fill="#4a5160"/><path d="m355.5 120.417a6.395 6.395 0 1 1 6.4-6.395 6.4 6.4 0 0 1 -6.4 6.395z" fill="#4a5160"/><path d="m379.146 131.45a6.394 6.394 0 1 1 6.393-6.394 6.4 6.4 0 0 1 -6.393 6.394z" fill="#4a5160"/><path d="m132.163 403.7a6 6 0 0 1 -4.8-9.6c16.941-22.636 22.948-41.227 15.674-48.518-1.073-1.076-4.333-4.352-13.671-2.483a6 6 0 0 1 -2.355-11.767c12.92-2.586 20.468 1.712 24.521 5.775 12.333 12.364 7.161 35.158-14.561 64.184a6 6 0 0 1 -4.808 2.409z" fill="#fff27d"/><path d="m43.663 468.81c-6.93 0-12.648-2.21-17-6.569-4.436-4.446-8.918-12.824-5.079-27.482a6 6 0 1 1 11.616 3.041c-1.926 7.355-1.265 12.727 1.966 15.966 2.042 2.048 4.823 3.044 8.5 3.044 14.439 0 39.866-15.767 63.275-39.233 2.416-2.422 4.806-4.925 7.106-7.441a6 6 0 1 1 8.857 8.1c-2.417 2.644-4.929 5.275-7.467 7.82-20.625 20.666-50.306 42.753-71.774 42.754z" fill="#fff27d"/><path d="m55.389 427.109a6 6 0 0 1 -5.1-2.833l-.241-.39a6 6 0 0 1 10.24-6.256l.191.309a6 6 0 0 1 -5.089 9.17z" fill="#489ed8"/><path d="m441.77 481.053a48.1 48.1 0 1 1 18.131-3.582 47.891 47.891 0 0 1 -18.131 3.582zm0-84.018a36.006 36.006 0 1 0 33.317 22.411 36.066 36.066 0 0 0 -33.317-22.411z" fill="#ffa4c2"/><path d="m196.942 91.291c-4.418 0-9.872-2.407-16.481-7.25-7.75-5.678-16.536-14.347-24.739-24.41-8.229-10.095-14.979-20.481-19.006-29.244-7.866-17.118-2.223-21.719-.368-23.23 6.147-5.013 18.277 1.728 32.1 14.123l-12.01 4.935c-6.572-5.891-9.11-7.552-11.616-8.61 1.076 5.432 6.967 18.214 20.2 34.444 12.982 15.924 24.137 24.212 29.4 26.527a40.436 40.436 0 0 0 -3.884-10.239l8.606-11.616c5.35 10.1 11.184 27.279 3.822 32.658a9.931 9.931 0 0 1 -6.024 1.912z" fill="#9be147"/><path d="m321.572 304.856a6.534 6.534 0 1 1 2.461-.486 6.5 6.5 0 0 1 -2.461.486z" fill="#d8ff33"/><path d="m74.625 44.97a6.527 6.527 0 1 1 6.044-8.992 6.531 6.531 0 0 1 -6.044 8.992z" fill="#50dd5a"/><g fill="#867af4"><path d="m288.535 382.371a8.1 8.1 0 1 1 8.1-8.1 8.109 8.109 0 0 1 -8.1 8.1z"/><path d="m288.535 474.74a8.1 8.1 0 1 1 8.1-8.1 8.108 8.108 0 0 1 -8.1 8.1z"/><path d="m242.35 428.555a8.1 8.1 0 1 1 8.1-8.1 8.108 8.108 0 0 1 -8.1 8.1z"/><path d="m334.72 428.555a8.1 8.1 0 1 1 8.1-8.1 8.109 8.109 0 0 1 -8.1 8.1z"/><path d="m255.877 461.213a8.1 8.1 0 0 1 -5.729-13.825 8.1 8.1 0 1 1 5.726 13.828z"/><path d="m321.192 395.9a8.1 8.1 0 0 1 -5.728-13.825 8.1 8.1 0 1 1 5.728 13.825z"/><path d="m255.877 395.9a8.1 8.1 0 1 1 5.723-13.83s0 0 0 0a8.1 8.1 0 0 1 -5.728 13.825z"/><path d="m321.192 461.213a8.1 8.1 0 1 1 5.726-13.828 8.1 8.1 0 0 1 -5.729 13.825z"/></g><path d="m422.891 258.512a8.1 8.1 0 1 1 8.1-8.1 8.11 8.11 0 0 1 -8.1 8.1z" fill="#50dd5a"/><path d="m293.783 44.382a8.1 8.1 0 1 1 8.1-8.1 8.108 8.108 0 0 1 -8.1 8.1z" fill="#d8ff33"/><path d="m41.866 327.789a8.1 8.1 0 1 1 8.1-8.1 8.109 8.109 0 0 1 -8.1 8.1z" fill="#d8ff33"/><path d="m28.221 165.092a8.1 8.1 0 1 1 8.1-8.1 8.109 8.109 0 0 1 -8.1 8.1z" fill="#d8ff33"/><path d="m363.061 502.031a8.1 8.1 0 1 1 8.1-8.1 8.109 8.109 0 0 1 -8.1 8.1z" fill="#50dd5a"/><path d="m191.967 296.3a8.1 8.1 0 1 1 8.1-8.1 8.109 8.109 0 0 1 -8.1 8.1z" fill="#50dd5a"/><path d="m479.571 172.44a8.1 8.1 0 1 1 8.1-8.1 8.107 8.107 0 0 1 -8.1 8.1z" fill="#d8ff33"/><path d="m221.356 160.894a8.1 8.1 0 1 1 8.1-8.1 8.108 8.108 0 0 1 -8.1 8.1z" fill="#d8ff33"/><path d="m301.3 199.6a23.482 23.482 0 0 1 -14.755-14.8 6 6 0 0 0 -11.388 0 23.475 23.475 0 0 1 -14.757 14.8 6 6 0 0 0 0 11.38 23.472 23.472 0 0 1 14.753 14.8 6 6 0 0 0 11.388 0 23.482 23.482 0 0 1 14.755-14.8 6 6 0 0 0 0-11.38z" fill="#50a6ea"/><path d="m61.975 219.544a23.473 23.473 0 0 1 -14.753-14.8 6 6 0 0 0 -11.388 0 23.483 23.483 0 0 1 -14.755 14.8 6 6 0 0 0 0 11.381 23.482 23.482 0 0 1 14.755 14.8 6 6 0 0 0 11.388 0 23.473 23.473 0 0 1 14.753-14.8 6 6 0 0 0 0-11.381z" fill="#50a6ea"/><path d="m425.857 276.623a23.481 23.481 0 0 1 -14.754-14.8 6 6 0 0 0 -11.388 0 23.478 23.478 0 0 1 -14.753 14.8 6 6 0 0 0 0 11.38 23.475 23.475 0 0 1 14.753 14.8 6 6 0 0 0 11.388 0 23.481 23.481 0 0 1 14.754-14.803 6 6 0 0 0 0-11.38z" fill="#fadf4a"/><path d="m190.032 476.709a23.484 23.484 0 0 1 -14.754-14.8 6 6 0 0 0 -11.386 0 23.485 23.485 0 0 1 -14.755 14.8 6 6 0 0 0 0 11.381 23.482 23.482 0 0 1 14.755 14.8 6 6 0 0 0 11.386 0 23.481 23.481 0 0 1 14.754-14.8 6 6 0 0 0 0-11.381zm-20.447 11.8a35.728 35.728 0 0 0 -6.1-6.107 35.687 35.687 0 0 0 6.1-6.106 35.717 35.717 0 0 0 6.095 6.106 35.759 35.759 0 0 0 -6.095 6.104z" fill="#fadf4a"/><path d="m123.109 421.2a17.121 17.121 0 1 1 17.079-17.1 17.112 17.112 0 0 1 -17.079 17.1z" fill="#e5f5fd"/></svg>