<svg id="レイヤー_1" data-name="レイヤー 1" xmlns="http://www.w3.org/2000/svg" viewBox="0 0 1140 1140"><defs><style>.cls-1{fill:#4299ca;}.cls-2,.cls-3{fill:#fff;}.cls-2{stroke:#fff;stroke-miterlimit:10;stroke-width:50px;}</style></defs><rect class="cls-1" width="1140" height="1140" rx="570"/><path class="cls-2" d="M574.63,577.64q64.07,15.75,93,53.11t29,84a142.93,142.93,0,0,1-20,73.06q-19.95,34.29-56.76,54.8T493.14,863.14h-163V320.8H474.59q98.34,0,132.07,14.05t50.87,41.59Q674.66,404,674.67,437.7q0,37.67-21.64,74.47T574.63,577.64ZM401,556.29h68q52.27,0,78.4-13.77A103.87,103.87,0,0,0,589,502.61q15.45-26.13,15.46-53.67,0-30.35-24.17-52t-87.67-21.64H401Zm0,252.9h99.47q70.82,0,96.95-26.41t26.13-62.39a92.56,92.56,0,0,0-16.86-53.67q-16.86-24.45-50-40.18T453.23,610.8H401Z" transform="translate(-15 -15)"/><rect class="cls-3" x="752.55" y="277.8" width="94" height="441.2"/><rect class="cls-3" x="748" y="770" width="104" height="104" rx="48.5"/></svg>