<svg id="レイヤー_1" data-name="レイヤー 1" xmlns="http://www.w3.org/2000/svg" viewBox="0 0 1024 1003.23"><defs><style>.cls-1{fill:#06c755;}.cls-2{fill:#fff;stroke:#fff;stroke-miterlimit:10;stroke-width:14px;}</style></defs><path class="cls-1" d="M533.26,868.87H520.32C284.54,868.87,15,677.72,15,441.93h0C15,206.14,284.54,15,520.32,15h12.94c235.79,0,505.32,191.14,505.32,426.93h0C1038.58,677.72,769.05,868.87,533.26,868.87Z" transform="translate(-15 -15)"/><path class="cls-1" d="M488,1018.23c39-90.29,0-568,0-568.36.06-.53,551-7.81,550.54-7.87C1038.58,442,1074.12,765.53,488,1018.23Z" transform="translate(-15 -15)"/><path class="cls-2" d="M192.58,338.23h29.75V543.76h98.5v25H192.58Z" transform="translate(-15 -15)"/><path class="cls-2" d="M410.43,338.23v230.5H380.67V338.23Z" transform="translate(-15 -15)"/><path class="cls-2" d="M489.09,568.73V338.23h32.49l73.87,116.62c17.1,27,30.44,51.3,41.38,74.89l.68-.34c-2.73-30.78-3.42-58.82-3.42-94.73V338.23h28v230.5H632l-73.19-117c-16.07-25.65-31.46-52-43.09-76.95l-1,.34c1.71,29.07,2.39,56.77,2.39,95.08v98.49Z" transform="translate(-15 -15)"/><path class="cls-2" d="M860.15,460.66h-89.6v83.1h99.86v25H740.8V338.23H865.28v25H770.55V436h89.6Z" transform="translate(-15 -15)"/></svg>