<?xml version="1.0" encoding="UTF-8"?>
<svg xmlns="http://www.w3.org/2000/svg" xmlns:xlink="http://www.w3.org/1999/xlink" width="500pt" height="500pt" viewBox="0 0 500 500" version="1.1">
<g id="surface4093825">
<path style=" stroke:none;fill-rule:nonzero;fill:rgb(100%,100%,100%);fill-opacity:1;" d="M 419.375 86.25 C 412.734375 86.484375 406.640625 90 403.125 95.625 L 215 383.4375 L 93.125 278.125 C 87.890625 272.695312 80.039062 270.664062 72.8125 272.929688 C 65.625 275.15625 60.273438 281.25 59.023438 288.671875 C 57.773438 296.132812 60.78125 303.632812 66.875 308.125 L 206.25 428.75 C 210.625 432.460938 216.40625 434.101562 222.070312 433.28125 C 227.773438 432.421875 232.8125 429.179688 235.9375 424.375 L 436.875 117.5 C 441.171875 111.210938 441.523438 103.085938 437.8125 96.445312 C 434.101562 89.84375 426.953125 85.898438 419.375 86.25 Z M 419.375 86.25 "/>
</g>
</svg>
