<svg id="レイヤー_1" data-name="レイヤー 1" xmlns="http://www.w3.org/2000/svg" viewBox="0 0 236.13 185.64"><defs><style>.cls-1{fill:#a2dcfb;}.cls-2{fill:#84ccf6;}</style></defs><path class="cls-1" d="M5,183.56a6.56,6.56,0,0,0,6.58,6.58c34.81-.07,196.4-.37,219.85.27a8.17,8.17,0,0,0,6.32-2.62,10.21,10.21,0,0,0,2.62-6.32c.54-5.5,1-75.36.63-146.35,0-7.46-3.3-11.65-13-11.72-44.23-.32-118.51.25-133,.24a6.53,6.53,0,0,1-5.08-2.41l-9-11A16.36,16.36,0,0,0,69.71,5c-20.27.15-39.77.07-52.79,0A11.87,11.87,0,0,0,5,16.89Z" transform="translate(-5 -5)"/><rect class="cls-2" y="31" width="236" height="154.64" rx="6.22"/></svg>