<svg id="レイヤー_1" data-name="レイヤー 1" xmlns="http://www.w3.org/2000/svg" viewBox="0 0 22 4.62"><defs><style>.cls-1{fill:#59b85b;}</style></defs><path class="cls-1" d="M5.21,11.5H1.85v1.86c0,.17-.22.26-.42.26S1,13.53,1,13.36V9.26c0-.17.21-.25.43-.25s.42.08.42.25v1.66H5.21V9.26c0-.17.22-.25.43-.25s.43.08.43.25v4.1c0,.17-.22.26-.43.26s-.43-.09-.43-.26Z" transform="translate(-1 -9)"/><path class="cls-1" d="M8.48,9.66H6.77a.3.3,0,1,1,0-.59H11a.32.32,0,0,1,.36.3c0,.14-.12.29-.36.29H9.34v3.7c0,.17-.21.25-.42.25s-.44-.08-.44-.25Z" transform="translate(-1 -9)"/><path class="cls-1" d="M17.1,9.87l-1.66,3.2a.64.64,0,0,1-.6.38.66.66,0,0,1-.62-.38L12.57,9.88v3.47c0,.18-.2.26-.41.26s-.41-.08-.41-.26V9.47c0-.31.36-.47.71-.47a.65.65,0,0,1,.58.24l1.79,3.43,1.79-3.43A.68.68,0,0,1,17.2,9c.35,0,.72.15.72.46v3.88c0,.18-.2.26-.41.26s-.41-.08-.41-.26Z" transform="translate(-1 -9)"/><path class="cls-1" d="M19.69,13.55c-.57,0-.85-.21-.85-.62V9.27c0-.18.21-.27.42-.27s.43.09.43.27v3.5c0,.14.07.19.24.19h2.68c.26,0,.39.15.39.3s-.13.29-.4.29Z" transform="translate(-1 -9)"/></svg>