<svg id="レイヤー_1" data-name="レイヤー 1" xmlns="http://www.w3.org/2000/svg" viewBox="0 0 670.17 554.71"><defs><style>.cls-1{fill:#212121;}</style></defs><rect class="cls-1" x="0.09" y="44.51" width="365.5" height="72" rx="30"/><rect class="cls-1" x="304.67" y="440.11" width="365.5" height="72" rx="30"/><path class="cls-1" d="M705.37,167.9a30,30,0,0,1,30,30v12a30,30,0,0,1-30,30h-113c2.8-13.52,1.47-6.77,4-20.26a50.77,50.77,0,0,0,4.2-20.82c0-1.37.06-2.36.09-4.63,0-1,0-2,0-3,.85-7.08.57-4.28,1-8.39,3.35-2.53,1.91-1.22,4.41-3.83,2.54-3.15,4.8-6.95,5.24-11.07Z" transform="translate(-65.2 -124.39)"/><path class="cls-1" d="M550.66,163.91l-3.83.07c-9.23.66-17.9,5.16-24.45,11.53a40,40,0,1,0,56.57,0A41.27,41.27,0,0,0,554.5,164Zm0-39.52A79.61,79.61,0,1,1,471,204a79.6,79.6,0,0,1,79.61-79.6Z" transform="translate(-65.2 -124.39)"/><path class="cls-1" d="M95.2,635.59a30,30,0,0,1-30-30v-12a30,30,0,0,1,30-30h113c-2.8,13.52-1.46,6.77-4,20.26a50.77,50.77,0,0,0-4.2,20.82c0,1.36-.06,2.36-.08,4.63,0,1,0,2-.06,3-.85,7.08-.57,4.28-1,8.39-3.35,2.53-1.91,1.22-4.41,3.82-2.54,3.16-4.8,7-5.24,11.08Z" transform="translate(-65.2 -124.39)"/><path class="cls-1" d="M249.91,639.58l3.84-.07c9.22-.66,17.9-5.16,24.45-11.53a40,40,0,1,0-56.57,0,41.27,41.27,0,0,0,24.45,11.53Zm0,39.52a79.61,79.61,0,1,1,79.61-79.61A79.6,79.6,0,0,1,250,679.1Z" transform="translate(-65.2 -124.39)"/></svg>